{
.appVersion = "1141";
DisplayStrings = (
"-Hydroxy -methylbutyric acid (HMB) is a naturally produced substance in humans that is used as a dietary supplement. It is an ingredient in certain medical foods that are intended to promote wound healing and provide nutritional support for people with muscle wasting due to cancer or HIVIn healthy    adults, supplementation with HMB has been shown to reduce skeletal muscle damage from exercise, expedite recovery from exercise, and increase exercise-induced gains in muscle size, muscle strength, and lean body mass. Medical reviews and meta-analyses indicate that HMB supplementation also helps to preserve or increase lean body mass and muscle strength in individuals experiencing age-related muscle loss. HMB produces these effects in part by stimulating protein production and inhibiting protein breakdown in muscle tissue. Pharmacologically active concentrations of the compound in blood plasma and muscle can only be achieved by supplementation with HMB. (Full article...)",

glyphs = (
{
glyphname = A;
lastChange = "2018-05-28 16:22:04 +0000";
layers = (
{
anchors = (
{
name = bottom;
position = "{341, 0}";
},
{
name = ogonek;
position = "{647, 0}";
},
{
name = top;
position = "{341, 700}";
}
);
background = {
paths = (
{
closed = 1;
nodes = (
"152 0 LINE",
"232 212 LINE",
"233 235 LINE",
"360 571 LINE",
"327 571 LINE",
"453 235 LINE",
"456 206 LINE",
"533 0 LINE",
"678 0 LINE",
"430 640 LINE SMOOTH",
"414 681 OFFCURVE",
"385 700 OFFCURVE",
"342 700 CURVE SMOOTH",
"280 700 LINE",
"7 0 LINE"
);
},
{
closed = 1;
nodes = (
"566 163 LINE",
"566 279 LINE",
"134 279 LINE",
"134 163 LINE"
);
}
);
};
layerId = "EA06CE92-4115-4482-8874-2441C279E756";
paths = (
{
closed = 1;
nodes = (
"148 0 LINE",
"228 212 LINE",
"231 235 LINE",
"341 531 LINE",
"342 531 LINE",
"451 235 LINE",
"456 206 LINE",
"533 0 LINE",
"677 0 LINE",
"428 640 LINE SMOOTH",
"412 681 OFFCURVE",
"383 700 OFFCURVE",
"340 700 CURVE SMOOTH",
"278 700 LINE",
"4 0 LINE"
);
},
{
closed = 1;
nodes = (
"564 163 LINE",
"564 279 LINE",
"132 279 LINE",
"132 163 LINE"
);
}
);
width = 681;
},
{
anchors = (
{
name = bottom;
position = "{315, 0}";
},
{
name = ogonek;
position = "{621, 0}";
},
{
name = top;
position = "{315, 700}";
}
);
background = {
paths = (
{
closed = 1;
nodes = (
"71 0 LINE",
"315 650 LINE",
"316 650 LINE",
"558 0 LINE",
"595 0 LINE",
"339 678 LINE SMOOTH",
"333 693 OFFCURVE",
"325 700 OFFCURVE",
"315 700 CURVE SMOOTH",
"300 700 LINE",
"34 0 LINE"
);
},
{
closed = 1;
nodes = (
"502 213 LINE",
"502 246 LINE",
"141 246 LINE",
"141 213 LINE"
);
}
);
};
layerId = "76C6DC51-463D-4A0C-B694-3EB424048C5D";
paths = (
{
closed = 1;
nodes = (
"72 0 LINE",
"157 226 LINE",
"159 232 LINE",
"315 648 LINE",
"316 648 LINE",
"470 233 LINE",
"472 227 LINE",
"557 0 LINE",
"595 0 LINE",
"340 678 LINE SMOOTH",
"334 693 OFFCURVE",
"326 700 OFFCURVE",
"316 700 CURVE SMOOTH",
"299 700 LINE",
"34 0 LINE"
);
},
{
closed = 1;
nodes = (
"500 213 LINE",
"500 246 LINE",
"139 246 LINE",
"139 213 LINE"
);
}
);
width = 629;
},
{
anchors = (
{
name = bottom;
position = "{324, 0}";
},
{
name = ogonek;
position = "{630, 0}";
},
{
name = top;
position = "{324, 700}";
}
);
layerId = "BB270C98-E610-4AC3-8B1B-9C54875E1C66";
paths = (
{
closed = 1;
nodes = (
"98 0 LINE",
"180 221 LINE",
"185 234 LINE",
"323 604 LINE",
"324 604 LINE",
"463 232 LINE",
"470 213 LINE",
"549 0 LINE",
"625 0 LINE",
"373 660 LINE SMOOTH",
"363 687 OFFCURVE",
"347 700 OFFCURVE",
"325 700 CURVE SMOOTH",
"291 700 LINE",
"22 0 LINE"
);
},
{
closed = 1;
nodes = (
"528 194 LINE",
"528 256 LINE",
"145 256 LINE",
"145 194 LINE"
);
}
);
width = 647;
}
);
leftKerningGroup = A;
note = A;
rightKerningGroup = A;
rightMetricsKey = "=|";
unicode = 0041;
},
{
glyphname = B;
lastChange = "2018-05-28 16:22:04 +0000";
layers = (
{
anchors = (
{
name = bottom;
position = "{354, 0}";
},
{
name = top;
position = "{354, 700}";
}
);
background = {
paths = (
{
closed = 1;
nodes = (
"441 0 LINE SMOOTH",
"576 0 OFFCURVE",
"666 76 OFFCURVE",
"666 189 CURVE SMOOTH",
"666 229 LINE SMOOTH",
"666 298 OFFCURVE",
"623 356 OFFCURVE",
"559 374 CURVE",
"559 375 LINE",
"597 397 OFFCURVE",
"622 441 OFFCURVE",
"622 482 CURVE SMOOTH",
"622 527 LINE SMOOTH",
"622 631 OFFCURVE",
"544 700 OFFCURVE",
"412 700 CURVE SMOOTH",
"64 700 LINE",
"64 94 LINE SMOOTH",
"64 38 OFFCURVE",
"103 0 OFFCURVE",
"161 0 CURVE SMOOTH"
);
},
{
closed = 1;
nodes = (
"202 295 LINE",
"451 295 LINE SMOOTH",
"497 295 OFFCURVE",
"528 269 OFFCURVE",
"528 230 CURVE SMOOTH",
"528 197 LINE SMOOTH",
"528 151 OFFCURVE",
"489 120 OFFCURVE",
"431 120 CURVE SMOOTH",
"202 120 LINE"
);
},
{
closed = 1;
nodes = (
"202 580 LINE",
"402 580 LINE SMOOTH",
"451 580 OFFCURVE",
"484 556 OFFCURVE",
"484 519 CURVE SMOOTH",
"484 491 LINE SMOOTH",
"484 443 OFFCURVE",
"455 411 OFFCURVE",
"412 411 CURVE SMOOTH",
"202 411 LINE"
);
}
);
};
layerId = "EA06CE92-4115-4482-8874-2441C279E756";
paths = (
{
closed = 1;
nodes = (
"439 0 LINE SMOOTH",
"574 0 OFFCURVE",
"664 69 OFFCURVE",
"664 179 CURVE SMOOTH",
"664 229 LINE SMOOTH",
"664 292 OFFCURVE",
"621 348 OFFCURVE",
"557 370 CURVE",
"557 371 LINE",
"595 396 OFFCURVE",
"620 440 OFFCURVE",
"620 484 CURVE SMOOTH",
"620 534 LINE SMOOTH",
"620 635 OFFCURVE",
"536 700 OFFCURVE",
"410 700 CURVE SMOOTH",
"62 700 LINE",
"62 94 LINE SMOOTH",
"62 38 OFFCURVE",
"101 0 OFFCURVE",
"159 0 CURVE SMOOTH"
);
},
{
closed = 1;
nodes = (
"200 296 LINE",
"449 296 LINE SMOOTH",
"495 296 OFFCURVE",
"526 270 OFFCURVE",
"526 231 CURVE SMOOTH",
"526 187 LINE SMOOTH",
"526 144 OFFCURVE",
"492 120 OFFCURVE",
"434 120 CURVE SMOOTH",
"200 120 LINE"
);
},
{
closed = 1;
nodes = (
"200 580 LINE",
"405 580 LINE SMOOTH",
"451 580 OFFCURVE",
"482 556 OFFCURVE",
"482 519 CURVE SMOOTH",
"482 485 LINE SMOOTH",
"482 440 OFFCURVE",
"453 410 OFFCURVE",
"410 410 CURVE SMOOTH",
"200 410 LINE"
);
}
);
width = 690;
},
{
anchors = (
{
name = bottom;
position = "{333, 0}";
},
{
name = top;
position = "{333, 700}";
}
);
background = {
paths = (
{
closed = 1;
nodes = (
"418 0 LINE SMOOTH",
"527 0 OFFCURVE",
"592 74 OFFCURVE",
"592 182 CURVE SMOOTH",
"592 229 LINE SMOOTH",
"592 296 OFFCURVE",
"549 351 OFFCURVE",
"483 365 CURVE",
"483 366 LINE",
"524 394 OFFCURVE",
"548 445 OFFCURVE",
"548 497 CURVE SMOOTH",
"548 552 LINE SMOOTH",
"548 640 OFFCURVE",
"471 700 OFFCURVE",
"357 700 CURVE SMOOTH",
"92 700 LINE",
"92 48 LINE SMOOTH",
"92 20 OFFCURVE",
"110 0 OFFCURVE",
"138 0 CURVE SMOOTH"
);
},
{
closed = 1;
nodes = (
"128 338 LINE",
"428 338 LINE SMOOTH",
"504 338 OFFCURVE",
"556 294 OFFCURVE",
"556 228 CURVE SMOOTH",
"556 177 LINE SMOOTH",
"556 93 OFFCURVE",
"498 34 OFFCURVE",
"405 34 CURVE SMOOTH",
"128 34 LINE"
);
},
{
closed = 1;
nodes = (
"128 666 LINE",
"360 666 LINE SMOOTH",
"450 666 OFFCURVE",
"512 623 OFFCURVE",
"512 561 CURVE SMOOTH",
"512 496 LINE SMOOTH",
"512 419 OFFCURVE",
"462 368 OFFCURVE",
"389 368 CURVE SMOOTH",
"128 368 LINE"
);
}
);
};
layerId = "76C6DC51-463D-4A0C-B694-3EB424048C5D";
paths = (
{
closed = 1;
nodes = (
"412 0 LINE SMOOTH",
"520 0 OFFCURVE",
"592 66 OFFCURVE",
"592 165 CURVE SMOOTH",
"592 224 LINE SMOOTH",
"592 293 OFFCURVE",
"547 348 OFFCURVE",
"479 361 CURVE",
"479 362 LINE",
"520 383 OFFCURVE",
"548 437 OFFCURVE",
"548 497 CURVE SMOOTH",
"548 557 LINE SMOOTH",
"548 643 OFFCURVE",
"480 700 OFFCURVE",
"377 700 CURVE SMOOTH",
"92 700 LINE",
"92 48 LINE SMOOTH",
"92 19 OFFCURVE",
"110 0 OFFCURVE",
"138 0 CURVE SMOOTH"
);
},
{
closed = 1;
nodes = (
"128 337 LINE",
"428 337 LINE SMOOTH",
"505 337 OFFCURVE",
"556 292 OFFCURVE",
"556 224 CURVE SMOOTH",
"556 165 LINE SMOOTH",
"556 86 OFFCURVE",
"496 33 OFFCURVE",
"407 33 CURVE SMOOTH",
"128 33 LINE"
);
},
{
closed = 1;
nodes = (
"128 667 LINE",
"377 667 LINE SMOOTH",
"458 667 OFFCURVE",
"512 623 OFFCURVE",
"512 557 CURVE SMOOTH",
"512 497 LINE SMOOTH",
"512 420 OFFCURVE",
"466 369 OFFCURVE",
"397 369 CURVE SMOOTH",
"128 369 LINE"
);
}
);
width = 648;
},
{
anchors = (
{
name = bottom;
position = "{340, 0}";
},
{
name = top;
position = "{340, 700}";
}
);
layerId = "BB270C98-E610-4AC3-8B1B-9C54875E1C66";
paths = (
{
closed = 1;
nodes = (
"425 0 LINE SMOOTH",
"544 0 OFFCURVE",
"618 72 OFFCURVE",
"618 181 CURVE SMOOTH",
"618 229 LINE SMOOTH",
"618 295 OFFCURVE",
"575 350 OFFCURVE",
"510 367 CURVE",
"510 368 LINE",
"550 395 OFFCURVE",
"574 443 OFFCURVE",
"574 492 CURVE SMOOTH",
"574 545 LINE SMOOTH",
"574 638 OFFCURVE",
"495 700 OFFCURVE",
"376 700 CURVE SMOOTH",
"80 700 LINE",
"80 65 LINE SMOOTH",
"80 26 OFFCURVE",
"106 0 OFFCURVE",
"145 0 CURVE SMOOTH"
);
},
{
closed = 1;
nodes = (
"154 322 LINE",
"435 322 LINE SMOOTH",
"500 322 OFFCURVE",
"544 285 OFFCURVE",
"544 229 CURVE SMOOTH",
"544 181 LINE SMOOTH",
"544 112 OFFCURVE",
"495 66 OFFCURVE",
"415 66 CURVE SMOOTH",
"154 66 LINE"
);
},
{
closed = 1;
nodes = (
"154 634 LINE",
"376 634 LINE SMOOTH",
"450 634 OFFCURVE",
"500 598 OFFCURVE",
"500 545 CURVE SMOOTH",
"500 492 LINE SMOOTH",
"500 427 OFFCURVE",
"458 384 OFFCURVE",
"396 384 CURVE SMOOTH",
"154 384 LINE"
);
}
);
width = 662;
}
);
leftKerningGroup = E;
leftMetricsKey = H;
note = B;
unicode = 0042;
},
{
glyphname = C;
lastChange = "2018-05-28 16:22:04 +0000";
layers = (
{
anchors = (
{
name = bottom;
position = "{356, 0}";
},
{
name = top;
position = "{356, 700}";
}
);
background = {
paths = (
{
closed = 1;
nodes = (
"408 -8 LINE SMOOTH",
"563 -8 OFFCURVE",
"666 104 OFFCURVE",
"666 272 CURVE",
"529 272 LINE",
"529 177 OFFCURVE",
"481 114 OFFCURVE",
"408 114 CURVE SMOOTH",
"300 114 LINE SMOOTH",
"229 114 OFFCURVE",
"182 174 OFFCURVE",
"182 264 CURVE SMOOTH",
"182 436 LINE SMOOTH",
"182 526 OFFCURVE",
"231 586 OFFCURVE",
"305 586 CURVE SMOOTH",
"411 586 LINE SMOOTH",
"481 586 OFFCURVE",
"527 529 OFFCURVE",
"527 444 CURVE",
"664 444 LINE",
"664 602 OFFCURVE",
"563 708 OFFCURVE",
"411 708 CURVE SMOOTH",
"305 708 LINE SMOOTH",
"148 708 OFFCURVE",
"44 599 OFFCURVE",
"44 436 CURVE SMOOTH",
"44 264 LINE SMOOTH",
"44 101 OFFCURVE",
"146 -8 OFFCURVE",
"300 -8 CURVE SMOOTH"
);
}
);
};
layerId = "EA06CE92-4115-4482-8874-2441C279E756";
paths = (
{
closed = 1;
nodes = (
"408 -8 LINE SMOOTH",
"562 -8 OFFCURVE",
"664 100 OFFCURVE",
"664 263 CURVE",
"527 263 LINE",
"527 174 OFFCURVE",
"479 114 OFFCURVE",
"408 114 CURVE SMOOTH",
"300 114 LINE SMOOTH",
"228 114 OFFCURVE",
"180 174 OFFCURVE",
"180 264 CURVE SMOOTH",
"180 436 LINE SMOOTH",
"180 526 OFFCURVE",
"230 586 OFFCURVE",
"304 586 CURVE SMOOTH",
"410 586 LINE SMOOTH",
"479 586 OFFCURVE",
"525 533 OFFCURVE",
"525 453 CURVE",
"662 453 LINE",
"662 606 OFFCURVE",
"561 708 OFFCURVE",
"410 708 CURVE SMOOTH",
"304 708 LINE SMOOTH",
"147 708 OFFCURVE",
"42 599 OFFCURVE",
"42 436 CURVE SMOOTH",
"42 264 LINE SMOOTH",
"42 101 OFFCURVE",
"145 -8 OFFCURVE",
"300 -8 CURVE SMOOTH"
);
}
);
width = 688;
},
{
anchors = (
{
name = bottom;
position = "{335, 0}";
},
{
name = top;
position = "{335, 700}";
}
);
background = {
paths = (
{
closed = 1;
nodes = (
"388 -8 LINE SMOOTH",
"510 -8 OFFCURVE",
"592 81 OFFCURVE",
"592 213 CURVE",
"559 213 LINE",
"559 100 OFFCURVE",
"491 24 OFFCURVE",
"388 24 CURVE SMOOTH",
"280 24 LINE SMOOTH",
"176 24 OFFCURVE",
"108 109 OFFCURVE",
"108 235 CURVE SMOOTH",
"108 465 LINE SMOOTH",
"108 591 OFFCURVE",
"178 676 OFFCURVE",
"284 676 CURVE SMOOTH",
"390 676 LINE SMOOTH",
"490 676 OFFCURVE",
"557 606 OFFCURVE",
"557 503 CURVE",
"590 503 LINE",
"590 625 OFFCURVE",
"509 708 OFFCURVE",
"390 708 CURVE SMOOTH",
"284 708 LINE SMOOTH",
"156 708 OFFCURVE",
"72 609 OFFCURVE",
"72 465 CURVE SMOOTH",
"72 235 LINE SMOOTH",
"72 90 OFFCURVE",
"156 -8 OFFCURVE",
"280 -8 CURVE SMOOTH"
);
}
);
};
layerId = "76C6DC51-463D-4A0C-B694-3EB424048C5D";
paths = (
{
closed = 1;
nodes = (
"386 -8 LINE SMOOTH",
"510 -8 OFFCURVE",
"592 80 OFFCURVE",
"592 213 CURVE",
"557 213 LINE",
"557 100 OFFCURVE",
"489 25 OFFCURVE",
"386 25 CURVE SMOOTH",
"278 25 LINE SMOOTH",
"176 25 OFFCURVE",
"108 109 OFFCURVE",
"108 235 CURVE SMOOTH",
"108 465 LINE SMOOTH",
"108 591 OFFCURVE",
"178 675 OFFCURVE",
"282 675 CURVE SMOOTH",
"388 675 LINE SMOOTH",
"488 675 OFFCURVE",
"555 606 OFFCURVE",
"555 503 CURVE",
"590 503 LINE",
"590 626 OFFCURVE",
"509 708 OFFCURVE",
"388 708 CURVE SMOOTH",
"282 708 LINE SMOOTH",
"156 708 OFFCURVE",
"72 611 OFFCURVE",
"72 465 CURVE SMOOTH",
"72 235 LINE SMOOTH",
"72 89 OFFCURVE",
"154 -8 OFFCURVE",
"278 -8 CURVE SMOOTH"
);
}
);
width = 646;
},
{
anchors = (
{
name = bottom;
position = "{342, 0}";
},
{
name = top;
position = "{342, 700}";
}
);
layerId = "BB270C98-E610-4AC3-8B1B-9C54875E1C66";
paths = (
{
closed = 1;
nodes = (
"395 -8 LINE SMOOTH",
"529 -8 OFFCURVE",
"618 88 OFFCURVE",
"618 232 CURVE",
"546 232 LINE",
"546 128 OFFCURVE",
"486 58 OFFCURVE",
"395 58 CURVE SMOOTH",
"287 58 LINE SMOOTH",
"195 58 OFFCURVE",
"134 133 OFFCURVE",
"134 246 CURVE SMOOTH",
"134 454 LINE SMOOTH",
"134 567 OFFCURVE",
"197 642 OFFCURVE",
"291 642 CURVE SMOOTH",
"397 642 LINE SMOOTH",
"485 642 OFFCURVE",
"544 579 OFFCURVE",
"544 484 CURVE",
"616 484 LINE",
"616 618 OFFCURVE",
"528 708 OFFCURVE",
"397 708 CURVE SMOOTH",
"291 708 LINE SMOOTH",
"152 708 OFFCURVE",
"60 606 OFFCURVE",
"60 454 CURVE SMOOTH",
"60 246 LINE SMOOTH",
"60 94 OFFCURVE",
"151 -8 OFFCURVE",
"287 -8 CURVE SMOOTH"
);
}
);
width = 660;
}
);
leftKerningGroup = O;
leftMetricsKey = O;
note = C;
rightKerningGroup = C;
unicode = 0043;
},
{
glyphname = D;
lastChange = "2018-05-28 17:10:40 +0000";
layers = (
{
anchors = (
{
name = bottom;
position = "{361, 0}";
},
{
name = center;
position = "{356, 350}";
},
{
name = top;
position = "{356, 700}";
}
);
background = {
paths = (
{
closed = 1;
nodes = (
"390 0 LINE SMOOTH",
"568 0 OFFCURVE",
"666 99 OFFCURVE",
"666 278 CURVE SMOOTH",
"666 442 LINE SMOOTH",
"666 596 OFFCURVE",
"552 700 OFFCURVE",
"386 700 CURVE SMOOTH",
"64 700 LINE",
"64 93 LINE SMOOTH",
"64 37 OFFCURVE",
"102 0 OFFCURVE",
"161 0 CURVE SMOOTH"
);
},
{
closed = 1;
nodes = (
"202 578 LINE",
"384 578 LINE SMOOTH",
"471 578 OFFCURVE",
"528 524 OFFCURVE",
"528 442 CURVE SMOOTH",
"528 278 LINE SMOOTH",
"528 172 OFFCURVE",
"483 122 OFFCURVE",
"388 122 CURVE SMOOTH",
"202 122 LINE"
);
}
);
};
layerId = "EA06CE92-4115-4482-8874-2441C279E756";
paths = (
{
closed = 1;
nodes = (
"398 0 LINE SMOOTH",
"558 0 OFFCURVE",
"664 107 OFFCURVE",
"664 268 CURVE SMOOTH",
"664 452 LINE SMOOTH",
"664 601 OFFCURVE",
"556 700 OFFCURVE",
"394 700 CURVE SMOOTH",
"62 700 LINE",
"62 94 LINE SMOOTH",
"62 38 OFFCURVE",
"101 0 OFFCURVE",
"159 0 CURVE SMOOTH"
);
},
{
closed = 1;
nodes = (
"200 578 LINE",
"392 578 LINE SMOOTH",
"472 578 OFFCURVE",
"526 528 OFFCURVE",
"526 452 CURVE SMOOTH",
"526 268 LINE SMOOTH",
"526 180 OFFCURVE",
"474 122 OFFCURVE",
"396 122 CURVE SMOOTH",
"200 122 LINE"
);
}
);
width = 698;
},
{
anchors = (
{
name = bottom;
position = "{340, 0}";
},
{
name = center;
position = "{335, 350}";
},
{
name = top;
position = "{335, 700}";
}
);
background = {
paths = (
{
closed = 1;
nodes = (
"361 0 LINE SMOOTH",
"536 0 OFFCURVE",
"592 90 OFFCURVE",
"592 239 CURVE SMOOTH",
"592 481 LINE SMOOTH",
"592 612 OFFCURVE",
"498 700 OFFCURVE",
"357 700 CURVE SMOOTH",
"92 700 LINE",
"92 48 LINE SMOOTH",
"92 16 OFFCURVE",
"107 0 OFFCURVE",
"138 0 CURVE SMOOTH"
);
},
{
closed = 1;
nodes = (
"128 668 LINE",
"355 668 LINE SMOOTH",
"474 668 OFFCURVE",
"556 592 OFFCURVE",
"556 481 CURVE SMOOTH",
"556 239 LINE SMOOTH",
"556 85 OFFCURVE",
"479 32 OFFCURVE",
"359 32 CURVE SMOOTH",
"128 32 LINE"
);
}
);
};
layerId = "76C6DC51-463D-4A0C-B694-3EB424048C5D";
paths = (
{
closed = 1;
nodes = (
"360 0 LINE SMOOTH",
"512 0 OFFCURVE",
"592 82 OFFCURVE",
"592 239 CURVE SMOOTH",
"592 481 LINE SMOOTH",
"592 612 OFFCURVE",
"498 700 OFFCURVE",
"356 700 CURVE SMOOTH",
"92 700 LINE",
"92 39 LINE SMOOTH",
"92 16 OFFCURVE",
"106 0 OFFCURVE",
"128 0 CURVE SMOOTH"
);
},
{
closed = 1;
nodes = (
"128 667 LINE",
"356 667 LINE SMOOTH",
"476 667 OFFCURVE",
"556 593 OFFCURVE",
"556 481 CURVE SMOOTH",
"556 239 LINE SMOOTH",
"556 104 OFFCURVE",
"489 33 OFFCURVE",
"360 33 CURVE SMOOTH",
"128 33 LINE"
);
}
);
width = 660;
},
{
anchors = (
{
name = bottom;
position = "{347, 0}";
},
{
name = center;
position = "{342, 350}";
},
{
name = top;
position = "{342, 700}";
}
);
layerId = "BB270C98-E610-4AC3-8B1B-9C54875E1C66";
paths = (
{
closed = 1;
nodes = (
"374 0 LINE SMOOTH",
"534 0 OFFCURVE",
"618 86 OFFCURVE",
"618 250 CURVE SMOOTH",
"618 470 LINE SMOOTH",
"618 608 OFFCURVE",
"519 700 OFFCURVE",
"370 700 CURVE SMOOTH",
"80 700 LINE",
"80 65 LINE SMOOTH",
"80 24 OFFCURVE",
"104 0 OFFCURVE",
"145 0 CURVE SMOOTH"
);
},
{
closed = 1;
nodes = (
"154 634 LINE",
"368 634 LINE SMOOTH",
"473 634 OFFCURVE",
"544 568 OFFCURVE",
"544 470 CURVE SMOOTH",
"544 250 LINE SMOOTH",
"544 129 OFFCURVE",
"485 66 OFFCURVE",
"372 66 CURVE SMOOTH",
"154 66 LINE"
);
}
);
width = 674;
}
);
leftKerningGroup = E;
leftMetricsKey = H;
note = D;
rightKerningGroup = D;
unicode = 0044;
},
{
glyphname = E;
lastChange = "2018-05-28 16:22:04 +0000";
layers = (
{
anchors = (
{
name = bottom;
position = "{337, 0}";
},
{
name = ogonek;
position = "{564, 0}";
},
{
name = top;
position = "{333, 700}";
},
{
name = topleft;
position = "{39, 700}";
}
);
background = {
paths = (
{
closed = 1;
nodes = (
"598 0 LINE",
"598 120 LINE",
"202 120 LINE",
"202 298 LINE",
"568 298 LINE",
"568 418 LINE",
"202 418 LINE",
"202 580 LINE",
"598 580 LINE",
"598 700 LINE",
"64 700 LINE",
"64 94 LINE SMOOTH",
"64 37 OFFCURVE",
"103 0 OFFCURVE",
"161 0 CURVE SMOOTH"
);
}
);
};
layerId = "EA06CE92-4115-4482-8874-2441C279E756";
paths = (
{
closed = 1;
nodes = (
"596 0 LINE",
"596 120 LINE",
"200 120 LINE",
"200 298 LINE",
"566 298 LINE",
"566 418 LINE",
"200 418 LINE",
"200 580 LINE",
"596 580 LINE",
"596 700 LINE",
"62 700 LINE",
"62 94 LINE SMOOTH",
"62 38 OFFCURVE",
"101 0 OFFCURVE",
"159 0 CURVE SMOOTH"
);
}
);
width = 628;
},
{
anchors = (
{
name = bottom;
position = "{316, 0}";
},
{
name = ogonek;
position = "{543, 0}";
},
{
name = top;
position = "{312, 700}";
},
{
name = topleft;
position = "{18, 700}";
}
);
background = {
paths = (
{
closed = 1;
nodes = (
"524 0 LINE",
"524 30 LINE",
"128 30 LINE",
"128 343 LINE",
"494 343 LINE",
"494 373 LINE",
"128 373 LINE",
"128 670 LINE",
"524 670 LINE",
"524 700 LINE",
"92 700 LINE",
"92 49 LINE SMOOTH",
"92 18 OFFCURVE",
"107 0 OFFCURVE",
"138 0 CURVE SMOOTH"
);
}
);
};
layerId = "76C6DC51-463D-4A0C-B694-3EB424048C5D";
paths = (
{
closed = 1;
nodes = (
"524 0 LINE",
"524 33 LINE",
"128 33 LINE",
"128 341 LINE",
"494 341 LINE",
"494 374 LINE",
"128 374 LINE",
"128 667 LINE",
"524 667 LINE",
"524 700 LINE",
"92 700 LINE",
"92 39 LINE SMOOTH",
"92 14 OFFCURVE",
"105 0 OFFCURVE",
"128 0 CURVE SMOOTH"
);
}
);
width = 586;
},
{
anchors = (
{
name = bottom;
position = "{323, 0}";
},
{
name = ogonek;
position = "{550, 0}";
},
{
name = top;
position = "{319, 700}";
},
{
name = topleft;
position = "{25, 700}";
}
);
layerId = "BB270C98-E610-4AC3-8B1B-9C54875E1C66";
paths = (
{
closed = 1;
nodes = (
"550 0 LINE",
"550 64 LINE",
"154 64 LINE",
"154 326 LINE",
"520 326 LINE",
"520 390 LINE",
"154 390 LINE",
"154 636 LINE",
"550 636 LINE",
"550 700 LINE",
"80 700 LINE",
"80 66 LINE SMOOTH",
"80 25 OFFCURVE",
"104 0 OFFCURVE",
"145 0 CURVE SMOOTH"
);
}
);
width = 600;
}
);
leftKerningGroup = E;
leftMetricsKey = H;
note = E;
rightKerningGroup = E;
unicode = 0045;
},
{
glyphname = F;
lastChange = "2018-05-28 16:22:04 +0000";
layers = (
{
anchors = (
{
name = bottom;
position = "{306, 0}";
},
{
name = top;
position = "{306, 700}";
}
);
background = {
paths = (
{
closed = 1;
nodes = (
"202 0 LINE",
"202 270 LINE",
"551 270 LINE",
"551 392 LINE",
"202 392 LINE",
"202 578 LINE",
"588 578 LINE",
"588 700 LINE",
"64 700 LINE",
"64 0 LINE"
);
}
);
};
layerId = "EA06CE92-4115-4482-8874-2441C279E756";
paths = (
{
closed = 1;
nodes = (
"200 0 LINE",
"200 270 LINE",
"549 270 LINE",
"549 392 LINE",
"200 392 LINE",
"200 578 LINE",
"586 578 LINE",
"586 700 LINE",
"62 700 LINE",
"62 0 LINE"
);
}
);
width = 604;
},
{
anchors = (
{
name = bottom;
position = "{286, 0}";
},
{
name = top;
position = "{286, 700}";
}
);
background = {
paths = (
{
closed = 1;
nodes = (
"128 0 LINE",
"128 337 LINE",
"477 337 LINE",
"477 370 LINE",
"128 370 LINE",
"128 668 LINE",
"514 668 LINE",
"514 700 LINE",
"92 700 LINE",
"92 0 LINE"
);
}
);
};
layerId = "76C6DC51-463D-4A0C-B694-3EB424048C5D";
paths = (
{
closed = 1;
nodes = (
"128 0 LINE",
"128 337 LINE",
"477 337 LINE",
"477 370 LINE",
"128 370 LINE",
"128 667 LINE",
"514 667 LINE",
"514 700 LINE",
"92 700 LINE",
"92 0 LINE"
);
}
);
width = 562;
},
{
anchors = (
{
name = bottom;
position = "{293, 0}";
},
{
name = top;
position = "{293, 700}";
}
);
layerId = "BB270C98-E610-4AC3-8B1B-9C54875E1C66";
paths = (
{
closed = 1;
nodes = (
"154 0 LINE",
"154 312 LINE",
"503 312 LINE",
"503 378 LINE",
"154 378 LINE",
"154 634 LINE",
"540 634 LINE",
"540 700 LINE",
"80 700 LINE",
"80 0 LINE"
);
}
);
width = 576;
}
);
leftMetricsKey = H;
note = F;
unicode = 0046;
},
{
glyphname = G;
lastChange = "2018-05-28 16:22:04 +0000";
layers = (
{
anchors = (
{
name = bottom;
position = "{360, 0}";
},
{
name = top;
position = "{360, 700}";
}
);
background = {
paths = (
{
closed = 1;
nodes = (
"413 -8 LINE SMOOTH",
"569 -8 OFFCURVE",
"676 102 OFFCURVE",
"676 264 CURVE SMOOTH",
"676 332 LINE",
"540 332 LINE",
"540 264 LINE SMOOTH",
"540 173 OFFCURVE",
"490 114 OFFCURVE",
"413 114 CURVE SMOOTH",
"305 114 LINE SMOOTH",
"230 114 OFFCURVE",
"182 176 OFFCURVE",
"182 274 CURVE SMOOTH",
"182 426 LINE SMOOTH",
"182 523 OFFCURVE",
"234 586 OFFCURVE",
"311 586 CURVE SMOOTH",
"415 586 LINE SMOOTH",
"496 586 OFFCURVE",
"545 551 OFFCURVE",
"533 456 CURVE",
"670 456 LINE",
"684 592 OFFCURVE",
"576 708 OFFCURVE",
"415 708 CURVE SMOOTH",
"311 708 LINE SMOOTH",
"153 708 OFFCURVE",
"44 593 OFFCURVE",
"44 426 CURVE SMOOTH",
"44 274 LINE SMOOTH",
"44 106 OFFCURVE",
"149 -8 OFFCURVE",
"305 -8 CURVE SMOOTH"
);
},
{
closed = 1;
nodes = (
"676 268 LINE",
"676 389 LINE",
"346 389 LINE",
"346 268 LINE"
);
}
);
};
layerId = "EA06CE92-4115-4482-8874-2441C279E756";
paths = (
{
closed = 1;
nodes = (
"420 -8 LINE SMOOTH",
"572 -8 OFFCURVE",
"674 100 OFFCURVE",
"674 263 CURVE",
"674 321 LINE",
"538 321 LINE",
"538 263 LINE",
"538 174 OFFCURVE",
"491 114 OFFCURVE",
"420 114 CURVE SMOOTH",
"302 114 LINE SMOOTH",
"229 114 OFFCURVE",
"180 174 OFFCURVE",
"180 264 CURVE SMOOTH",
"180 436 LINE SMOOTH",
"180 526 OFFCURVE",
"230 586 OFFCURVE",
"304 586 CURVE SMOOTH",
"416 586 LINE SMOOTH",
"485 586 OFFCURVE",
"531 538 OFFCURVE",
"531 466 CURVE",
"668 466 LINE",
"668 611 OFFCURVE",
"567 708 OFFCURVE",
"416 708 CURVE SMOOTH",
"304 708 LINE SMOOTH",
"147 708 OFFCURVE",
"42 599 OFFCURVE",
"42 436 CURVE SMOOTH",
"42 264 LINE SMOOTH",
"42 101 OFFCURVE",
"146 -8 OFFCURVE",
"302 -8 CURVE SMOOTH"
);
},
{
closed = 1;
nodes = (
"674 265 LINE",
"674 385 LINE",
"344 385 LINE",
"344 265 LINE"
);
}
);
width = 712;
},
{
anchors = (
{
name = bottom;
position = "{337, 0}";
},
{
name = top;
position = "{337, 700}";
}
);
background = {
paths = (
{
closed = 1;
nodes = (
"384 -8 LINE SMOOTH",
"515 -8 OFFCURVE",
"602 84 OFFCURVE",
"602 220 CURVE SMOOTH",
"602 294 LINE",
"568 294 LINE",
"568 220 LINE SMOOTH",
"568 102 OFFCURVE",
"493 24 OFFCURVE",
"384 24 CURVE SMOOTH",
"282 24 LINE SMOOTH",
"176 24 OFFCURVE",
"108 109 OFFCURVE",
"108 235 CURVE SMOOTH",
"108 465 LINE SMOOTH",
"108 591 OFFCURVE",
"183 676 OFFCURVE",
"291 676 CURVE SMOOTH",
"390 676 LINE SMOOTH",
"494 676 OFFCURVE",
"564 603 OFFCURVE",
"564 495 CURVE",
"597 495 LINE",
"597 621 OFFCURVE",
"514 708 OFFCURVE",
"390 708 CURVE SMOOTH",
"291 708 LINE SMOOTH",
"161 708 OFFCURVE",
"72 610 OFFCURVE",
"72 465 CURVE SMOOTH",
"72 235 LINE SMOOTH",
"72 90 OFFCURVE",
"154 -8 OFFCURVE",
"282 -8 CURVE SMOOTH"
);
},
{
closed = 1;
nodes = (
"602 315 LINE",
"602 347 LINE",
"374 347 LINE",
"374 315 LINE"
);
}
);
};
layerId = "76C6DC51-463D-4A0C-B694-3EB424048C5D";
paths = (
{
closed = 1;
nodes = (
"391 -8 LINE SMOOTH",
"515 -8 OFFCURVE",
"602 80 OFFCURVE",
"602 213 CURVE SMOOTH",
"602 324 LINE",
"567 324 LINE",
"567 213 LINE SMOOTH",
"567 100 OFFCURVE",
"494 25 OFFCURVE",
"391 25 CURVE SMOOTH",
"283 25 LINE SMOOTH",
"181 25 OFFCURVE",
"108 109 OFFCURVE",
"108 235 CURVE SMOOTH",
"108 465 LINE SMOOTH",
"108 591 OFFCURVE",
"183 675 OFFCURVE",
"287 675 CURVE SMOOTH",
"393 675 LINE SMOOTH",
"493 675 OFFCURVE",
"562 606 OFFCURVE",
"562 503 CURVE",
"597 503 LINE",
"597 626 OFFCURVE",
"514 708 OFFCURVE",
"393 708 CURVE SMOOTH",
"287 708 LINE SMOOTH",
"161 708 OFFCURVE",
"72 611 OFFCURVE",
"72 465 CURVE SMOOTH",
"72 235 LINE SMOOTH",
"72 89 OFFCURVE",
"159 -8 OFFCURVE",
"283 -8 CURVE SMOOTH"
);
},
{
closed = 1;
nodes = (
"602 314 LINE",
"602 347 LINE",
"364 347 LINE",
"364 314 LINE"
);
}
);
width = 670;
},
{
anchors = (
{
name = bottom;
position = "{346, 0}";
},
{
name = top;
position = "{346, 700}";
}
);
layerId = "BB270C98-E610-4AC3-8B1B-9C54875E1C66";
paths = (
{
closed = 1;
nodes = (
"397 -8 LINE SMOOTH",
"536 -8 OFFCURVE",
"628 90 OFFCURVE",
"628 236 CURVE SMOOTH",
"628 304 LINE",
"556 304 LINE",
"556 236 LINE SMOOTH",
"556 129 OFFCURVE",
"492 58 OFFCURVE",
"397 58 CURVE SMOOTH",
"289 58 LINE SMOOTH",
"195 58 OFFCURVE",
"134 133 OFFCURVE",
"134 246 CURVE SMOOTH",
"134 454 LINE SMOOTH",
"134 567 OFFCURVE",
"198 642 OFFCURVE",
"294 642 CURVE SMOOTH",
"400 642 LINE SMOOTH",
"491 642 OFFCURVE",
"551 579 OFFCURVE",
"551 484 CURVE",
"623 484 LINE",
"623 618 OFFCURVE",
"534 708 OFFCURVE",
"400 708 CURVE SMOOTH",
"294 708 LINE SMOOTH",
"154 708 OFFCURVE",
"60 606 OFFCURVE",
"60 454 CURVE SMOOTH",
"60 246 LINE SMOOTH",
"60 94 OFFCURVE",
"150 -8 OFFCURVE",
"289 -8 CURVE SMOOTH"
);
},
{
closed = 1;
nodes = (
"628 296 LINE",
"628 361 LINE",
"362 361 LINE",
"362 296 LINE"
);
}
);
width = 684;
}
);
leftKerningGroup = O;
leftMetricsKey = O;
note = G;
rightKerningGroup = G;
unicode = 0047;
},
{
glyphname = H;
lastChange = "2018-05-28 16:22:04 +0000";
layers = (
{
anchors = (
{
name = bottom;
position = "{359, 0}";
},
{
name = center;
position = "{359, 350}";
},
{
name = top;
position = "{359, 700}";
},
{
name = topleft;
position = "{39, 700}";
}
);
background = {
paths = (
{
closed = 1;
nodes = (
"202 0 LINE",
"202 290 LINE",
"528 290 LINE",
"528 0 LINE",
"666 0 LINE",
"666 700 LINE",
"528 700 LINE",
"528 412 LINE",
"202 412 LINE",
"202 700 LINE",
"64 700 LINE",
"64 0 LINE"
);
}
);
};
layerId = "EA06CE92-4115-4482-8874-2441C279E756";
paths = (
{
closed = 1;
nodes = (
"200 0 LINE",
"200 290 LINE",
"526 290 LINE",
"526 0 LINE",
"664 0 LINE",
"664 700 LINE",
"526 700 LINE",
"526 412 LINE",
"200 412 LINE",
"200 700 LINE",
"62 700 LINE",
"62 0 LINE"
);
}
);
width = 726;
},
{
anchors = (
{
name = bottom;
position = "{341, 0}";
},
{
name = center;
position = "{338, 350}";
},
{
name = top;
position = "{338, 700}";
},
{
name = topleft;
position = "{341, 590}";
}
);
background = {
paths = (
{
closed = 1;
nodes = (
"128 0 LINE",
"128 338 LINE",
"550 338 LINE",
"550 0 LINE",
"585 0 LINE",
"585 700 LINE",
"550 700 LINE",
"550 370 LINE",
"128 370 LINE",
"128 700 LINE",
"92 700 LINE",
"92 0 LINE"
);
}
);
};
layerId = "76C6DC51-463D-4A0C-B694-3EB424048C5D";
paths = (
{
closed = 1;
nodes = (
"128 0 LINE",
"128 337 LINE",
"550 337 LINE",
"550 0 LINE",
"585 0 LINE",
"585 700 LINE",
"550 700 LINE",
"550 370 LINE",
"128 370 LINE",
"128 700 LINE",
"92 700 LINE",
"92 0 LINE"
);
}
);
width = 677;
},
{
anchors = (
{
name = bottom;
position = "{347, 0}";
},
{
name = center;
position = "{345, 350}";
},
{
name = top;
position = "{345, 700}";
},
{
name = topleft;
position = "{227, 631}";
}
);
layerId = "BB270C98-E610-4AC3-8B1B-9C54875E1C66";
paths = (
{
closed = 1;
nodes = (
"154 0 LINE",
"154 320 LINE",
"540 320 LINE",
"540 0 LINE",
"614 0 LINE",
"614 700 LINE",
"540 700 LINE",
"540 386 LINE",
"154 386 LINE",
"154 700 LINE",
"80 700 LINE",
"80 0 LINE"
);
}
);
width = 694;
}
);
note = H;
rightMetricsKey = "=|";
unicode = 0048;
},
{
glyphname = I;
lastChange = "2018-05-28 16:22:04 +0000";
layers = (
{
anchors = (
{
name = bottom;
position = "{133, 0}";
},
{
name = ogonek;
position = "{170, 0}";
},
{
name = top;
position = "{133, 700}";
},
{
name = topleft;
position = "{41, 700}";
}
);
background = {
anchors = (
{
name = bottom;
position = "{140, 0}";
},
{
name = ogonek;
position = "{231, 10}";
},
{
name = top;
position = "{140, 700}";
},
{
name = topleft;
position = "{45, 700}";
}
);
paths = (
{
closed = 1;
nodes = (
"68 0 LINE",
"206 0 LINE",
"206 700 LINE",
"68 700 LINE"
);
}
);
};
layerId = "EA06CE92-4115-4482-8874-2441C279E756";
paths = (
{
closed = 1;
nodes = (
"204 0 LINE",
"204 700 LINE",
"66 700 LINE",
"66 0 LINE"
);
}
);
width = 270;
},
{
anchors = (
{
name = bottom;
position = "{115, 0}";
},
{
name = ogonek;
position = "{152, 0}";
},
{
name = top;
position = "{115, 700}";
},
{
name = topleft;
position = "{23, 700}";
}
);
layerId = "76C6DC51-463D-4A0C-B694-3EB424048C5D";
paths = (
{
closed = 1;
nodes = (
"132 0 LINE",
"132 700 LINE",
"96 700 LINE",
"96 0 LINE"
);
}
);
width = 228;
},
{
anchors = (
{
name = bottom;
position = "{121, 0}";
},
{
name = ogonek;
position = "{158, 0}";
},
{
name = top;
position = "{121, 700}";
},
{
name = topleft;
position = "{29, 700}";
}
);
layerId = "BB270C98-E610-4AC3-8B1B-9C54875E1C66";
paths = (
{
closed = 1;
nodes = (
"158 0 LINE",
"158 700 LINE",
"84 700 LINE",
"84 0 LINE"
);
}
);
width = 242;
}
);
note = I;
rightMetricsKey = "=|";
unicode = 0049;
},
{
glyphname = J;
lastChange = "2018-05-28 16:22:04 +0000";
layers = (
{
anchors = (
{
name = bottom;
position = "{276, 0}";
},
{
name = top;
position = "{481, 700}";
}
);
background = {
paths = (
{
closed = 1;
nodes = (
"323 -6 LINE SMOOTH",
"461 -6 OFFCURVE",
"553 101 OFFCURVE",
"553 262 CURVE SMOOTH",
"553 700 LINE",
"415 700 LINE",
"415 262 LINE SMOOTH",
"415 174 OFFCURVE",
"378 116 OFFCURVE",
"323 116 CURVE SMOOTH",
"246 116 LINE SMOOTH",
"192 116 OFFCURVE",
"156 172 OFFCURVE",
"156 257 CURVE",
"18 257 LINE",
"18 99 OFFCURVE",
"109 -6 OFFCURVE",
"246 -6 CURVE SMOOTH"
);
}
);
};
layerId = "EA06CE92-4115-4482-8874-2441C279E756";
paths = (
{
closed = 1;
nodes = (
"321 -6 LINE SMOOTH",
"459 -6 OFFCURVE",
"551 101 OFFCURVE",
"551 262 CURVE SMOOTH",
"551 700 LINE",
"413 700 LINE",
"413 262 LINE SMOOTH",
"413 174 OFFCURVE",
"376 116 OFFCURVE",
"321 116 CURVE SMOOTH",
"244 116 LINE SMOOTH",
"189 116 OFFCURVE",
"152 172 OFFCURVE",
"152 257 CURVE",
"16 257 LINE",
"16 99 OFFCURVE",
"107 -6 OFFCURVE",
"244 -6 CURVE SMOOTH"
);
}
);
width = 605;
},
{
anchors = (
{
name = bottom;
position = "{256, 0}";
},
{
name = top;
position = "{461, 700}";
}
);
background = {
paths = (
{
closed = 1;
nodes = (
"308 -9 LINE SMOOTH",
"420 -9 OFFCURVE",
"480 69 OFFCURVE",
"480 214 CURVE SMOOTH",
"480 700 LINE",
"445 700 LINE",
"445 214 LINE SMOOTH",
"445 93 OFFCURVE",
"395 23 OFFCURVE",
"308 23 CURVE SMOOTH",
"215 23 LINE SMOOTH",
"136 23 OFFCURVE",
"83 92 OFFCURVE",
"83 196 CURVE",
"46 196 LINE",
"46 74 OFFCURVE",
"113 -9 OFFCURVE",
"215 -9 CURVE SMOOTH"
);
}
);
};
layerId = "76C6DC51-463D-4A0C-B694-3EB424048C5D";
paths = (
{
closed = 1;
nodes = (
"308 -9 LINE SMOOTH",
"416 -9 OFFCURVE",
"480 74 OFFCURVE",
"480 214 CURVE SMOOTH",
"480 700 LINE",
"444 700 LINE",
"444 214 LINE SMOOTH",
"444 95 OFFCURVE",
"393 24 OFFCURVE",
"308 24 CURVE SMOOTH",
"215 24 LINE SMOOTH",
"135 24 OFFCURVE",
"81 93 OFFCURVE",
"81 196 CURVE",
"46 196 LINE",
"46 73 OFFCURVE",
"114 -9 OFFCURVE",
"215 -9 CURVE SMOOTH"
);
}
);
width = 564;
},
{
anchors = (
{
name = bottom;
position = "{263, 0}";
},
{
name = top;
position = "{468, 700}";
}
);
layerId = "BB270C98-E610-4AC3-8B1B-9C54875E1C66";
paths = (
{
closed = 1;
nodes = (
"312 -8 LINE SMOOTH",
"434 -8 OFFCURVE",
"506 81 OFFCURVE",
"506 232 CURVE SMOOTH",
"506 700 LINE",
"432 700 LINE",
"432 232 LINE SMOOTH",
"432 123 OFFCURVE",
"387 58 OFFCURVE",
"312 58 CURVE SMOOTH",
"225 58 LINE SMOOTH",
"155 58 OFFCURVE",
"108 122 OFFCURVE",
"108 219 CURVE",
"34 219 LINE",
"34 83 OFFCURVE",
"110 -8 OFFCURVE",
"225 -8 CURVE SMOOTH"
);
}
);
width = 578;
}
);
note = J;
rightKerningGroup = J;
unicode = 004A;
},
{
glyphname = K;
lastChange = "2018-05-28 16:22:04 +0000";
layers = (
{
anchors = (
{
name = bottom;
position = "{337, 0}";
},
{
name = top;
position = "{345, 700}";
}
);
background = {
paths = (
{
closed = 1;
nodes = (
"202 0 LINE",
"202 222 LINE",
"650 700 LINE",
"475 700 LINE",
"202 402 LINE",
"202 700 LINE",
"64 700 LINE",
"64 0 LINE"
);
},
{
closed = 1;
nodes = (
"668 0 LINE",
"340 421 LINE",
"215 360 LINE",
"498 0 LINE"
);
}
);
};
layerId = "EA06CE92-4115-4482-8874-2441C279E756";
paths = (
{
closed = 1;
nodes = (
"200 0 LINE",
"200 222 LINE",
"648 700 LINE",
"478 700 LINE",
"200 398 LINE",
"200 700 LINE",
"62 700 LINE",
"62 0 LINE"
);
},
{
closed = 1;
nodes = (
"666 0 LINE",
"338 421 LINE",
"215 360 LINE",
"498 0 LINE"
);
}
);
width = 674;
},
{
anchors = (
{
name = bottom;
position = "{316, 0}";
},
{
name = top;
position = "{324, 700}";
}
);
background = {
paths = (
{
closed = 1;
nodes = (
"128 0 LINE",
"128 254 LINE",
"550 700 LINE",
"505 700 LINE",
"128 296 LINE",
"128 700 LINE",
"92 700 LINE",
"92 0 LINE"
);
},
{
closed = 1;
nodes = (
"568 0 LINE",
"261 378 LINE",
"226 362 LINE",
"522 0 LINE"
);
}
);
};
layerId = "76C6DC51-463D-4A0C-B694-3EB424048C5D";
paths = (
{
closed = 1;
nodes = (
"128 0 LINE",
"128 254 LINE",
"550 700 LINE",
"500 700 LINE",
"128 303 LINE",
"128 700 LINE",
"92 700 LINE",
"92 0 LINE"
);
},
{
closed = 1;
nodes = (
"568 0 LINE",
"253 388 LINE",
"218 372 LINE",
"522 0 LINE"
);
}
);
width = 606;
},
{
anchors = (
{
name = bottom;
position = "{323, 0}";
},
{
name = top;
position = "{331, 700}";
}
);
layerId = "BB270C98-E610-4AC3-8B1B-9C54875E1C66";
paths = (
{
closed = 1;
nodes = (
"154 0 LINE",
"154 242 LINE",
"586 700 LINE",
"494 700 LINE",
"154 334 LINE",
"154 700 LINE",
"80 700 LINE",
"80 0 LINE"
);
},
{
closed = 1;
nodes = (
"604 0 LINE",
"289 394 LINE",
"221 361 LINE",
"512 0 LINE"
);
}
);
width = 630;
}
);
leftMetricsKey = H;
note = K;
rightKerningGroup = K;
unicode = 004B;
},
{
glyphname = L;
lastChange = "2018-05-28 16:22:04 +0000";
layers = (
{
anchors = (
{
name = bottom;
position = "{324, 0}";
},
{
name = center;
position = "{294, 350}";
},
{
name = top;
position = "{131, 700}";
},
{
name = topright;
position = "{550, 700}";
}
);
background = {
paths = (
{
closed = 1;
nodes = (
"582 0 LINE",
"582 122 LINE",
"202 122 LINE",
"202 700 LINE",
"64 700 LINE",
"64 93 LINE SMOOTH",
"64 37 OFFCURVE",
"102 0 OFFCURVE",
"161 0 CURVE SMOOTH"
);
}
);
};
layerId = "EA06CE92-4115-4482-8874-2441C279E756";
paths = (
{
closed = 1;
nodes = (
"580 0 LINE",
"580 122 LINE",
"200 122 LINE",
"200 700 LINE",
"62 700 LINE",
"62 93 LINE SMOOTH",
"62 37 OFFCURVE",
"100 0 OFFCURVE",
"159 0 CURVE SMOOTH"
);
}
);
width = 588;
},
{
anchors = (
{
name = bottom;
position = "{303, 0}";
},
{
name = center;
position = "{273, 350}";
},
{
name = top;
position = "{110, 700}";
},
{
name = topright;
position = "{529, 700}";
}
);
background = {
paths = (
{
closed = 1;
nodes = (
"508 0 LINE",
"508 32 LINE",
"128 32 LINE",
"128 700 LINE",
"92 700 LINE",
"92 48 LINE SMOOTH",
"92 16 OFFCURVE",
"108 0 OFFCURVE",
"138 0 CURVE SMOOTH"
);
}
);
};
layerId = "76C6DC51-463D-4A0C-B694-3EB424048C5D";
paths = (
{
closed = 1;
nodes = (
"508 0 LINE",
"508 33 LINE",
"128 33 LINE",
"128 700 LINE",
"92 700 LINE",
"92 39 LINE SMOOTH",
"92 14 OFFCURVE",
"105 0 OFFCURVE",
"128 0 CURVE SMOOTH"
);
}
);
width = 546;
},
{
anchors = (
{
name = bottom;
position = "{310, 0}";
},
{
name = center;
position = "{280, 350}";
},
{
name = top;
position = "{117, 700}";
},
{
name = topright;
position = "{536, 700}";
}
);
layerId = "BB270C98-E610-4AC3-8B1B-9C54875E1C66";
paths = (
{
closed = 1;
nodes = (
"534 0 LINE",
"534 66 LINE",
"154 66 LINE",
"154 700 LINE",
"80 700 LINE",
"80 65 LINE SMOOTH",
"80 24 OFFCURVE",
"104 0 OFFCURVE",
"145 0 CURVE SMOOTH"
);
}
);
width = 560;
}
);
leftKerningGroup = E;
leftMetricsKey = H;
note = L;
rightKerningGroup = L;
unicode = 004C;
},
{
glyphname = M;
lastChange = "2018-05-28 16:22:04 +0000";
layers = (
{
anchors = (
{
name = bottom;
position = "{406, 0}";
},
{
name = top;
position = "{407, 700}";
}
);
background = {
paths = (
{
closed = 1;
nodes = (
"200 0 LINE",
"200 443 LINE",
"376 127 LINE",
"416 127 LINE SMOOTH",
"443 127 OFFCURVE",
"462 141 OFFCURVE",
"482 177 CURVE SMOOTH",
"627 443 LINE",
"627 0 LINE",
"763 0 LINE",
"763 700 LINE",
"642 700 LINE",
"416 284 LINE",
"185 700 LINE",
"64 700 LINE",
"64 0 LINE"
);
}
);
};
layerId = "EA06CE92-4115-4482-8874-2441C279E756";
paths = (
{
closed = 1;
nodes = (
"197 0 LINE",
"197 443 LINE",
"375 127 LINE",
"413 127 LINE SMOOTH",
"440 127 OFFCURVE",
"459 141 OFFCURVE",
"479 177 CURVE SMOOTH",
"626 443 LINE",
"626 0 LINE",
"761 0 LINE",
"761 700 LINE",
"638 700 LINE",
"414 284 LINE",
"185 700 LINE",
"62 700 LINE",
"62 0 LINE"
);
}
);
width = 823;
},
{
anchors = (
{
name = bottom;
position = "{391, 0}";
},
{
name = top;
position = "{391, 700}";
}
);
background = {
paths = (
{
closed = 1;
nodes = (
"128 0 LINE",
"128 633 LINE",
"386 153 LINE",
"398 153 LINE SMOOTH",
"405 153 OFFCURVE",
"409 162 OFFCURVE",
"418 179 CURVE SMOOTH",
"653 633 LINE",
"653 0 LINE",
"689 0 LINE",
"689 700 LINE",
"649 700 LINE",
"394 206 LINE",
"132 700 LINE",
"92 700 LINE",
"92 0 LINE"
);
}
);
};
layerId = "76C6DC51-463D-4A0C-B694-3EB424048C5D";
paths = (
{
closed = 1;
nodes = (
"127 0 LINE",
"127 631 LINE",
"385 153 LINE",
"397 153 LINE SMOOTH",
"403 153 OFFCURVE",
"406 157 OFFCURVE",
"410 164 CURVE SMOOTH",
"654 631 LINE",
"654 0 LINE",
"689 0 LINE",
"689 700 LINE",
"651 700 LINE",
"394 204 LINE",
"130 700 LINE",
"92 700 LINE",
"92 0 LINE"
);
}
);
width = 781;
},
{
anchors = (
{
name = bottom;
position = "{392, 0}";
},
{
name = top;
position = "{393, 700}";
}
);
layerId = "BB270C98-E610-4AC3-8B1B-9C54875E1C66";
paths = (
{
closed = 1;
nodes = (
"153 0 LINE",
"153 562 LINE",
"381 143 LINE",
"403 143 LINE SMOOTH",
"417 143 OFFCURVE",
"426 152 OFFCURVE",
"440 178 CURVE SMOOTH",
"642 562 LINE",
"642 0 LINE",
"715 0 LINE",
"715 700 LINE",
"644 700 LINE",
"401 235 LINE",
"151 700 LINE",
"80 700 LINE",
"80 0 LINE"
);
}
);
width = 795;
}
);
leftMetricsKey = H;
note = M;
rightMetricsKey = "=|";
unicode = 004D;
},
{
glyphname = N;
lastChange = "2018-05-28 16:22:04 +0000";
layers = (
{
anchors = (
{
name = bottom;
position = "{359, 0}";
},
{
name = top;
position = "{358, 700}";
}
);
background = {
paths = (
{
closed = 1;
nodes = (
"202 0 LINE",
"202 470 LINE",
"538 0 LINE",
"658 0 LINE",
"658 700 LINE",
"520 700 LINE",
"520 230 LINE",
"184 700 LINE",
"64 700 LINE",
"64 0 LINE"
);
}
);
};
layerId = "EA06CE92-4115-4482-8874-2441C279E756";
paths = (
{
closed = 1;
nodes = (
"197 0 LINE",
"197 476 LINE",
"533 0 LINE",
"656 0 LINE",
"656 700 LINE",
"521 700 LINE",
"521 224 LINE",
"185 700 LINE",
"62 700 LINE",
"62 0 LINE"
);
}
);
width = 718;
},
{
anchors = (
{
name = bottom;
position = "{339, 0}";
},
{
name = top;
position = "{338, 700}";
}
);
background = {
paths = (
{
closed = 1;
nodes = (
"126 0 LINE",
"126 643 LINE",
"549 0 LINE",
"584 0 LINE",
"584 700 LINE",
"549 700 LINE",
"549 57 LINE",
"127 700 LINE",
"92 700 LINE",
"92 0 LINE"
);
}
);
};
layerId = "76C6DC51-463D-4A0C-B694-3EB424048C5D";
paths = (
{
closed = 1;
nodes = (
"126 0 LINE",
"126 643 LINE",
"547 0 LINE",
"584 0 LINE",
"584 700 LINE",
"549 700 LINE",
"549 57 LINE",
"129 700 LINE",
"92 700 LINE",
"92 0 LINE"
);
}
);
width = 676;
},
{
anchors = (
{
name = bottom;
position = "{346, 0}";
},
{
name = top;
position = "{345, 700}";
}
);
layerId = "BB270C98-E610-4AC3-8B1B-9C54875E1C66";
paths = (
{
closed = 1;
nodes = (
"152 0 LINE",
"152 579 LINE",
"540 0 LINE",
"610 0 LINE",
"610 700 LINE",
"538 700 LINE",
"538 117 LINE",
"150 700 LINE",
"80 700 LINE",
"80 0 LINE"
);
}
);
width = 690;
}
);
leftMetricsKey = H;
note = N;
rightMetricsKey = "=|";
unicode = 004E;
},
{
glyphname = O;
lastChange = "2018-05-28 16:22:04 +0000";
layers = (
{
anchors = (
{
name = bottom;
position = "{358, 0}";
},
{
name = center;
position = "{359, 350}";
},
{
name = ogonek;
position = "{640, 10}";
},
{
name = top;
position = "{362, 700}";
},
{
name = topleft;
position = "{28, 700}";
},
{
name = topright;
position = "{667, 411}";
}
);
background = {
paths = (
{
closed = 1;
nodes = (
"417 -6 LINE SMOOTH",
"577 -6 OFFCURVE",
"684 104 OFFCURVE",
"684 268 CURVE SMOOTH",
"684 432 LINE SMOOTH",
"684 596 OFFCURVE",
"577 706 OFFCURVE",
"417 706 CURVE SMOOTH",
"311 706 LINE SMOOTH",
"151 706 OFFCURVE",
"44 596 OFFCURVE",
"44 432 CURVE SMOOTH",
"44 268 LINE SMOOTH",
"44 104 OFFCURVE",
"151 -6 OFFCURVE",
"311 -6 CURVE SMOOTH"
);
},
{
closed = 1;
nodes = (
"234 116 OFFCURVE",
"182 177 OFFCURVE",
"182 268 CURVE SMOOTH",
"182 432 LINE SMOOTH",
"182 523 OFFCURVE",
"234 584 OFFCURVE",
"311 584 CURVE SMOOTH",
"417 584 LINE SMOOTH",
"494 584 OFFCURVE",
"546 523 OFFCURVE",
"546 432 CURVE SMOOTH",
"546 268 LINE SMOOTH",
"546 177 OFFCURVE",
"494 116 OFFCURVE",
"417 116 CURVE SMOOTH",
"311 116 LINE SMOOTH"
);
}
);
};
layerId = "EA06CE92-4115-4482-8874-2441C279E756";
paths = (
{
closed = 1;
nodes = (
"415 -6 LINE SMOOTH",
"575 -6 OFFCURVE",
"682 104 OFFCURVE",
"682 268 CURVE SMOOTH",
"682 432 LINE SMOOTH",
"682 596 OFFCURVE",
"575 706 OFFCURVE",
"415 706 CURVE SMOOTH",
"309 706 LINE SMOOTH",
"149 706 OFFCURVE",
"42 596 OFFCURVE",
"42 432 CURVE SMOOTH",
"42 268 LINE SMOOTH",
"42 104 OFFCURVE",
"149 -6 OFFCURVE",
"309 -6 CURVE SMOOTH"
);
},
{
closed = 1;
nodes = (
"232 116 OFFCURVE",
"180 177 OFFCURVE",
"180 268 CURVE SMOOTH",
"180 432 LINE SMOOTH",
"180 523 OFFCURVE",
"232 584 OFFCURVE",
"309 584 CURVE SMOOTH",
"415 584 LINE SMOOTH",
"492 584 OFFCURVE",
"544 523 OFFCURVE",
"544 432 CURVE SMOOTH",
"544 268 LINE SMOOTH",
"544 177 OFFCURVE",
"492 116 OFFCURVE",
"415 116 CURVE SMOOTH",
"309 116 LINE SMOOTH"
);
}
);
width = 724;
},
{
anchors = (
{
name = bottom;
position = "{337, 0}";
},
{
name = center;
position = "{338, 350}";
},
{
name = ogonek;
position = "{619, 10}";
},
{
name = top;
position = "{341, 700}";
},
{
name = topleft;
position = "{7, 700}";
},
{
name = topright;
position = "{646, 411}";
}
);
background = {
paths = (
{
closed = 1;
nodes = (
"393 -9 LINE SMOOTH",
"523 -9 OFFCURVE",
"610 86 OFFCURVE",
"610 228 CURVE SMOOTH",
"610 472 LINE SMOOTH",
"610 614 OFFCURVE",
"523 709 OFFCURVE",
"393 709 CURVE SMOOTH",
"289 709 LINE SMOOTH",
"159 709 OFFCURVE",
"72 614 OFFCURVE",
"72 472 CURVE SMOOTH",
"72 228 LINE SMOOTH",
"72 86 OFFCURVE",
"160 -9 OFFCURVE",
"289 -9 CURVE SMOOTH"
);
},
{
closed = 1;
nodes = (
"182 24 OFFCURVE",
"108 106 OFFCURVE",
"108 228 CURVE SMOOTH",
"108 472 LINE SMOOTH",
"108 594 OFFCURVE",
"181 676 OFFCURVE",
"291 676 CURVE SMOOTH",
"391 676 LINE SMOOTH",
"501 676 OFFCURVE",
"574 594 OFFCURVE",
"574 472 CURVE SMOOTH",
"574 228 LINE SMOOTH",
"574 106 OFFCURVE",
"501 24 OFFCURVE",
"391 24 CURVE SMOOTH",
"291 24 LINE SMOOTH"
);
}
);
};
layerId = "76C6DC51-463D-4A0C-B694-3EB424048C5D";
paths = (
{
closed = 1;
nodes = (
"393 -9 LINE SMOOTH",
"523 -9 OFFCURVE",
"610 86 OFFCURVE",
"610 228 CURVE SMOOTH",
"610 472 LINE SMOOTH",
"610 614 OFFCURVE",
"523 709 OFFCURVE",
"393 709 CURVE SMOOTH",
"289 709 LINE SMOOTH",
"159 709 OFFCURVE",
"72 614 OFFCURVE",
"72 472 CURVE SMOOTH",
"72 228 LINE SMOOTH",
"72 86 OFFCURVE",
"159 -9 OFFCURVE",
"289 -9 CURVE SMOOTH"
);
},
{
closed = 1;
nodes = (
"181 24 OFFCURVE",
"108 106 OFFCURVE",
"108 228 CURVE SMOOTH",
"108 472 LINE SMOOTH",
"108 594 OFFCURVE",
"181 676 OFFCURVE",
"291 676 CURVE SMOOTH",
"391 676 LINE SMOOTH",
"501 676 OFFCURVE",
"574 594 OFFCURVE",
"574 472 CURVE SMOOTH",
"574 228 LINE SMOOTH",
"574 106 OFFCURVE",
"501 24 OFFCURVE",
"391 24 CURVE SMOOTH",
"291 24 LINE SMOOTH"
);
}
);
width = 682;
},
{
anchors = (
{
name = bottom;
position = "{344, 0}";
},
{
name = center;
position = "{345, 350}";
},
{
name = ogonek;
position = "{626, 10}";
},
{
name = top;
position = "{348, 700}";
},
{
name = topleft;
position = "{14, 700}";
},
{
name = topright;
position = "{653, 411}";
}
);
layerId = "BB270C98-E610-4AC3-8B1B-9C54875E1C66";
paths = (
{
closed = 1;
nodes = (
"401 -8 LINE SMOOTH",
"541 -8 OFFCURVE",
"636 92 OFFCURVE",
"636 243 CURVE SMOOTH",
"636 457 LINE SMOOTH",
"636 608 OFFCURVE",
"542 708 OFFCURVE",
"401 708 CURVE SMOOTH",
"295 708 LINE SMOOTH",
"154 708 OFFCURVE",
"60 608 OFFCURVE",
"60 457 CURVE SMOOTH",
"60 243 LINE SMOOTH",
"60 92 OFFCURVE",
"154 -8 OFFCURVE",
"294 -8 CURVE SMOOTH"
);
},
{
closed = 1;
nodes = (
"199 58 OFFCURVE",
"134 132 OFFCURVE",
"134 243 CURVE SMOOTH",
"134 457 LINE SMOOTH",
"134 568 OFFCURVE",
"199 642 OFFCURVE",
"297 642 CURVE SMOOTH",
"399 642 LINE SMOOTH",
"497 642 OFFCURVE",
"562 568 OFFCURVE",
"562 457 CURVE SMOOTH",
"562 243 LINE SMOOTH",
"562 132 OFFCURVE",
"496 58 OFFCURVE",
"399 58 CURVE SMOOTH",
"296 58 LINE SMOOTH"
);
}
);
width = 696;
}
);
leftKerningGroup = O;
note = O;
rightKerningGroup = O;
rightMetricsKey = "=|";
unicode = 004F;
},
{
glyphname = P;
lastChange = "2018-05-28 16:22:04 +0000";
layers = (
{
anchors = (
{
name = bottom;
position = "{335, 0}";
},
{
name = top;
position = "{335, 700}";
}
);
background = {
paths = (
{
closed = 1;
nodes = (
"202 0 LINE",
"202 209 LINE",
"413 209 LINE SMOOTH",
"547 209 OFFCURVE",
"640 291 OFFCURVE",
"640 411 CURVE SMOOTH",
"640 514 LINE SMOOTH",
"640 624 OFFCURVE",
"556 700 OFFCURVE",
"435 700 CURVE SMOOTH",
"64 700 LINE",
"64 0 LINE"
);
},
{
closed = 1;
nodes = (
"202 578 LINE",
"433 578 LINE SMOOTH",
"476 578 OFFCURVE",
"502 555 OFFCURVE",
"502 516 CURVE SMOOTH",
"502 413 LINE SMOOTH",
"502 363 OFFCURVE",
"467 331 OFFCURVE",
"411 331 CURVE SMOOTH",
"202 331 LINE"
);
}
);
};
layerId = "EA06CE92-4115-4482-8874-2441C279E756";
paths = (
{
closed = 1;
nodes = (
"200 0 LINE",
"200 219 LINE",
"421 219 LINE SMOOTH",
"551 219 OFFCURVE",
"638 300 OFFCURVE",
"638 421 CURVE SMOOTH",
"638 504 LINE SMOOTH",
"638 622 OFFCURVE",
"556 700 OFFCURVE",
"433 700 CURVE SMOOTH",
"62 700 LINE",
"62 0 LINE"
);
},
{
closed = 1;
nodes = (
"200 578 LINE",
"431 578 LINE SMOOTH",
"472 578 OFFCURVE",
"500 549 OFFCURVE",
"500 506 CURVE SMOOTH",
"500 423 LINE SMOOTH",
"500 374 OFFCURVE",
"468 341 OFFCURVE",
"419 341 CURVE SMOOTH",
"200 341 LINE"
);
}
);
width = 652;
},
{
anchors = (
{
name = bottom;
position = "{314, 0}";
},
{
name = top;
position = "{314, 700}";
}
);
background = {
paths = (
{
closed = 1;
nodes = (
"128 0 LINE",
"128 293 LINE",
"400 293 LINE SMOOTH",
"498 293 OFFCURVE",
"566 354 OFFCURVE",
"566 447 CURVE SMOOTH",
"566 562 LINE SMOOTH",
"566 644 OFFCURVE",
"504 700 OFFCURVE",
"412 700 CURVE SMOOTH",
"92 700 LINE",
"92 0 LINE"
);
},
{
closed = 1;
nodes = (
"128 668 LINE",
"410 668 LINE SMOOTH",
"482 668 OFFCURVE",
"530 626 OFFCURVE",
"530 564 CURVE SMOOTH",
"530 449 LINE SMOOTH",
"530 374 OFFCURVE",
"477 325 OFFCURVE",
"398 325 CURVE SMOOTH",
"128 325 LINE"
);
}
);
};
layerId = "76C6DC51-463D-4A0C-B694-3EB424048C5D";
paths = (
{
closed = 1;
nodes = (
"128 0 LINE",
"128 293 LINE",
"400 293 LINE SMOOTH",
"500 293 OFFCURVE",
"566 355 OFFCURVE",
"566 448 CURVE SMOOTH",
"566 563 LINE SMOOTH",
"566 645 OFFCURVE",
"504 700 OFFCURVE",
"412 700 CURVE SMOOTH",
"92 700 LINE",
"92 0 LINE"
);
},
{
closed = 1;
nodes = (
"128 667 LINE",
"410 667 LINE SMOOTH",
"482 667 OFFCURVE",
"530 625 OFFCURVE",
"530 563 CURVE SMOOTH",
"530 448 LINE SMOOTH",
"530 375 OFFCURVE",
"477 326 OFFCURVE",
"398 326 CURVE SMOOTH",
"128 326 LINE"
);
}
);
width = 610;
},
{
anchors = (
{
name = bottom;
position = "{321, 0}";
},
{
name = top;
position = "{321, 700}";
}
);
layerId = "BB270C98-E610-4AC3-8B1B-9C54875E1C66";
paths = (
{
closed = 1;
nodes = (
"154 0 LINE",
"154 265 LINE",
"407 265 LINE SMOOTH",
"518 265 OFFCURVE",
"592 334 OFFCURVE",
"592 437 CURVE SMOOTH",
"592 540 LINE SMOOTH",
"592 636 OFFCURVE",
"523 700 OFFCURVE",
"419 700 CURVE SMOOTH",
"80 700 LINE",
"80 0 LINE"
);
},
{
closed = 1;
nodes = (
"154 634 LINE",
"417 634 LINE SMOOTH",
"478 634 OFFCURVE",
"518 597 OFFCURVE",
"518 542 CURVE SMOOTH",
"518 439 LINE SMOOTH",
"518 374 OFFCURVE",
"473 331 OFFCURVE",
"405 331 CURVE SMOOTH",
"154 331 LINE"
);
}
);
width = 624;
}
);
leftMetricsKey = H;
note = P;
unicode = 0050;
},
{
glyphname = Q;
lastChange = "2018-05-28 16:22:04 +0000";
layers = (
{
anchors = (
{
name = bottom;
position = "{366, 0}";
},
{
name = top;
position = "{366, 700}";
}
);
background = {
paths = (
{
closed = 1;
nodes = (
"417 -6 LINE SMOOTH",
"557 -6 OFFCURVE",
"684 124 OFFCURVE",
"684 268 CURVE SMOOTH",
"684 432 LINE SMOOTH",
"684 596 OFFCURVE",
"577 706 OFFCURVE",
"417 706 CURVE SMOOTH",
"311 706 LINE SMOOTH",
"151 706 OFFCURVE",
"44 596 OFFCURVE",
"44 432 CURVE SMOOTH",
"44 268 LINE SMOOTH",
"44 104 OFFCURVE",
"151 -6 OFFCURVE",
"311 -6 CURVE SMOOTH"
);
},
{
closed = 1;
nodes = (
"712 47 LINE",
"451 304 LINE",
"364 212 LINE",
"625 -45 LINE"
);
},
{
closed = 1;
nodes = (
"234 116 OFFCURVE",
"182 177 OFFCURVE",
"182 268 CURVE SMOOTH",
"182 432 LINE SMOOTH",
"182 523 OFFCURVE",
"234 584 OFFCURVE",
"311 584 CURVE SMOOTH",
"417 584 LINE SMOOTH",
"494 584 OFFCURVE",
"546 523 OFFCURVE",
"546 432 CURVE SMOOTH",
"546 268 LINE SMOOTH",
"546 187 OFFCURVE",
"484 116 OFFCURVE",
"417 116 CURVE SMOOTH",
"311 116 LINE SMOOTH"
);
}
);
};
layerId = "EA06CE92-4115-4482-8874-2441C279E756";
paths = (
{
closed = 1;
nodes = (
"415 -6 LINE SMOOTH",
"555 -6 OFFCURVE",
"682 124 OFFCURVE",
"682 268 CURVE SMOOTH",
"682 432 LINE SMOOTH",
"682 596 OFFCURVE",
"575 706 OFFCURVE",
"415 706 CURVE SMOOTH",
"309 706 LINE SMOOTH",
"149 706 OFFCURVE",
"42 596 OFFCURVE",
"42 432 CURVE SMOOTH",
"42 268 LINE SMOOTH",
"42 104 OFFCURVE",
"149 -6 OFFCURVE",
"309 -6 CURVE SMOOTH"
);
},
{
closed = 1;
nodes = (
"714 43 LINE",
"449 304 LINE",
"362 212 LINE",
"627 -49 LINE"
);
},
{
closed = 1;
nodes = (
"232 116 OFFCURVE",
"180 177 OFFCURVE",
"180 268 CURVE SMOOTH",
"180 432 LINE SMOOTH",
"180 523 OFFCURVE",
"232 584 OFFCURVE",
"309 584 CURVE SMOOTH",
"415 584 LINE SMOOTH",
"492 584 OFFCURVE",
"544 523 OFFCURVE",
"544 432 CURVE SMOOTH",
"544 268 LINE SMOOTH",
"544 187 OFFCURVE",
"482 116 OFFCURVE",
"415 116 CURVE SMOOTH",
"309 116 LINE SMOOTH"
);
}
);
width = 728;
},
{
anchors = (
{
name = bottom;
position = "{332, 0}";
},
{
name = top;
position = "{332, 700}";
}
);
background = {
paths = (
{
closed = 1;
nodes = (
"384 -9 LINE SMOOTH",
"519 -9 OFFCURVE",
"610 84 OFFCURVE",
"610 231 CURVE SMOOTH",
"610 472 LINE SMOOTH",
"610 615 OFFCURVE",
"523 709 OFFCURVE",
"395 709 CURVE SMOOTH",
"289 709 LINE SMOOTH",
"162 709 OFFCURVE",
"72 615 OFFCURVE",
"72 472 CURVE SMOOTH",
"72 228 LINE SMOOTH",
"72 85 OFFCURVE",
"154 -9 OFFCURVE",
"281 -9 CURVE SMOOTH"
);
},
{
closed = 1;
nodes = (
"642 0 LINE",
"436 203 LINE",
"414 182 LINE",
"620 -22 LINE"
);
},
{
closed = 1;
nodes = (
"176 23 OFFCURVE",
"108 105 OFFCURVE",
"108 228 CURVE SMOOTH",
"108 472 LINE SMOOTH",
"108 595 OFFCURVE",
"184 677 OFFCURVE",
"293 677 CURVE SMOOTH",
"392 677 LINE SMOOTH",
"501 677 OFFCURVE",
"574 595 OFFCURVE",
"574 472 CURVE SMOOTH",
"574 231 LINE SMOOTH",
"574 102 OFFCURVE",
"497 23 OFFCURVE",
"381 23 CURVE SMOOTH",
"285 23 LINE SMOOTH"
);
}
);
};
layerId = "76C6DC51-463D-4A0C-B694-3EB424048C5D";
paths = (
{
closed = 1;
nodes = (
"393 -9 LINE SMOOTH",
"521 -9 OFFCURVE",
"610 88 OFFCURVE",
"610 228 CURVE SMOOTH",
"610 472 LINE SMOOTH",
"610 614 OFFCURVE",
"523 709 OFFCURVE",
"393 709 CURVE SMOOTH",
"289 709 LINE SMOOTH",
"159 709 OFFCURVE",
"72 614 OFFCURVE",
"72 472 CURVE SMOOTH",
"72 228 LINE SMOOTH",
"72 86 OFFCURVE",
"159 -9 OFFCURVE",
"289 -9 CURVE SMOOTH"
);
},
{
closed = 1;
nodes = (
"632 -8 LINE",
"426 195 LINE",
"403 172 LINE",
"609 -32 LINE"
);
},
{
closed = 1;
nodes = (
"181 24 OFFCURVE",
"108 106 OFFCURVE",
"108 228 CURVE SMOOTH",
"108 472 LINE SMOOTH",
"108 594 OFFCURVE",
"181 676 OFFCURVE",
"291 676 CURVE SMOOTH",
"391 676 LINE SMOOTH",
"501 676 OFFCURVE",
"574 594 OFFCURVE",
"574 472 CURVE SMOOTH",
"574 228 LINE SMOOTH",
"574 106 OFFCURVE",
"501 24 OFFCURVE",
"391 24 CURVE SMOOTH",
"291 24 LINE SMOOTH"
);
}
);
width = 684;
},
{
anchors = (
{
name = bottom;
position = "{344, 0}";
},
{
name = top;
position = "{344, 700}";
}
);
layerId = "BB270C98-E610-4AC3-8B1B-9C54875E1C66";
paths = (
{
closed = 1;
nodes = (
"395 -8 LINE SMOOTH",
"532 -8 OFFCURVE",
"636 99 OFFCURVE",
"636 245 CURVE SMOOTH",
"636 457 LINE SMOOTH",
"636 608 OFFCURVE",
"542 708 OFFCURVE",
"402 708 CURVE SMOOTH",
"296 708 LINE SMOOTH",
"156 708 OFFCURVE",
"60 608 OFFCURVE",
"60 457 CURVE SMOOTH",
"60 243 LINE SMOOTH",
"60 92 OFFCURVE",
"151 -8 OFFCURVE",
"291 -8 CURVE SMOOTH"
);
},
{
closed = 1;
nodes = (
"668 16 LINE",
"440 241 LINE",
"394 193 LINE",
"622 -32 LINE"
);
},
{
closed = 1;
nodes = (
"196 58 OFFCURVE",
"134 132 OFFCURVE",
"134 243 CURVE SMOOTH",
"134 457 LINE SMOOTH",
"134 568 OFFCURVE",
"201 642 OFFCURVE",
"298 642 CURVE SMOOTH",
"400 642 LINE SMOOTH",
"497 642 OFFCURVE",
"562 568 OFFCURVE",
"562 457 CURVE SMOOTH",
"562 245 LINE SMOOTH",
"562 134 OFFCURVE",
"491 58 OFFCURVE",
"393 58 CURVE SMOOTH",
"293 58 LINE SMOOTH"
);
}
);
width = 700;
}
);
leftKerningGroup = O;
leftMetricsKey = O;
note = Q;
unicode = 0051;
},
{
glyphname = R;
lastChange = "2018-05-28 16:22:04 +0000";
layers = (
{
anchors = (
{
name = bottom;
position = "{349, 0}";
},
{
name = top;
position = "{334, 700}";
}
);
background = {
paths = (
{
closed = 1;
nodes = (
"202 0 LINE",
"202 250 LINE",
"373 250 LINE SMOOTH",
"413 250 OFFCURVE",
"449 215 OFFCURVE",
"466 161 CURVE SMOOTH",
"518 0 LINE",
"660 0 LINE",
"604 177 LINE SMOOTH",
"585 236 OFFCURVE",
"562 271 OFFCURVE",
"515 300 CURVE",
"515 302 LINE",
"588 326 OFFCURVE",
"638 369 OFFCURVE",
"638 451 CURVE SMOOTH",
"638 514 LINE SMOOTH",
"638 624 OFFCURVE",
"555 700 OFFCURVE",
"436 700 CURVE SMOOTH",
"64 700 LINE",
"64 0 LINE"
);
},
{
closed = 1;
nodes = (
"202 578 LINE",
"434 578 LINE SMOOTH",
"476 578 OFFCURVE",
"500 555 OFFCURVE",
"500 518 CURVE SMOOTH",
"500 451 LINE SMOOTH",
"500 403 OFFCURVE",
"466 372 OFFCURVE",
"410 372 CURVE SMOOTH",
"202 372 LINE"
);
}
);
};
layerId = "EA06CE92-4115-4482-8874-2441C279E756";
paths = (
{
closed = 1;
nodes = (
"200 0 LINE",
"200 250 LINE",
"371 250 LINE SMOOTH",
"414 250 OFFCURVE",
"447 215 OFFCURVE",
"464 161 CURVE SMOOTH",
"516 0 LINE",
"658 0 LINE",
"602 177 LINE SMOOTH",
"583 236 OFFCURVE",
"562 268 OFFCURVE",
"515 300 CURVE",
"515 302 LINE",
"591 327 OFFCURVE",
"636 382 OFFCURVE",
"636 451 CURVE SMOOTH",
"636 514 LINE SMOOTH",
"636 624 OFFCURVE",
"553 700 OFFCURVE",
"434 700 CURVE SMOOTH",
"62 700 LINE",
"62 0 LINE"
);
},
{
closed = 1;
nodes = (
"200 578 LINE",
"432 578 LINE SMOOTH",
"474 578 OFFCURVE",
"498 555 OFFCURVE",
"498 518 CURVE SMOOTH",
"498 451 LINE SMOOTH",
"498 403 OFFCURVE",
"464 372 OFFCURVE",
"408 372 CURVE SMOOTH",
"200 372 LINE"
);
}
);
width = 678;
},
{
anchors = (
{
name = bottom;
position = "{328, 0}";
},
{
name = top;
position = "{313, 700}";
}
);
background = {
paths = (
{
closed = 1;
nodes = (
"128 0 LINE",
"128 324 LINE",
"350 324 LINE SMOOTH",
"411 324 OFFCURVE",
"472 274 OFFCURVE",
"492 203 CURVE SMOOTH",
"549 0 LINE",
"586 0 LINE",
"531 193 LINE SMOOTH",
"515 250 OFFCURVE",
"473 310 OFFCURVE",
"436 327 CURVE",
"436 328 LINE",
"511 348 OFFCURVE",
"564 408 OFFCURVE",
"564 480 CURVE SMOOTH",
"564 559 LINE SMOOTH",
"564 645 OFFCURVE",
"504 700 OFFCURVE",
"413 700 CURVE SMOOTH",
"92 700 LINE",
"92 0 LINE"
);
},
{
closed = 1;
nodes = (
"128 668 LINE",
"411 668 LINE SMOOTH",
"480 668 OFFCURVE",
"528 625 OFFCURVE",
"528 563 CURVE SMOOTH",
"528 480 LINE SMOOTH",
"528 407 OFFCURVE",
"470 356 OFFCURVE",
"387 356 CURVE SMOOTH",
"128 356 LINE"
);
}
);
};
layerId = "76C6DC51-463D-4A0C-B694-3EB424048C5D";
paths = (
{
closed = 1;
nodes = (
"128 0 LINE",
"128 323 LINE",
"359 323 LINE SMOOTH",
"418 323 OFFCURVE",
"471 275 OFFCURVE",
"492 202 CURVE SMOOTH",
"550 0 LINE",
"586 0 LINE",
"529 202 LINE SMOOTH",
"512 262 OFFCURVE",
"476 314 OFFCURVE",
"438 331 CURVE",
"438 332 LINE",
"514 348 OFFCURVE",
"564 407 OFFCURVE",
"564 479 CURVE SMOOTH",
"564 559 LINE SMOOTH",
"564 644 OFFCURVE",
"503 700 OFFCURVE",
"412 700 CURVE SMOOTH",
"92 700 LINE",
"92 0 LINE"
);
},
{
closed = 1;
nodes = (
"128 667 LINE",
"412 667 LINE SMOOTH",
"482 667 OFFCURVE",
"528 625 OFFCURVE",
"528 563 CURVE SMOOTH",
"528 479 LINE SMOOTH",
"528 405 OFFCURVE",
"472 356 OFFCURVE",
"387 356 CURVE SMOOTH",
"128 356 LINE"
);
}
);
width = 636;
},
{
anchors = (
{
name = bottom;
position = "{335, 0}";
},
{
name = top;
position = "{320, 700}";
}
);
layerId = "BB270C98-E610-4AC3-8B1B-9C54875E1C66";
paths = (
{
closed = 1;
nodes = (
"154 0 LINE",
"154 296 LINE",
"357 296 LINE SMOOTH",
"412 296 OFFCURVE",
"462 252 OFFCURVE",
"481 187 CURVE SMOOTH",
"536 0 LINE",
"612 0 LINE",
"557 187 LINE SMOOTH",
"540 245 OFFCURVE",
"506 295 OFFCURVE",
"465 317 CURVE",
"465 318 LINE",
"540 340 OFFCURVE",
"590 398 OFFCURVE",
"590 469 CURVE SMOOTH",
"590 542 LINE SMOOTH",
"590 637 OFFCURVE",
"522 700 OFFCURVE",
"420 700 CURVE SMOOTH",
"80 700 LINE",
"80 0 LINE"
);
},
{
closed = 1;
nodes = (
"154 634 LINE",
"418 634 LINE SMOOTH",
"477 634 OFFCURVE",
"516 599 OFFCURVE",
"516 546 CURVE SMOOTH",
"516 469 LINE SMOOTH",
"516 405 OFFCURVE",
"467 362 OFFCURVE",
"394 362 CURVE SMOOTH",
"154 362 LINE"
);
}
);
width = 650;
}
);
leftMetricsKey = H;
note = R;
rightKerningGroup = R;
unicode = 0052;
},
{
glyphname = S;
lastChange = "2018-05-28 16:22:04 +0000";
layers = (
{
anchors = (
{
name = bottom;
position = "{337, 0}";
},
{
name = top;
position = "{326, 700}";
}
);
background = {
paths = (
{
closed = 1;
nodes = (
"389 -8 LINE SMOOTH",
"530 -8 OFFCURVE",
"624 64 OFFCURVE",
"624 172 CURVE SMOOTH",
"624 238 LINE SMOOTH",
"624 330 OFFCURVE",
"553 379 OFFCURVE",
"433 400 CURVE SMOOTH",
"254 431 LINE SMOOTH",
"213 438 OFFCURVE",
"185 463 OFFCURVE",
"185 493 CURVE SMOOTH",
"185 520 LINE SMOOTH",
"185 560 OFFCURVE",
"222 586 OFFCURVE",
"278 586 CURVE SMOOTH",
"391 586 LINE SMOOTH",
"441 586 OFFCURVE",
"475 549 OFFCURVE",
"475 493 CURVE",
"611 493 LINE",
"611 622 OFFCURVE",
"523 708 OFFCURVE",
"391 708 CURVE SMOOTH",
"278 708 LINE SMOOTH",
"139 708 OFFCURVE",
"47 637 OFFCURVE",
"47 530 CURVE SMOOTH",
"47 474 LINE SMOOTH",
"47 380 OFFCURVE",
"116 327 OFFCURVE",
"234 307 CURVE SMOOTH",
"414 277 LINE SMOOTH",
"457 270 OFFCURVE",
"486 245 OFFCURVE",
"486 216 CURVE SMOOTH",
"486 182 LINE SMOOTH",
"486 141 OFFCURVE",
"446 114 OFFCURVE",
"387 114 CURVE SMOOTH",
"276 114 LINE SMOOTH",
"213 114 OFFCURVE",
"176 155 OFFCURVE",
"176 225 CURVE",
"40 225 LINE",
"40 79 OFFCURVE",
"127 -8 OFFCURVE",
"274 -8 CURVE SMOOTH"
);
}
);
};
layerId = "EA06CE92-4115-4482-8874-2441C279E756";
paths = (
{
closed = 1;
nodes = (
"387 -8 LINE SMOOTH",
"528 -8 OFFCURVE",
"622 64 OFFCURVE",
"622 172 CURVE SMOOTH",
"622 238 LINE SMOOTH",
"622 324 OFFCURVE",
"555 378 OFFCURVE",
"435 399 CURVE SMOOTH",
"252 431 LINE SMOOTH",
"207 439 OFFCURVE",
"183 459 OFFCURVE",
"183 493 CURVE SMOOTH",
"183 520 LINE SMOOTH",
"183 560 OFFCURVE",
"220 586 OFFCURVE",
"276 586 CURVE SMOOTH",
"389 586 LINE SMOOTH",
"439 586 OFFCURVE",
"473 549 OFFCURVE",
"473 493 CURVE",
"609 493 LINE",
"609 622 OFFCURVE",
"521 708 OFFCURVE",
"389 708 CURVE SMOOTH",
"276 708 LINE SMOOTH",
"137 708 OFFCURVE",
"45 637 OFFCURVE",
"45 530 CURVE SMOOTH",
"45 474 LINE SMOOTH",
"45 386 OFFCURVE",
"108 328 OFFCURVE",
"228 308 CURVE SMOOTH",
"412 277 LINE SMOOTH",
"459 269 OFFCURVE",
"484 248 OFFCURVE",
"484 216 CURVE SMOOTH",
"484 182 LINE SMOOTH",
"484 141 OFFCURVE",
"444 114 OFFCURVE",
"385 114 CURVE SMOOTH",
"274 114 LINE SMOOTH",
"211 114 OFFCURVE",
"174 155 OFFCURVE",
"174 225 CURVE",
"38 225 LINE",
"38 79 OFFCURVE",
"125 -8 OFFCURVE",
"272 -8 CURVE SMOOTH"
);
}
);
width = 656;
},
{
anchors = (
{
name = bottom;
position = "{324, 0}";
},
{
name = top;
position = "{313, 700}";
}
);
background = {
paths = (
{
closed = 1;
nodes = (
"367 -8 LINE SMOOTH",
"478 -8 OFFCURVE",
"551 53 OFFCURVE",
"551 143 CURVE SMOOTH",
"551 206 LINE SMOOTH",
"551 284 OFFCURVE",
"495 340 OFFCURVE",
"401 356 CURVE SMOOTH",
"224 386 LINE SMOOTH",
"158 397 OFFCURVE",
"112 438 OFFCURVE",
"112 495 CURVE SMOOTH",
"112 565 LINE SMOOTH",
"112 633 OFFCURVE",
"170 676 OFFCURVE",
"256 676 CURVE SMOOTH",
"369 676 LINE SMOOTH",
"451 676 OFFCURVE",
"506 621 OFFCURVE",
"506 538 CURVE",
"540 538 LINE",
"540 639 OFFCURVE",
"471 708 OFFCURVE",
"369 708 CURVE SMOOTH",
"256 708 LINE SMOOTH",
"150 708 OFFCURVE",
"77 650 OFFCURVE",
"77 559 CURVE SMOOTH",
"77 506 LINE SMOOTH",
"77 429 OFFCURVE",
"133 370 OFFCURVE",
"223 355 CURVE SMOOTH",
"400 325 LINE SMOOTH",
"471 313 OFFCURVE",
"516 272 OFFCURVE",
"516 219 CURVE SMOOTH",
"516 137 LINE SMOOTH",
"516 69 OFFCURVE",
"456 24 OFFCURVE",
"365 24 CURVE SMOOTH",
"254 24 LINE SMOOTH",
"164 24 OFFCURVE",
"102 90 OFFCURVE",
"102 180 CURVE",
"68 180 LINE",
"68 71 OFFCURVE",
"146 -8 OFFCURVE",
"252 -8 CURVE SMOOTH"
);
}
);
};
layerId = "76C6DC51-463D-4A0C-B694-3EB424048C5D";
paths = (
{
closed = 1;
nodes = (
"366 -8 LINE SMOOTH",
"477 -8 OFFCURVE",
"551 51 OFFCURVE",
"551 140 CURVE SMOOTH",
"551 211 LINE SMOOTH",
"551 286 OFFCURVE",
"495 340 OFFCURVE",
"401 356 CURVE SMOOTH",
"224 386 LINE SMOOTH",
"154 398 OFFCURVE",
"113 438 OFFCURVE",
"113 499 CURVE SMOOTH",
"113 562 LINE SMOOTH",
"113 630 OFFCURVE",
"170 675 OFFCURVE",
"256 675 CURVE SMOOTH",
"369 675 LINE SMOOTH",
"451 675 OFFCURVE",
"505 620 OFFCURVE",
"505 538 CURVE",
"540 538 LINE",
"540 640 OFFCURVE",
"472 708 OFFCURVE",
"369 708 CURVE SMOOTH",
"256 708 LINE SMOOTH",
"149 708 OFFCURVE",
"77 650 OFFCURVE",
"77 562 CURVE SMOOTH",
"77 499 LINE SMOOTH",
"77 422 OFFCURVE",
"132 368 OFFCURVE",
"224 352 CURVE SMOOTH",
"401 322 LINE SMOOTH",
"473 310 OFFCURVE",
"515 268 OFFCURVE",
"515 211 CURVE SMOOTH",
"515 140 LINE SMOOTH",
"515 71 OFFCURVE",
"455 25 OFFCURVE",
"366 25 CURVE SMOOTH",
"253 25 LINE SMOOTH",
"159 25 OFFCURVE",
"103 83 OFFCURVE",
"103 180 CURVE",
"68 180 LINE",
"68 62 OFFCURVE",
"137 -8 OFFCURVE",
"253 -8 CURVE SMOOTH"
);
}
);
width = 613;
},
{
anchors = (
{
name = bottom;
position = "{328, 0}";
},
{
name = top;
position = "{317, 700}";
}
);
layerId = "BB270C98-E610-4AC3-8B1B-9C54875E1C66";
paths = (
{
closed = 1;
nodes = (
"374 -8 LINE SMOOTH",
"496 -8 OFFCURVE",
"577 57 OFFCURVE",
"577 154 CURVE SMOOTH",
"577 218 LINE SMOOTH",
"577 299 OFFCURVE",
"517 354 OFFCURVE",
"413 372 CURVE SMOOTH",
"234 403 LINE SMOOTH",
"174 413 OFFCURVE",
"138 447 OFFCURVE",
"138 494 CURVE SMOOTH",
"138 548 LINE SMOOTH",
"138 606 OFFCURVE",
"188 642 OFFCURVE",
"263 642 CURVE SMOOTH",
"376 642 LINE SMOOTH",
"446 642 OFFCURVE",
"493 594 OFFCURVE",
"493 521 CURVE",
"565 521 LINE",
"565 633 OFFCURVE",
"489 708 OFFCURVE",
"376 708 CURVE SMOOTH",
"263 708 LINE SMOOTH",
"144 708 OFFCURVE",
"64 645 OFFCURVE",
"64 548 CURVE SMOOTH",
"64 494 LINE SMOOTH",
"64 412 OFFCURVE",
"123 354 OFFCURVE",
"224 337 CURVE SMOOTH",
"404 307 LINE SMOOTH",
"466 297 OFFCURVE",
"503 263 OFFCURVE",
"503 218 CURVE SMOOTH",
"503 154 LINE SMOOTH",
"503 96 OFFCURVE",
"451 58 OFFCURVE",
"372 58 CURVE SMOOTH",
"261 58 LINE SMOOTH",
"181 58 OFFCURVE",
"128 114 OFFCURVE",
"128 197 CURVE",
"56 197 LINE",
"56 74 OFFCURVE",
"137 -8 OFFCURVE",
"259 -8 CURVE SMOOTH"
);
}
);
width = 627;
}
);
leftKerningGroup = S;
note = S;
rightKerningGroup = S;
unicode = 0053;
},
{
glyphname = T;
lastChange = "2018-05-28 16:22:04 +0000";
layers = (
{
anchors = (
{
name = bottom;
position = "{299, 0}";
},
{
name = center;
position = "{300, 350}";
},
{
name = top;
position = "{299, 700}";
}
);
background = {
paths = (
{
closed = 1;
nodes = (
"374 0 LINE",
"374 580 LINE",
"596 580 LINE",
"596 700 LINE",
"14 700 LINE",
"14 580 LINE",
"236 580 LINE",
"236 0 LINE"
);
}
);
};
layerId = "EA06CE92-4115-4482-8874-2441C279E756";
paths = (
{
closed = 1;
nodes = (
"372 0 LINE",
"372 578 LINE",
"594 578 LINE",
"594 700 LINE",
"12 700 LINE",
"12 578 LINE",
"234 578 LINE",
"234 0 LINE"
);
}
);
width = 606;
},
{
anchors = (
{
name = bottom;
position = "{284, 0}";
},
{
name = center;
position = "{285, 350}";
},
{
name = top;
position = "{284, 700}";
}
);
layerId = "76C6DC51-463D-4A0C-B694-3EB424048C5D";
paths = (
{
closed = 1;
nodes = (
"300 0 LINE",
"300 667 LINE",
"522 667 LINE",
"522 700 LINE",
"42 700 LINE",
"42 667 LINE",
"264 667 LINE",
"264 0 LINE"
);
}
);
width = 564;
},
{
anchors = (
{
name = bottom;
position = "{289, 0}";
},
{
name = center;
position = "{290, 350}";
},
{
name = top;
position = "{289, 700}";
}
);
layerId = "BB270C98-E610-4AC3-8B1B-9C54875E1C66";
paths = (
{
closed = 1;
nodes = (
"326 0 LINE",
"326 636 LINE",
"548 636 LINE",
"548 700 LINE",
"30 700 LINE",
"30 636 LINE",
"252 636 LINE",
"252 0 LINE"
);
}
);
width = 578;
}
);
leftKerningGroup = T;
note = T;
rightKerningGroup = T;
rightMetricsKey = "=|";
unicode = 0054;
},
{
glyphname = U;
lastChange = "2018-05-28 16:22:04 +0000";
layers = (
{
anchors = (
{
name = bottom;
position = "{360, 0}";
},
{
name = ogonek;
position = "{475, 0}";
},
{
name = top;
position = "{360, 700}";
},
{
name = topright;
position = "{677, 411}";
}
);
background = {
paths = (
{
closed = 1;
nodes = (
"416 -8 LINE SMOOTH",
"563 -8 OFFCURVE",
"664 96 OFFCURVE",
"664 250 CURVE SMOOTH",
"664 700 LINE",
"526 700 LINE",
"526 248 LINE SMOOTH",
"526 166 OFFCURVE",
"482 114 OFFCURVE",
"416 114 CURVE SMOOTH",
"308 114 LINE SMOOTH",
"242 114 OFFCURVE",
"198 166 OFFCURVE",
"198 248 CURVE SMOOTH",
"198 700 LINE",
"60 700 LINE",
"60 250 LINE SMOOTH",
"60 96 OFFCURVE",
"161 -8 OFFCURVE",
"308 -8 CURVE SMOOTH"
);
}
);
};
layerId = "EA06CE92-4115-4482-8874-2441C279E756";
paths = (
{
closed = 1;
nodes = (
"412 -8 LINE SMOOTH",
"562 -8 OFFCURVE",
"662 95 OFFCURVE",
"662 250 CURVE SMOOTH",
"662 700 LINE",
"524 700 LINE",
"524 248 LINE SMOOTH",
"524 168 OFFCURVE",
"479 114 OFFCURVE",
"412 114 CURVE SMOOTH",
"306 114 LINE SMOOTH",
"240 114 OFFCURVE",
"196 168 OFFCURVE",
"196 248 CURVE SMOOTH",
"196 700 LINE",
"58 700 LINE",
"58 250 LINE SMOOTH",
"58 95 OFFCURVE",
"157 -8 OFFCURVE",
"306 -8 CURVE SMOOTH"
);
}
);
width = 720;
},
{
anchors = (
{
name = bottom;
position = "{339, 0}";
},
{
name = ogonek;
position = "{454, 0}";
},
{
name = top;
position = "{339, 700}";
},
{
name = topright;
position = "{656, 411}";
}
);
background = {
paths = (
{
closed = 1;
nodes = (
"394 -8 LINE SMOOTH",
"512 -8 OFFCURVE",
"590 78 OFFCURVE",
"590 205 CURVE SMOOTH",
"590 700 LINE",
"554 700 LINE",
"554 203 LINE SMOOTH",
"554 96 OFFCURVE",
"489 24 OFFCURVE",
"394 24 CURVE SMOOTH",
"285 24 LINE SMOOTH",
"189 24 OFFCURVE",
"124 96 OFFCURVE",
"124 203 CURVE SMOOTH",
"124 700 LINE",
"88 700 LINE",
"88 205 LINE SMOOTH",
"88 78 OFFCURVE",
"166 -8 OFFCURVE",
"285 -8 CURVE SMOOTH"
);
}
);
};
layerId = "76C6DC51-463D-4A0C-B694-3EB424048C5D";
paths = (
{
closed = 1;
nodes = (
"393 -8 LINE SMOOTH",
"511 -8 OFFCURVE",
"590 77 OFFCURVE",
"590 205 CURVE SMOOTH",
"590 700 LINE",
"554 700 LINE",
"554 203 LINE SMOOTH",
"554 96 OFFCURVE",
"490 25 OFFCURVE",
"393 25 CURVE SMOOTH",
"284 25 LINE SMOOTH",
"188 25 OFFCURVE",
"124 96 OFFCURVE",
"124 203 CURVE SMOOTH",
"124 700 LINE",
"88 700 LINE",
"88 205 LINE SMOOTH",
"88 77 OFFCURVE",
"166 -8 OFFCURVE",
"284 -8 CURVE SMOOTH"
);
}
);
width = 678;
},
{
anchors = (
{
name = bottom;
position = "{346, 0}";
},
{
name = ogonek;
position = "{461, 0}";
},
{
name = top;
position = "{346, 700}";
},
{
name = topright;
position = "{663, 411}";
}
);
layerId = "BB270C98-E610-4AC3-8B1B-9C54875E1C66";
paths = (
{
closed = 1;
nodes = (
"400 -8 LINE SMOOTH",
"530 -8 OFFCURVE",
"616 84 OFFCURVE",
"616 222 CURVE SMOOTH",
"616 700 LINE",
"542 700 LINE",
"542 220 LINE SMOOTH",
"542 123 OFFCURVE",
"485 58 OFFCURVE",
"400 58 CURVE SMOOTH",
"292 58 LINE SMOOTH",
"207 58 OFFCURVE",
"150 123 OFFCURVE",
"150 220 CURVE SMOOTH",
"150 700 LINE",
"76 700 LINE",
"76 222 LINE SMOOTH",
"76 84 OFFCURVE",
"162 -8 OFFCURVE",
"292 -8 CURVE SMOOTH"
);
}
);
width = 692;
}
);
leftKerningGroup = U;
note = U;
rightKerningGroup = U;
rightMetricsKey = "=|";
unicode = 0055;
},
{
glyphname = V;
lastChange = "2018-05-28 16:22:04 +0000";
layers = (
{
anchors = (
{
name = bottom;
position = "{333, 0}";
},
{
name = top;
position = "{333, 700}";
}
);
background = {
paths = (
{
closed = 1;
nodes = (
"395 0 LINE",
"664 700 LINE",
"521 700 LINE",
"336 185 LINE",
"334 185 LINE",
"150 700 LINE",
"6 700 LINE",
"247 64 LINE SMOOTH",
"263 23 OFFCURVE",
"290 0 OFFCURVE",
"330 0 CURVE SMOOTH"
);
}
);
};
layerId = "EA06CE92-4115-4482-8874-2441C279E756";
paths = (
{
closed = 1;
nodes = (
"393 0 LINE",
"662 700 LINE",
"519 700 LINE",
"334 175 LINE",
"332 175 LINE",
"148 700 LINE",
"4 700 LINE",
"245 64 LINE SMOOTH",
"261 23 OFFCURVE",
"288 0 OFFCURVE",
"328 0 CURVE SMOOTH"
);
}
);
width = 666;
},
{
anchors = (
{
name = bottom;
position = "{309, 0}";
},
{
name = top;
position = "{309, 700}";
}
);
background = {
paths = (
{
closed = 1;
nodes = (
"284 8 OFFCURVE",
"294 0 OFFCURVE",
"310 0 CURVE SMOOTH",
"326 0 LINE",
"583 700 LINE",
"545 700 LINE",
"308 43 LINE",
"307 43 LINE",
"72 700 LINE",
"34 700 LINE",
"278 25 LINE SMOOTH"
);
}
);
};
layerId = "76C6DC51-463D-4A0C-B694-3EB424048C5D";
paths = (
{
closed = 1;
nodes = (
"327 0 LINE",
"583 700 LINE",
"545 700 LINE",
"309 47 LINE",
"308 47 LINE",
"72 700 LINE",
"34 700 LINE",
"279 25 LINE SMOOTH",
"285 8 OFFCURVE",
"296 0 OFFCURVE",
"312 0 CURVE SMOOTH"
);
}
);
width = 617;
},
{
anchors = (
{
name = bottom;
position = "{317, 0}";
},
{
name = top;
position = "{317, 700}";
}
);
layerId = "BB270C98-E610-4AC3-8B1B-9C54875E1C66";
paths = (
{
closed = 1;
nodes = (
"352 0 LINE",
"612 700 LINE",
"536 700 LINE",
"317 89 LINE",
"316 89 LINE",
"98 700 LINE",
"22 700 LINE",
"261 46 LINE SMOOTH",
"273 14 OFFCURVE",
"289 0 OFFCURVE",
"314 0 CURVE SMOOTH"
);
}
);
width = 634;
}
);
note = V;
rightMetricsKey = "=|";
unicode = 0056;
},
{
glyphname = W;
lastChange = "2018-05-28 16:22:04 +0000";
layers = (
{
anchors = (
{
name = bottom;
position = "{443, 0}";
},
{
name = top;
position = "{443, 700}";
}
);
background = {
paths = (
{
closed = 1;
nodes = (
"289 0 LINE",
"457 527 LINE",
"426 527 LINE",
"592 0 LINE",
"650 0 LINE SMOOTH",
"700 0 OFFCURVE",
"728 25 OFFCURVE",
"738 78 CURVE SMOOTH",
"851 700 LINE",
"711 700 LINE",
"630 159 LINE",
"650 159 LINE",
"513 603 LINE SMOOTH",
"500 644 OFFCURVE",
"478 663 OFFCURVE",
"441 663 CURVE SMOOTH",
"391 663 LINE",
"231 159 LINE",
"251 159 LINE",
"170 700 LINE",
"30 700 LINE",
"142 78 LINE SMOOTH",
"152 25 OFFCURVE",
"180 0 OFFCURVE",
"231 0 CURVE SMOOTH"
);
}
);
};
layerId = "EA06CE92-4115-4482-8874-2441C279E756";
paths = (
{
closed = 1;
nodes = (
"287 0 LINE",
"439 480 LINE",
"441 480 LINE",
"590 0 LINE",
"648 0 LINE SMOOTH",
"698 0 OFFCURVE",
"726 25 OFFCURVE",
"736 78 CURVE SMOOTH",
"849 700 LINE",
"709 700 LINE",
"635 204 LINE",
"633 204 LINE",
"511 603 LINE SMOOTH",
"496 652 OFFCURVE",
"468 663 OFFCURVE",
"439 663 CURVE SMOOTH",
"389 663 LINE",
"244 203 LINE",
"242 203 LINE",
"168 700 LINE",
"28 700 LINE",
"140 78 LINE SMOOTH",
"151 15 OFFCURVE",
"189 0 OFFCURVE",
"229 0 CURVE SMOOTH"
);
}
);
width = 877;
},
{
anchors = (
{
name = bottom;
position = "{412, 0}";
},
{
name = top;
position = "{412, 700}";
}
);
background = {
paths = (
{
closed = 1;
nodes = (
"221 0 LINE",
"416 611 LINE",
"417 611 LINE",
"602 0 LINE",
"620 0 LINE SMOOTH",
"643 0 OFFCURVE",
"655 12 OFFCURVE",
"659 37 CURVE SMOOTH",
"767 700 LINE",
"730 700 LINE",
"625 37 LINE",
"624 37 LINE",
"444 635 LINE SMOOTH",
"438 655 OFFCURVE",
"428 663 OFFCURVE",
"412 663 CURVE SMOOTH",
"398 663 LINE",
"199 37 LINE",
"198 37 LINE",
"93 700 LINE",
"56 700 LINE",
"164 37 LINE SMOOTH",
"168 12 OFFCURVE",
"181 0 OFFCURVE",
"203 0 CURVE SMOOTH"
);
}
);
};
layerId = "76C6DC51-463D-4A0C-B694-3EB424048C5D";
paths = (
{
closed = 1;
nodes = (
"221 0 LINE",
"416 612 LINE",
"417 612 LINE",
"602 0 LINE",
"620 0 LINE SMOOTH",
"643 0 OFFCURVE",
"655 12 OFFCURVE",
"659 37 CURVE SMOOTH",
"767 700 LINE",
"730 700 LINE",
"625 39 LINE",
"624 39 LINE",
"443 639 LINE SMOOTH",
"438 655 OFFCURVE",
"427 663 OFFCURVE",
"412 663 CURVE SMOOTH",
"398 663 LINE",
"199 39 LINE",
"198 39 LINE",
"93 700 LINE",
"56 700 LINE",
"164 37 LINE SMOOTH",
"168 12 OFFCURVE",
"181 0 OFFCURVE",
"203 0 CURVE SMOOTH"
);
}
);
width = 823;
},
{
anchors = (
{
name = bottom;
position = "{424, 0}";
},
{
name = top;
position = "{424, 700}";
}
);
layerId = "BB270C98-E610-4AC3-8B1B-9C54875E1C66";
paths = (
{
closed = 1;
nodes = (
"249 0 LINE",
"424 564 LINE",
"425 564 LINE",
"595 0 LINE",
"625 0 LINE SMOOTH",
"662 0 OFFCURVE",
"683 20 OFFCURVE",
"691 65 CURVE SMOOTH",
"798 700 LINE",
"725 700 LINE",
"628 96 LINE",
"627 96 LINE",
"471 620 LINE SMOOTH",
"462 649 OFFCURVE",
"448 663 OFFCURVE",
"424 663 CURVE SMOOTH",
"393 663 LINE",
"217 96 LINE",
"216 96 LINE",
"119 700 LINE",
"46 700 LINE",
"153 65 LINE SMOOTH",
"161 20 OFFCURVE",
"182 0 OFFCURVE",
"219 0 CURVE SMOOTH"
);
}
);
width = 844;
}
);
leftKerningGroup = W;
note = W;
rightKerningGroup = W;
rightMetricsKey = "=|";
unicode = 0057;
},
{
glyphname = X;
lastChange = "2018-05-28 16:22:04 +0000";
layers = (
{
anchors = (
{
name = bottom;
position = "{320, 0}";
},
{
name = top;
position = "{320, 700}";
}
);
background = {
paths = (
{
closed = 1;
nodes = (
"645 0 LINE",
"167 700 LINE",
"10 700 LINE",
"488 0 LINE"
);
},
{
closed = 1;
nodes = (
"157 0 LINE",
"635 700 LINE",
"479 700 LINE",
"0 0 LINE"
);
}
);
};
layerId = "EA06CE92-4115-4482-8874-2441C279E756";
paths = (
{
closed = 1;
nodes = (
"643 0 LINE",
"165 700 LINE",
"8 700 LINE",
"486 0 LINE"
);
},
{
closed = 1;
nodes = (
"155 0 LINE",
"633 700 LINE",
"477 700 LINE",
"-2 0 LINE"
);
}
);
width = 641;
},
{
anchors = (
{
name = bottom;
position = "{295, 0}";
},
{
name = top;
position = "{295, 700}";
}
);
background = {
paths = (
{
closed = 1;
nodes = (
"565 0 LINE",
"75 700 LINE",
"36 700 LINE",
"527 0 LINE"
);
},
{
closed = 1;
nodes = (
"65 0 LINE",
"555 700 LINE",
"518 700 LINE",
"26 0 LINE"
);
}
);
};
layerId = "76C6DC51-463D-4A0C-B694-3EB424048C5D";
paths = (
{
closed = 1;
nodes = (
"565 0 LINE",
"78 700 LINE",
"36 700 LINE",
"523 0 LINE"
);
},
{
closed = 1;
nodes = (
"68 0 LINE",
"555 700 LINE",
"513 700 LINE",
"26 0 LINE"
);
}
);
width = 591;
},
{
anchors = (
{
name = bottom;
position = "{305, 0}";
},
{
name = top;
position = "{305, 700}";
}
);
layerId = "BB270C98-E610-4AC3-8B1B-9C54875E1C66";
paths = (
{
closed = 1;
nodes = (
"595 0 LINE",
"109 700 LINE",
"26 700 LINE",
"512 0 LINE"
);
},
{
closed = 1;
nodes = (
"99 0 LINE",
"585 700 LINE",
"503 700 LINE",
"16 0 LINE"
);
}
);
width = 611;
}
);
note = X;
rightMetricsKey = "=|";
unicode = 0058;
},
{
glyphname = Y;
lastChange = "2018-05-28 16:22:04 +0000";
layers = (
{
anchors = (
{
name = bottom;
position = "{326, 0}";
},
{
name = top;
position = "{326, 700}";
},
{
name = topleft;
position = "{11, 700}";
}
);
background = {
paths = (
{
closed = 1;
nodes = (
"396 0 LINE",
"396 272 LINE",
"656 700 LINE",
"504 700 LINE",
"328 407 LINE",
"152 700 LINE",
"0 700 LINE",
"259 272 LINE",
"259 0 LINE"
);
}
);
};
layerId = "EA06CE92-4115-4482-8874-2441C279E756";
paths = (
{
closed = 1;
nodes = (
"395 0 LINE",
"395 272 LINE",
"654 700 LINE",
"504 700 LINE",
"326 399 LINE",
"148 700 LINE",
"-2 700 LINE",
"257 272 LINE",
"257 0 LINE"
);
}
);
width = 652;
},
{
anchors = (
{
name = bottom;
position = "{303, 0}";
},
{
name = top;
position = "{303, 700}";
},
{
name = topleft;
position = "{-12, 700}";
}
);
background = {
paths = (
{
closed = 1;
nodes = (
"321 0 LINE",
"321 267 LINE",
"578 700 LINE",
"540 700 LINE",
"303 298 LINE",
"66 700 LINE",
"28 700 LINE",
"285 267 LINE",
"285 0 LINE"
);
}
);
};
layerId = "76C6DC51-463D-4A0C-B694-3EB424048C5D";
paths = (
{
closed = 1;
nodes = (
"321 0 LINE",
"321 267 LINE",
"578 700 LINE",
"539 700 LINE",
"303 300 LINE",
"67 700 LINE",
"28 700 LINE",
"285 267 LINE",
"285 0 LINE"
);
}
);
width = 606;
},
{
anchors = (
{
name = bottom;
position = "{311, 0}";
},
{
name = top;
position = "{311, 700}";
},
{
name = topleft;
position = "{-4, 700}";
}
);
layerId = "BB270C98-E610-4AC3-8B1B-9C54875E1C66";
paths = (
{
closed = 1;
nodes = (
"348 0 LINE",
"348 269 LINE",
"606 700 LINE",
"526 700 LINE",
"311 336 LINE",
"96 700 LINE",
"16 700 LINE",
"274 269 LINE",
"274 0 LINE"
);
}
);
width = 622;
}
);
leftKerningGroup = Y;
note = Y;
rightKerningGroup = Y;
rightMetricsKey = "=|";
unicode = 0059;
},
{
glyphname = Z;
lastChange = "2018-05-28 16:22:04 +0000";
layers = (
{
anchors = (
{
name = bottom;
position = "{303, 0}";
},
{
name = top;
position = "{303, 700}";
}
);
background = {
paths = (
{
closed = 1;
nodes = (
"576 0 LINE",
"576 119 LINE",
"214 119 LINE",
"586 632 LINE",
"586 700 LINE",
"42 700 LINE",
"42 581 LINE",
"396 581 LINE",
"24 68 LINE",
"24 0 LINE"
);
}
);
};
layerId = "EA06CE92-4115-4482-8874-2441C279E756";
paths = (
{
closed = 1;
nodes = (
"574 0 LINE",
"574 118 LINE",
"211 118 LINE",
"584 632 LINE",
"584 700 LINE",
"40 700 LINE",
"40 582 LINE",
"393 582 LINE",
"22 68 LINE",
"22 0 LINE"
);
}
);
width = 606;
},
{
anchors = (
{
name = bottom;
position = "{286, 0}";
},
{
name = top;
position = "{286, 700}";
}
);
background = {
paths = (
{
closed = 1;
nodes = (
"506 0 LINE",
"506 30 LINE",
"106 30 LINE",
"516 688 LINE",
"516 700 LINE",
"74 700 LINE",
"74 670 LINE",
"467 670 LINE",
"56 12 LINE",
"56 0 LINE"
);
}
);
};
layerId = "76C6DC51-463D-4A0C-B694-3EB424048C5D";
paths = (
{
closed = 1;
nodes = (
"506 0 LINE",
"506 32 LINE",
"107 32 LINE",
"516 682 LINE",
"516 700 LINE",
"74 700 LINE",
"74 668 LINE",
"465 668 LINE",
"56 18 LINE",
"56 0 LINE"
);
}
);
width = 572;
},
{
anchors = (
{
name = bottom;
position = "{289, 0}";
},
{
name = top;
position = "{289, 700}";
}
);
layerId = "BB270C98-E610-4AC3-8B1B-9C54875E1C66";
paths = (
{
closed = 1;
nodes = (
"528 0 LINE",
"528 63 LINE",
"142 63 LINE",
"538 667 LINE",
"538 700 LINE",
"58 700 LINE",
"58 637 LINE",
"436 637 LINE",
"40 33 LINE",
"40 0 LINE"
);
}
);
width = 578;
}
);
leftKerningGroup = Z;
note = Z;
rightKerningGroup = Z;
rightMetricsKey = "=|";
unicode = 005A;
},
{
glyphname = a;
lastChange = "2018-05-28 16:22:04 +0000";
layers = (
{
anchors = (
{
name = bottom;
position = "{281, -8}";
},
{
name = ogonek;
position = "{480, 0}";
},
{
name = top;
position = "{281, 499}";
}
);
background = {
paths = (
{
closed = 1;
nodes = (
"175 96 OFFCURVE",
"152 113 OFFCURVE",
"152 139 CURVE SMOOTH",
"152 167 LINE SMOOTH",
"152 192 OFFCURVE",
"176 209 OFFCURVE",
"206 209 CURVE SMOOTH",
"268 209 LINE SMOOTH",
"310 209 OFFCURVE",
"353 199 OFFCURVE",
"374 183 CURVE",
"374 166 LINE",
"357 124 OFFCURVE",
"313 96 OFFCURVE",
"264 96 CURVE SMOOTH",
"210 96 LINE SMOOTH"
);
},
{
closed = 1;
nodes = (
"166 372 OFFCURVE",
"191 393 OFFCURVE",
"228 393 CURVE SMOOTH",
"314 393 LINE SMOOTH",
"350 393 OFFCURVE",
"374 369 OFFCURVE",
"374 337 CURVE SMOOTH",
"374 285 LINE",
"341 301 OFFCURVE",
"296 311 OFFCURVE",
"262 311 CURVE SMOOTH",
"206 311 LINE SMOOTH",
"94 311 OFFCURVE",
"20 255 OFFCURVE",
"20 172 CURVE SMOOTH",
"20 132 LINE SMOOTH",
"20 48 OFFCURVE",
"89 -8 OFFCURVE",
"193 -8 CURVE SMOOTH",
"256 -8 LINE SMOOTH",
"301 -8 OFFCURVE",
"352 19 OFFCURVE",
"384 60 CURVE",
"384 0 LINE",
"510 0 LINE",
"510 337 LINE SMOOTH",
"510 439 OFFCURVE",
"432 507 OFFCURVE",
"314 507 CURVE SMOOTH",
"228 507 LINE SMOOTH",
"112 507 OFFCURVE",
"34 441 OFFCURVE",
"34 343 CURVE",
"166 343 LINE"
);
}
);
};
layerId = "EA06CE92-4115-4482-8874-2441C279E756";
paths = (
{
closed = 1;
nodes = (
"254 -8 LINE SMOOTH",
"299 -8 OFFCURVE",
"350 19 OFFCURVE",
"382 60 CURVE",
"382 0 LINE",
"508 0 LINE",
"508 337 LINE SMOOTH",
"508 439 OFFCURVE",
"430 507 OFFCURVE",
"312 507 CURVE SMOOTH",
"226 507 LINE SMOOTH",
"110 507 OFFCURVE",
"32 442 OFFCURVE",
"32 345 CURVE",
"164 345 LINE",
"164 374 OFFCURVE",
"189 393 OFFCURVE",
"226 393 CURVE SMOOTH",
"312 393 LINE SMOOTH",
"348 393 OFFCURVE",
"372 371 OFFCURVE",
"372 337 CURVE SMOOTH",
"372 285 LINE",
"339 301 OFFCURVE",
"294 311 OFFCURVE",
"260 311 CURVE SMOOTH",
"204 311 LINE SMOOTH",
"92 311 OFFCURVE",
"18 255 OFFCURVE",
"18 172 CURVE SMOOTH",
"18 132 LINE SMOOTH",
"18 48 OFFCURVE",
"87 -8 OFFCURVE",
"191 -8 CURVE SMOOTH"
);
},
{
closed = 1;
nodes = (
"173 96 OFFCURVE",
"150 113 OFFCURVE",
"150 139 CURVE SMOOTH",
"150 167 LINE SMOOTH",
"150 192 OFFCURVE",
"174 209 OFFCURVE",
"204 209 CURVE SMOOTH",
"266 209 LINE SMOOTH",
"308 209 OFFCURVE",
"351 199 OFFCURVE",
"372 183 CURVE",
"372 166 LINE",
"355 124 OFFCURVE",
"311 96 OFFCURVE",
"262 96 CURVE SMOOTH",
"208 96 LINE SMOOTH"
);
}
);
width = 544;
},
{
anchors = (
{
name = bottom;
position = "{277, -8}";
},
{
name = ogonek;
position = "{476, 0}";
},
{
name = top;
position = "{277, 499}";
}
);
background = {
paths = (
{
closed = 1;
nodes = (
"282 -8 LINE SMOOTH",
"334 -8 OFFCURVE",
"391 31 OFFCURVE",
"426 89 CURVE",
"426 0 LINE",
"460 0 LINE",
"460 356 LINE SMOOTH",
"460 447 OFFCURVE",
"401 507 OFFCURVE",
"313 507 CURVE SMOOTH",
"237 507 LINE SMOOTH",
"146 507 OFFCURVE",
"86 459 OFFCURVE",
"86 387 CURVE",
"122 387 LINE",
"122 440 OFFCURVE",
"168 475 OFFCURVE",
"237 475 CURVE SMOOTH",
"313 475 LINE SMOOTH",
"380 475 OFFCURVE",
"425 427 OFFCURVE",
"425 356 CURVE SMOOTH",
"425 245 LINE",
"390 273 OFFCURVE",
"337 291 OFFCURVE",
"290 291 CURVE SMOOTH",
"223 291 LINE SMOOTH",
"132 291 OFFCURVE",
"72 239 OFFCURVE",
"72 162 CURVE SMOOTH",
"72 120 LINE SMOOTH",
"72 43 OFFCURVE",
"131 -8 OFFCURVE",
"219 -8 CURVE SMOOTH"
);
},
{
closed = 1;
nodes = (
"152 24 OFFCURVE",
"107 62 OFFCURVE",
"107 120 CURVE SMOOTH",
"107 162 LINE SMOOTH",
"107 220 OFFCURVE",
"153 259 OFFCURVE",
"223 259 CURVE SMOOTH",
"290 259 LINE SMOOTH",
"340 259 OFFCURVE",
"394 238 OFFCURVE",
"425 207 CURVE",
"425 143 LINE",
"391 72 OFFCURVE",
"333 24 OFFCURVE",
"281 24 CURVE SMOOTH",
"219 24 LINE SMOOTH"
);
}
);
};
layerId = "76C6DC51-463D-4A0C-B694-3EB424048C5D";
paths = (
{
closed = 1;
nodes = (
"282 -8 LINE SMOOTH",
"334 -8 OFFCURVE",
"390 32 OFFCURVE",
"426 89 CURVE",
"426 0 LINE",
"460 0 LINE",
"460 356 LINE SMOOTH",
"460 447 OFFCURVE",
"401 507 OFFCURVE",
"313 507 CURVE SMOOTH",
"237 507 LINE SMOOTH",
"146 507 OFFCURVE",
"86 459 OFFCURVE",
"86 387 CURVE",
"122 387 LINE",
"122 440 OFFCURVE",
"168 475 OFFCURVE",
"237 475 CURVE SMOOTH",
"313 475 LINE SMOOTH",
"380 475 OFFCURVE",
"425 427 OFFCURVE",
"425 356 CURVE SMOOTH",
"425 245 LINE",
"390 273 OFFCURVE",
"337 291 OFFCURVE",
"290 291 CURVE SMOOTH",
"223 291 LINE SMOOTH",
"132 291 OFFCURVE",
"72 239 OFFCURVE",
"72 162 CURVE SMOOTH",
"72 120 LINE SMOOTH",
"72 43 OFFCURVE",
"131 -8 OFFCURVE",
"219 -8 CURVE SMOOTH"
);
},
{
closed = 1;
nodes = (
"152 24 OFFCURVE",
"107 62 OFFCURVE",
"107 120 CURVE SMOOTH",
"107 162 LINE SMOOTH",
"107 220 OFFCURVE",
"153 259 OFFCURVE",
"223 259 CURVE SMOOTH",
"290 259 LINE SMOOTH",
"340 259 OFFCURVE",
"394 238 OFFCURVE",
"425 207 CURVE",
"425 143 LINE",
"391 72 OFFCURVE",
"333 24 OFFCURVE",
"281 24 CURVE SMOOTH",
"219 24 LINE SMOOTH"
);
}
);
width = 542;
},
{
anchors = (
{
name = bottom;
position = "{287, -8}";
},
{
name = ogonek;
position = "{486, 0}";
},
{
name = top;
position = "{287, 499}";
}
);
layerId = "BB270C98-E610-4AC3-8B1B-9C54875E1C66";
paths = (
{
closed = 1;
nodes = (
"280 -8 LINE SMOOTH",
"333 -8 OFFCURVE",
"387 22 OFFCURVE",
"418 70 CURVE",
"418 0 LINE",
"486 0 LINE",
"486 349 LINE SMOOTH",
"486 444 OFFCURVE",
"420 507 OFFCURVE",
"321 507 CURVE SMOOTH",
"241 507 LINE SMOOTH",
"141 507 OFFCURVE",
"74 453 OFFCURVE",
"74 371 CURVE",
"146 371 LINE",
"146 415 OFFCURVE",
"184 444 OFFCURVE",
"241 444 CURVE SMOOTH",
"321 444 LINE SMOOTH",
"378 444 OFFCURVE",
"416 405 OFFCURVE",
"416 349 CURVE SMOOTH",
"416 266 LINE",
"382 289 OFFCURVE",
"331 303 OFFCURVE",
"288 303 CURVE SMOOTH",
"224 303 LINE SMOOTH",
"126 303 OFFCURVE",
"60 248 OFFCURVE",
"60 164 CURVE SMOOTH",
"60 132 LINE SMOOTH",
"60 47 OFFCURVE",
"123 -8 OFFCURVE",
"220 -8 CURVE SMOOTH"
);
},
{
closed = 1;
nodes = (
"166 55 OFFCURVE",
"132 85 OFFCURVE",
"132 132 CURVE SMOOTH",
"132 164 LINE SMOOTH",
"132 210 OFFCURVE",
"169 240 OFFCURVE",
"224 240 CURVE SMOOTH",
"288 240 LINE SMOOTH",
"338 240 OFFCURVE",
"389 223 OFFCURVE",
"416 198 CURVE",
"416 161 LINE",
"399 97 OFFCURVE",
"344 55 OFFCURVE",
"282 55 CURVE SMOOTH",
"220 55 LINE SMOOTH"
);
}
);
width = 556;
}
);
leftKerningGroup = a;
note = a;
rightKerningGroup = n;
unicode = 0061;
},
{
glyphname = b;
lastChange = "2018-05-28 16:22:04 +0000";
layers = (
{
anchors = (
{
name = bottom;
position = "{294, 0}";
},
{
name = top;
position = "{294, 470}";
}
);
background = {
paths = (
{
closed = 1;
nodes = (
"357 -8 LINE SMOOTH",
"482 -8 OFFCURVE",
"568 85 OFFCURVE",
"568 219 CURVE SMOOTH",
"568 292 LINE SMOOTH",
"568 418 OFFCURVE",
"482 507 OFFCURVE",
"361 507 CURVE SMOOTH",
"292 507 LINE SMOOTH",
"259 507 OFFCURVE",
"225 497 OFFCURVE",
"196 480 CURVE",
"196 700 LINE",
"60 700 LINE",
"60 0 LINE",
"194 0 LINE",
"194 20 LINE",
"224 2 OFFCURVE",
"258 -8 OFFCURVE",
"289 -8 CURVE SMOOTH"
);
},
{
closed = 1;
nodes = (
"243 112 OFFCURVE",
"199 155 OFFCURVE",
"196 210 CURVE",
"196 276 LINE",
"201 342 OFFCURVE",
"241 387 OFFCURVE",
"294 387 CURVE SMOOTH",
"359 387 LINE SMOOTH",
"402 387 OFFCURVE",
"432 349 OFFCURVE",
"432 292 CURVE SMOOTH",
"432 219 LINE SMOOTH",
"432 154 OFFCURVE",
"400 112 OFFCURVE",
"355 112 CURVE SMOOTH",
"289 112 LINE SMOOTH"
);
}
);
};
layerId = "EA06CE92-4115-4482-8874-2441C279E756";
paths = (
{
closed = 1;
nodes = (
"369 -8 LINE SMOOTH",
"487 -8 OFFCURVE",
"566 78 OFFCURVE",
"566 207 CURVE SMOOTH",
"566 300 LINE SMOOTH",
"566 424 OFFCURVE",
"487 507 OFFCURVE",
"369 507 CURVE SMOOTH",
"300 507 LINE SMOOTH",
"263 507 OFFCURVE",
"220 488 OFFCURVE",
"194 460 CURVE",
"194 700 LINE",
"58 700 LINE",
"58 0 LINE",
"184 0 LINE",
"184 65 LINE",
"211 21 OFFCURVE",
"258 -8 OFFCURVE",
"301 -8 CURVE SMOOTH"
);
},
{
closed = 1;
nodes = (
"234 112 OFFCURVE",
"197 151 OFFCURVE",
"194 210 CURVE",
"194 276 LINE",
"199 343 OFFCURVE",
"238 387 OFFCURVE",
"292 387 CURVE SMOOTH",
"355 387 LINE SMOOTH",
"400 387 OFFCURVE",
"430 352 OFFCURVE",
"430 300 CURVE SMOOTH",
"430 207 LINE SMOOTH",
"430 150 OFFCURVE",
"399 112 OFFCURVE",
"353 112 CURVE SMOOTH",
"287 112 LINE SMOOTH"
);
}
);
width = 604;
},
{
anchors = (
{
name = bottom;
position = "{273, 0}";
},
{
name = top;
position = "{273, 470}";
}
);
background = {
paths = (
{
closed = 1;
nodes = (
"329 -8 LINE SMOOTH",
"424 -8 OFFCURVE",
"494 69 OFFCURVE",
"494 181 CURVE SMOOTH",
"494 332 LINE SMOOTH",
"494 437 OFFCURVE",
"424 507 OFFCURVE",
"335 507 CURVE SMOOTH",
"267 507 LINE SMOOTH",
"206 507 OFFCURVE",
"153 477 OFFCURVE",
"123 428 CURVE",
"123 700 LINE",
"88 700 LINE",
"88 0 LINE",
"123 0 LINE",
"123 74 LINE",
"150 35 OFFCURVE",
"214 -8 OFFCURVE",
"262 -8 CURVE SMOOTH"
);
},
{
closed = 1;
nodes = (
"199 24 OFFCURVE",
"127 89 OFFCURVE",
"123 167 CURVE",
"123 322 LINE",
"129 415 OFFCURVE",
"194 475 OFFCURVE",
"267 475 CURVE SMOOTH",
"335 475 LINE SMOOTH",
"406 475 OFFCURVE",
"459 419 OFFCURVE",
"459 332 CURVE SMOOTH",
"459 181 LINE SMOOTH",
"459 86 OFFCURVE",
"406 24 OFFCURVE",
"329 24 CURVE SMOOTH",
"262 24 LINE SMOOTH"
);
}
);
};
layerId = "76C6DC51-463D-4A0C-B694-3EB424048C5D";
paths = (
{
closed = 1;
nodes = (
"329 -8 LINE SMOOTH",
"428 -8 OFFCURVE",
"494 68 OFFCURVE",
"494 181 CURVE SMOOTH",
"494 332 LINE SMOOTH",
"494 437 OFFCURVE",
"430 507 OFFCURVE",
"335 507 CURVE SMOOTH",
"267 507 LINE SMOOTH",
"207 507 OFFCURVE",
"150 473 OFFCURVE",
"123 421 CURVE",
"123 700 LINE",
"88 700 LINE",
"88 0 LINE",
"123 0 LINE",
"123 80 LINE",
"151 27 OFFCURVE",
"206 -8 OFFCURVE",
"262 -8 CURVE SMOOTH"
);
},
{
closed = 1;
nodes = (
"193 24 OFFCURVE",
"137 80 OFFCURVE",
"123 164 CURVE",
"123 325 LINE",
"129 415 OFFCURVE",
"187 475 OFFCURVE",
"267 475 CURVE SMOOTH",
"335 475 LINE SMOOTH",
"409 475 OFFCURVE",
"459 418 OFFCURVE",
"459 332 CURVE SMOOTH",
"459 181 LINE SMOOTH",
"459 87 OFFCURVE",
"407 24 OFFCURVE",
"329 24 CURVE SMOOTH",
"262 24 LINE SMOOTH"
);
}
);
width = 562;
},
{
anchors = (
{
name = bottom;
position = "{280, 0}";
},
{
name = top;
position = "{280, 470}";
}
);
layerId = "BB270C98-E610-4AC3-8B1B-9C54875E1C66";
paths = (
{
closed = 1;
nodes = (
"341 -8 LINE SMOOTH",
"447 -8 OFFCURVE",
"520 72 OFFCURVE",
"520 191 CURVE SMOOTH",
"520 320 LINE SMOOTH",
"520 432 OFFCURVE",
"447 507 OFFCURVE",
"345 507 CURVE SMOOTH",
"276 507 LINE SMOOTH",
"226 507 OFFCURVE",
"177 481 OFFCURVE",
"148 440 CURVE",
"148 700 LINE",
"76 700 LINE",
"76 0 LINE",
"146 0 LINE",
"146 64 LINE",
"173 23 OFFCURVE",
"229 -8 OFFCURVE",
"273 -8 CURVE SMOOTH"
);
},
{
closed = 1;
nodes = (
"211 56 OFFCURVE",
"152 112 OFFCURVE",
"148 183 CURVE",
"148 305 LINE",
"154 388 OFFCURVE",
"209 443 OFFCURVE",
"278 443 CURVE SMOOTH",
"343 443 LINE SMOOTH",
"403 443 OFFCURVE",
"448 394 OFFCURVE",
"448 320 CURVE SMOOTH",
"448 191 LINE SMOOTH",
"448 110 OFFCURVE",
"403 56 OFFCURVE",
"339 56 CURVE SMOOTH",
"273 56 LINE SMOOTH"
);
}
);
width = 576;
}
);
leftMetricsKey = n;
note = b;
rightKerningGroup = o;
rightMetricsKey = o;
unicode = 0062;
},
{
glyphname = c;
lastChange = "2018-05-28 16:22:04 +0000";
layers = (
{
anchors = (
{
name = bottom;
position = "{291, 0}";
},
{
name = top;
position = "{291, 499}";
}
);
background = {
paths = (
{
closed = 1;
nodes = (
"336 -8 LINE SMOOTH",
"459 -8 OFFCURVE",
"541 71 OFFCURVE",
"541 193 CURVE",
"406 193 LINE",
"406 143 OFFCURVE",
"378 110 OFFCURVE",
"336 110 CURVE SMOOTH",
"254 110 LINE SMOOTH",
"207 110 OFFCURVE",
"176 148 OFFCURVE",
"176 201 CURVE SMOOTH",
"176 298 LINE SMOOTH",
"176 351 OFFCURVE",
"207 389 OFFCURVE",
"253 389 CURVE SMOOTH",
"335 389 LINE SMOOTH",
"374 389 OFFCURVE",
"400 359 OFFCURVE",
"400 315 CURVE",
"536 315 LINE",
"536 431 OFFCURVE",
"456 507 OFFCURVE",
"335 507 CURVE SMOOTH",
"253 507 LINE SMOOTH",
"125 507 OFFCURVE",
"40 423 OFFCURVE",
"40 298 CURVE SMOOTH",
"40 201 LINE SMOOTH",
"40 76 OFFCURVE",
"126 -8 OFFCURVE",
"254 -8 CURVE SMOOTH"
);
}
);
};
layerId = "EA06CE92-4115-4482-8874-2441C279E756";
paths = (
{
closed = 1;
nodes = (
"334 -8 LINE SMOOTH",
"457 -8 OFFCURVE",
"539 71 OFFCURVE",
"539 193 CURVE",
"404 193 LINE",
"404 143 OFFCURVE",
"376 110 OFFCURVE",
"334 110 CURVE SMOOTH",
"252 110 LINE SMOOTH",
"205 110 OFFCURVE",
"174 148 OFFCURVE",
"174 201 CURVE SMOOTH",
"174 298 LINE SMOOTH",
"174 351 OFFCURVE",
"205 389 OFFCURVE",
"251 389 CURVE SMOOTH",
"333 389 LINE SMOOTH",
"372 389 OFFCURVE",
"398 359 OFFCURVE",
"398 315 CURVE",
"534 315 LINE",
"534 431 OFFCURVE",
"454 507 OFFCURVE",
"333 507 CURVE SMOOTH",
"251 507 LINE SMOOTH",
"123 507 OFFCURVE",
"38 423 OFFCURVE",
"38 298 CURVE SMOOTH",
"38 201 LINE SMOOTH",
"38 76 OFFCURVE",
"124 -8 OFFCURVE",
"252 -8 CURVE SMOOTH"
);
}
);
width = 563;
},
{
anchors = (
{
name = bottom;
position = "{270, 0}";
},
{
name = top;
position = "{270, 499}";
}
);
background = {
paths = (
{
closed = 1;
nodes = (
"313 -8 LINE SMOOTH",
"406 -8 OFFCURVE",
"468 62 OFFCURVE",
"468 167 CURVE",
"437 167 LINE",
"437 81 OFFCURVE",
"387 23 OFFCURVE",
"313 23 CURVE SMOOTH",
"231 23 LINE SMOOTH",
"154 23 OFFCURVE",
"103 79 OFFCURVE",
"103 162 CURVE SMOOTH",
"103 327 LINE SMOOTH",
"103 416 OFFCURVE",
"154 475 OFFCURVE",
"230 475 CURVE SMOOTH",
"312 475 LINE SMOOTH",
"385 475 OFFCURVE",
"434 434 OFFCURVE",
"434 373 CURVE",
"465 373 LINE",
"465 453 OFFCURVE",
"404 507 OFFCURVE",
"312 507 CURVE SMOOTH",
"230 507 LINE SMOOTH",
"133 507 OFFCURVE",
"68 435 OFFCURVE",
"68 327 CURVE SMOOTH",
"68 162 LINE SMOOTH",
"68 60 OFFCURVE",
"133 -8 OFFCURVE",
"231 -8 CURVE SMOOTH"
);
}
);
};
layerId = "76C6DC51-463D-4A0C-B694-3EB424048C5D";
paths = (
{
closed = 1;
nodes = (
"313 -8 LINE SMOOTH",
"406 -8 OFFCURVE",
"468 58 OFFCURVE",
"468 157 CURVE",
"434 157 LINE",
"434 77 OFFCURVE",
"386 24 OFFCURVE",
"313 24 CURVE SMOOTH",
"231 24 LINE SMOOTH",
"154 24 OFFCURVE",
"103 79 OFFCURVE",
"103 162 CURVE SMOOTH",
"103 327 LINE SMOOTH",
"103 416 OFFCURVE",
"154 475 OFFCURVE",
"230 475 CURVE SMOOTH",
"312 475 LINE SMOOTH",
"383 475 OFFCURVE",
"431 434 OFFCURVE",
"431 373 CURVE",
"465 373 LINE",
"465 453 OFFCURVE",
"404 507 OFFCURVE",
"312 507 CURVE SMOOTH",
"230 507 LINE SMOOTH",
"133 507 OFFCURVE",
"68 435 OFFCURVE",
"68 327 CURVE SMOOTH",
"68 162 LINE SMOOTH",
"68 60 OFFCURVE",
"133 -8 OFFCURVE",
"231 -8 CURVE SMOOTH"
);
}
);
width = 522;
},
{
anchors = (
{
name = bottom;
position = "{277, 0}";
},
{
name = top;
position = "{277, 499}";
}
);
layerId = "BB270C98-E610-4AC3-8B1B-9C54875E1C66";
paths = (
{
closed = 1;
nodes = (
"320 -10 LINE SMOOTH",
"424 -10 OFFCURVE",
"494 64 OFFCURVE",
"494 175 CURVE",
"424 175 LINE",
"424 102 OFFCURVE",
"382 54 OFFCURVE",
"320 54 CURVE SMOOTH",
"238 54 LINE SMOOTH",
"172 54 OFFCURVE",
"128 101 OFFCURVE",
"128 171 CURVE SMOOTH",
"128 316 LINE SMOOTH",
"128 392 OFFCURVE",
"172 443 OFFCURVE",
"237 443 CURVE SMOOTH",
"319 443 LINE SMOOTH",
"380 443 OFFCURVE",
"420 406 OFFCURVE",
"420 351 CURVE",
"490 351 LINE",
"490 445 OFFCURVE",
"422 507 OFFCURVE",
"319 507 CURVE SMOOTH",
"237 507 LINE SMOOTH",
"129 507 OFFCURVE",
"56 431 OFFCURVE",
"56 316 CURVE SMOOTH",
"56 171 LINE SMOOTH",
"56 62 OFFCURVE",
"129 -10 OFFCURVE",
"238 -10 CURVE SMOOTH"
);
}
);
width = 536;
}
);
leftKerningGroup = o;
leftMetricsKey = o;
note = c;
rightKerningGroup = c;
unicode = 0063;
},
{
glyphname = d;
lastChange = "2018-05-28 16:22:04 +0000";
layers = (
{
anchors = (
{
name = bottom;
position = "{298, 0}";
},
{
name = center;
position = "{300, 235}";
},
{
name = top;
position = "{300, 470}";
},
{
name = topright;
position = "{554, 470}";
}
);
background = {
paths = (
{
closed = 1;
nodes = (
"295 -10 LINE SMOOTH",
"343 -10 OFFCURVE",
"398 20 OFFCURVE",
"424 64 CURVE",
"424 0 LINE",
"550 0 LINE",
"550 700 LINE",
"414 700 LINE",
"414 460 LINE",
"387 488 OFFCURVE",
"343 507 OFFCURVE",
"305 507 CURVE SMOOTH",
"249 507 LINE SMOOTH",
"122 507 OFFCURVE",
"40 420 OFFCURVE",
"40 290 CURVE SMOOTH",
"40 188 LINE SMOOTH",
"40 69 OFFCURVE",
"120 -10 OFFCURVE",
"241 -10 CURVE SMOOTH"
);
},
{
closed = 1;
nodes = (
"207 108 OFFCURVE",
"176 142 OFFCURVE",
"176 194 CURVE SMOOTH",
"176 290 LINE SMOOTH",
"176 349 OFFCURVE",
"211 389 OFFCURVE",
"264 389 CURVE SMOOTH",
"328 389 LINE SMOOTH",
"372 389 OFFCURVE",
"406 351 OFFCURVE",
"414 294 CURVE",
"414 225 LINE",
"408 155 OFFCURVE",
"368 108 OFFCURVE",
"314 108 CURVE SMOOTH",
"254 108 LINE SMOOTH"
);
}
);
};
layerId = "EA06CE92-4115-4482-8874-2441C279E756";
paths = (
{
closed = 1;
nodes = (
"293 -10 LINE SMOOTH",
"341 -10 OFFCURVE",
"396 20 OFFCURVE",
"422 64 CURVE",
"422 0 LINE",
"548 0 LINE",
"548 700 LINE",
"412 700 LINE",
"412 460 LINE",
"385 488 OFFCURVE",
"341 507 OFFCURVE",
"303 507 CURVE SMOOTH",
"247 507 LINE SMOOTH",
"120 507 OFFCURVE",
"38 420 OFFCURVE",
"38 290 CURVE SMOOTH",
"38 188 LINE SMOOTH",
"38 69 OFFCURVE",
"118 -10 OFFCURVE",
"239 -10 CURVE SMOOTH"
);
},
{
closed = 1;
nodes = (
"205 108 OFFCURVE",
"174 142 OFFCURVE",
"174 194 CURVE SMOOTH",
"174 290 LINE SMOOTH",
"174 349 OFFCURVE",
"209 389 OFFCURVE",
"262 389 CURVE SMOOTH",
"326 389 LINE SMOOTH",
"370 389 OFFCURVE",
"404 351 OFFCURVE",
"412 294 CURVE",
"412 225 LINE",
"406 155 OFFCURVE",
"366 108 OFFCURVE",
"312 108 CURVE SMOOTH",
"252 108 LINE SMOOTH"
);
}
);
width = 606;
},
{
anchors = (
{
name = bottom;
position = "{275, 0}";
},
{
name = center;
position = "{277, 235}";
},
{
name = top;
position = "{277, 470}";
},
{
name = topright;
position = "{531, 470}";
}
);
background = {
paths = (
{
closed = 1;
nodes = (
"297 -8 LINE SMOOTH",
"352 -8 OFFCURVE",
"406 29 OFFCURVE",
"439 94 CURVE",
"439 0 LINE",
"474 0 LINE",
"474 700 LINE",
"439 700 LINE",
"439 433 LINE",
"412 477 OFFCURVE",
"362 507 OFFCURVE",
"313 507 CURVE SMOOTH",
"231 507 LINE SMOOTH",
"132 507 OFFCURVE",
"66 429 OFFCURVE",
"66 311 CURVE SMOOTH",
"66 177 LINE SMOOTH",
"66 66 OFFCURVE",
"128 -8 OFFCURVE",
"223 -8 CURVE SMOOTH"
);
},
{
closed = 1;
nodes = (
"150 24 OFFCURVE",
"101 85 OFFCURVE",
"101 177 CURVE SMOOTH",
"101 311 LINE SMOOTH",
"101 409 OFFCURVE",
"153 475 OFFCURVE",
"232 475 CURVE SMOOTH",
"311 475 LINE SMOOTH",
"371 475 OFFCURVE",
"422 430 OFFCURVE",
"439 362 CURVE",
"439 185 LINE",
"427 104 OFFCURVE",
"371 24 OFFCURVE",
"297 24 CURVE SMOOTH",
"223 24 LINE SMOOTH"
);
}
);
};
layerId = "76C6DC51-463D-4A0C-B694-3EB424048C5D";
paths = (
{
closed = 1;
nodes = (
"297 -8 LINE SMOOTH",
"352 -8 OFFCURVE",
"405 29 OFFCURVE",
"439 95 CURVE",
"439 0 LINE",
"474 0 LINE",
"474 700 LINE",
"439 700 LINE",
"439 433 LINE",
"412 478 OFFCURVE",
"362 507 OFFCURVE",
"313 507 CURVE SMOOTH",
"231 507 LINE SMOOTH",
"132 507 OFFCURVE",
"66 429 OFFCURVE",
"66 311 CURVE SMOOTH",
"66 177 LINE SMOOTH",
"66 66 OFFCURVE",
"128 -8 OFFCURVE",
"223 -8 CURVE SMOOTH"
);
},
{
closed = 1;
nodes = (
"150 24 OFFCURVE",
"101 85 OFFCURVE",
"101 177 CURVE SMOOTH",
"101 311 LINE SMOOTH",
"101 409 OFFCURVE",
"153 475 OFFCURVE",
"232 475 CURVE SMOOTH",
"311 475 LINE SMOOTH",
"371 475 OFFCURVE",
"422 430 OFFCURVE",
"439 362 CURVE",
"439 185 LINE",
"427 104 OFFCURVE",
"371 24 OFFCURVE",
"297 24 CURVE SMOOTH",
"223 24 LINE SMOOTH"
);
}
);
width = 560;
},
{
anchors = (
{
name = bottom;
position = "{284, 0}";
},
{
name = center;
position = "{286, 235}";
},
{
name = top;
position = "{286, 470}";
},
{
name = topright;
position = "{540, 470}";
}
);
layerId = "BB270C98-E610-4AC3-8B1B-9C54875E1C66";
paths = (
{
closed = 1;
nodes = (
"300 -8 LINE SMOOTH",
"347 -8 OFFCURVE",
"401 25 OFFCURVE",
"432 74 CURVE",
"432 0 LINE",
"502 0 LINE",
"502 700 LINE",
"430 700 LINE",
"430 447 LINE",
"404 484 OFFCURVE",
"359 507 OFFCURVE",
"314 507 CURVE SMOOTH",
"240 507 LINE SMOOTH",
"130 507 OFFCURVE",
"56 425 OFFCURVE",
"56 303 CURVE SMOOTH",
"56 183 LINE SMOOTH",
"56 68 OFFCURVE",
"128 -8 OFFCURVE",
"231 -8 CURVE SMOOTH"
);
},
{
closed = 1;
nodes = (
"173 56 OFFCURVE",
"128 107 OFFCURVE",
"128 183 CURVE SMOOTH",
"128 303 LINE SMOOTH",
"128 387 OFFCURVE",
"174 443 OFFCURVE",
"242 443 CURVE SMOOTH",
"312 443 LINE SMOOTH",
"373 443 OFFCURVE",
"421 395 OFFCURVE",
"430 324 CURVE",
"430 198 LINE",
"425 127 OFFCURVE",
"365 56 OFFCURVE",
"298 56 CURVE SMOOTH",
"233 56 LINE SMOOTH"
);
}
);
width = 578;
}
);
leftKerningGroup = o;
note = d;
unicode = 0064;
},
{
glyphname = e;
lastChange = "2018-05-29 05:00:16 +0000";
layers = (
{
anchors = (
{
name = bottom;
position = "{294, 0}";
},
{
name = ogonek;
position = "{400, 0}";
},
{
name = top;
position = "{294, 499}";
}
);
background = {
paths = (
{
closed = 1;
nodes = (
"334 -8 LINE SMOOTH",
"462 -8 OFFCURVE",
"548 60 OFFCURVE",
"548 161 CURVE",
"413 161 LINE",
"413 129 OFFCURVE",
"381 108 OFFCURVE",
"334 108 CURVE SMOOTH",
"258 108 LINE SMOOTH",
"209 108 OFFCURVE",
"176 140 OFFCURVE",
"176 189 CURVE SMOOTH",
"176 298 LINE SMOOTH",
"176 354 OFFCURVE",
"208 391 OFFCURVE",
"256 391 CURVE SMOOTH",
"338 391 LINE SMOOTH",
"384 391 OFFCURVE",
"414 357 OFFCURVE",
"414 307 CURVE SMOOTH",
"414 253 LINE",
"550 253 LINE",
"550 305 LINE SMOOTH",
"550 426 OFFCURVE",
"465 507 OFFCURVE",
"338 507 CURVE SMOOTH",
"256 507 LINE SMOOTH",
"126 507 OFFCURVE",
"40 423 OFFCURVE",
"40 298 CURVE SMOOTH",
"40 189 LINE SMOOTH",
"40 71 OFFCURVE",
"127 -8 OFFCURVE",
"258 -8 CURVE SMOOTH"
);
},
{
closed = 1;
nodes = (
"550 204 LINE",
"550 302 LINE",
"51 302 LINE",
"51 204 LINE"
);
}
);
};
layerId = "EA06CE92-4115-4482-8874-2441C279E756";
paths = (
{
closed = 1;
nodes = (
"332 -8 LINE SMOOTH",
"460 -8 OFFCURVE",
"546 62 OFFCURVE",
"546 166 CURVE",
"411 166 LINE",
"411 131 OFFCURVE",
"379 108 OFFCURVE",
"332 108 CURVE SMOOTH",
"256 108 LINE SMOOTH",
"207 108 OFFCURVE",
"174 140 OFFCURVE",
"174 189 CURVE SMOOTH",
"174 298 LINE SMOOTH",
"174 354 OFFCURVE",
"206 391 OFFCURVE",
"254 391 CURVE SMOOTH",
"336 391 LINE SMOOTH",
"382 391 OFFCURVE",
"412 357 OFFCURVE",
"412 305 CURVE SMOOTH",
"412 253 LINE",
"548 253 LINE",
"548 305 LINE SMOOTH",
"548 426 OFFCURVE",
"463 507 OFFCURVE",
"336 507 CURVE SMOOTH",
"254 507 LINE SMOOTH",
"124 507 OFFCURVE",
"38 423 OFFCURVE",
"38 298 CURVE SMOOTH",
"38 189 LINE SMOOTH",
"38 71 OFFCURVE",
"125 -8 OFFCURVE",
"256 -8 CURVE SMOOTH"
);
},
{
closed = 1;
nodes = (
"548 204 LINE",
"548 302 LINE",
"49 302 LINE",
"49 204 LINE"
);
}
);
width = 582;
},
{
anchors = (
{
name = bottom;
position = "{273, 0}";
},
{
name = ogonek;
position = "{379, 0}";
},
{
name = top;
position = "{273, 499}";
}
);
background = {
paths = (
{
closed = 1;
nodes = (
"311 -8 LINE SMOOTH",
"409 -8 OFFCURVE",
"474 56 OFFCURVE",
"474 151 CURVE",
"439 151 LINE",
"439 75 OFFCURVE",
"388 24 OFFCURVE",
"311 24 CURVE SMOOTH",
"235 24 LINE SMOOTH",
"156 24 OFFCURVE",
"103 80 OFFCURVE",
"103 163 CURVE SMOOTH",
"103 327 LINE SMOOTH",
"103 416 OFFCURVE",
"156 475 OFFCURVE",
"236 475 CURVE SMOOTH",
"318 475 LINE SMOOTH",
"392 475 OFFCURVE",
"441 417 OFFCURVE",
"441 331 CURVE SMOOTH",
"441 268 LINE",
"476 268 LINE",
"476 331 LINE SMOOTH",
"476 437 OFFCURVE",
"413 507 OFFCURVE",
"318 507 CURVE SMOOTH",
"236 507 LINE SMOOTH",
"135 507 OFFCURVE",
"68 435 OFFCURVE",
"68 327 CURVE SMOOTH",
"68 163 LINE SMOOTH",
"68 60 OFFCURVE",
"135 -8 OFFCURVE",
"235 -8 CURVE SMOOTH"
);
},
{
closed = 1;
nodes = (
"476 250 LINE",
"476 282 LINE",
"79 282 LINE",
"79 250 LINE"
);
}
);
};
layerId = "76C6DC51-463D-4A0C-B694-3EB424048C5D";
paths = (
{
closed = 1;
nodes = (
"311 -8 LINE SMOOTH",
"409 -8 OFFCURVE",
"474 56 OFFCURVE",
"474 151 CURVE",
"439 151 LINE",
"439 75 OFFCURVE",
"388 24 OFFCURVE",
"311 24 CURVE SMOOTH",
"235 24 LINE SMOOTH",
"156 24 OFFCURVE",
"103 80 OFFCURVE",
"103 163 CURVE SMOOTH",
"103 327 LINE SMOOTH",
"103 416 OFFCURVE",
"156 475 OFFCURVE",
"236 475 CURVE SMOOTH",
"318 475 LINE SMOOTH",
"392 475 OFFCURVE",
"441 417 OFFCURVE",
"441 331 CURVE SMOOTH",
"441 268 LINE",
"476 268 LINE",
"476 331 LINE SMOOTH",
"476 437 OFFCURVE",
"413 507 OFFCURVE",
"318 507 CURVE SMOOTH",
"236 507 LINE SMOOTH",
"135 507 OFFCURVE",
"68 435 OFFCURVE",
"68 327 CURVE SMOOTH",
"68 163 LINE SMOOTH",
"68 60 OFFCURVE",
"135 -8 OFFCURVE",
"235 -8 CURVE SMOOTH"
);
},
{
closed = 1;
nodes = (
"476 250 LINE",
"476 282 LINE",
"79 282 LINE",
"79 250 LINE"
);
}
);
width = 538;
},
{
anchors = (
{
name = bottom;
position = "{280, 0}";
},
{
name = ogonek;
position = "{386, 0}";
},
{
name = top;
position = "{280, 499}";
}
);
layerId = "BB270C98-E610-4AC3-8B1B-9C54875E1C66";
paths = (
{
closed = 1;
nodes = (
"318 -10 LINE SMOOTH",
"427 -10 OFFCURVE",
"500 56 OFFCURVE",
"500 155 CURVE",
"430 155 LINE",
"430 94 OFFCURVE",
"385 54 OFFCURVE",
"318 54 CURVE SMOOTH",
"242 54 LINE SMOOTH",
"174 54 OFFCURVE",
"128 101 OFFCURVE",
"128 171 CURVE SMOOTH",
"128 316 LINE SMOOTH",
"128 392 OFFCURVE",
"174 443 OFFCURVE",
"242 443 CURVE SMOOTH",
"324 443 LINE SMOOTH",
"388 443 OFFCURVE",
"430 394 OFFCURVE",
"430 321 CURVE SMOOTH",
"430 281 LINE",
"502 281 LINE",
"502 321 LINE SMOOTH",
"502 433 OFFCURVE",
"431 507 OFFCURVE",
"324 507 CURVE SMOOTH",
"242 507 LINE SMOOTH",
"130 507 OFFCURVE",
"56 431 OFFCURVE",
"56 316 CURVE SMOOTH",
"56 171 LINE SMOOTH",
"56 62 OFFCURVE",
"130 -10 OFFCURVE",
"242 -10 CURVE SMOOTH"
);
},
{
closed = 1;
nodes = (
"502 233 LINE",
"502 295 LINE",
"67 295 LINE",
"67 233 LINE"
);
}
);
width = 552;
}
);
leftKerningGroup = o;
leftMetricsKey = o;
note = e;
rightKerningGroup = e;
unicode = 0065;
},
{
glyphname = f;
lastChange = "2018-05-28 16:22:04 +0000";
layers = (
{
anchors = (
{
name = bottom;
position = "{185, 0}";
},
{
name = top;
position = "{185, 470}";
}
);
background = {
paths = (
{
closed = 1;
nodes = (
"242 0 LINE",
"242 381 LINE",
"362 381 LINE",
"362 499 LINE",
"242 499 LINE",
"242 520 LINE SMOOTH",
"242 577 OFFCURVE",
"259 588 OFFCURVE",
"303 588 CURVE SMOOTH",
"373 588 LINE",
"373 704 LINE",
"303 704 LINE SMOOTH",
"177 704 OFFCURVE",
"106 644 OFFCURVE",
"106 520 CURVE SMOOTH",
"106 499 LINE",
"20 499 LINE",
"20 381 LINE",
"106 381 LINE",
"106 0 LINE"
);
}
);
};
layerId = "EA06CE92-4115-4482-8874-2441C279E756";
paths = (
{
closed = 1;
nodes = (
"240 0 LINE",
"240 381 LINE",
"360 381 LINE",
"360 499 LINE",
"240 499 LINE",
"240 530 LINE SMOOTH",
"240 571 OFFCURVE",
"264 588 OFFCURVE",
"301 588 CURVE SMOOTH",
"371 588 LINE",
"371 704 LINE",
"301 704 LINE SMOOTH",
"183 704 OFFCURVE",
"104 640 OFFCURVE",
"104 530 CURVE SMOOTH",
"104 499 LINE",
"18 499 LINE",
"18 381 LINE",
"104 381 LINE",
"104 0 LINE"
);
}
);
width = 379;
},
{
anchors = (
{
name = bottom;
position = "{168, 0}";
},
{
name = top;
position = "{168, 470}";
}
);
background = {
paths = (
{
closed = 1;
nodes = (
"172 0 LINE",
"172 467 LINE",
"292 467 LINE",
"292 499 LINE",
"172 499 LINE",
"172 543 LINE SMOOTH",
"172 641 OFFCURVE",
"212 674 OFFCURVE",
"284 674 CURVE SMOOTH",
"303 674 LINE",
"303 704 LINE",
"284 704 LINE SMOOTH",
"173 704 OFFCURVE",
"138 640 OFFCURVE",
"138 543 CURVE SMOOTH",
"138 499 LINE",
"52 499 LINE",
"52 467 LINE",
"138 467 LINE",
"138 0 LINE"
);
}
);
};
layerId = "76C6DC51-463D-4A0C-B694-3EB424048C5D";
paths = (
{
closed = 1;
nodes = (
"173 0 LINE",
"173 467 LINE",
"292 467 LINE",
"292 499 LINE",
"173 499 LINE",
"173 543 LINE SMOOTH",
"173 635 OFFCURVE",
"205 672 OFFCURVE",
"284 672 CURVE SMOOTH",
"303 672 LINE",
"303 704 LINE",
"284 704 LINE SMOOTH",
"184 704 OFFCURVE",
"138 653 OFFCURVE",
"138 543 CURVE SMOOTH",
"138 499 LINE",
"52 499 LINE",
"52 467 LINE",
"138 467 LINE",
"138 0 LINE"
);
}
);
width = 345;
},
{
anchors = (
{
name = bottom;
position = "{175, 0}";
},
{
name = top;
position = "{175, 470}";
}
);
layerId = "BB270C98-E610-4AC3-8B1B-9C54875E1C66";
paths = (
{
closed = 1;
nodes = (
"198 0 LINE",
"198 435 LINE",
"318 435 LINE",
"318 499 LINE",
"198 499 LINE",
"198 538 LINE SMOOTH",
"198 609 OFFCURVE",
"227 642 OFFCURVE",
"291 642 CURVE SMOOTH",
"329 642 LINE",
"329 704 LINE",
"291 704 LINE SMOOTH",
"183 704 OFFCURVE",
"126 647 OFFCURVE",
"126 538 CURVE SMOOTH",
"126 499 LINE",
"40 499 LINE",
"40 435 LINE",
"126 435 LINE",
"126 0 LINE"
);
}
);
width = 359;
}
);
note = f;
unicode = 0066;
},
{
glyphname = g;
lastChange = "2018-05-28 16:22:04 +0000";
layers = (
{
anchors = (
{
name = bottom;
position = "{302, 0}";
},
{
name = top;
position = "{302, 499}";
}
);
background = {
paths = (
{
closed = 1;
nodes = (
"344 -203 LINE SMOOTH",
"470 -203 OFFCURVE",
"550 -119 OFFCURVE",
"550 8 CURVE SMOOTH",
"550 499 LINE",
"414 499 LINE",
"414 455 LINE",
"390 486 OFFCURVE",
"347 507 OFFCURVE",
"305 507 CURVE SMOOTH",
"249 507 LINE SMOOTH",
"122 507 OFFCURVE",
"40 420 OFFCURVE",
"40 290 CURVE SMOOTH",
"40 200 LINE SMOOTH",
"40 81 OFFCURVE",
"120 2 OFFCURVE",
"241 2 CURVE SMOOTH",
"295 2 LINE SMOOTH",
"343 2 OFFCURVE",
"388 32 OFFCURVE",
"414 66 CURVE",
"414 8 LINE SMOOTH",
"414 -48 OFFCURVE",
"388 -85 OFFCURVE",
"344 -85 CURVE SMOOTH",
"254 -85 LINE SMOOTH",
"225 -85 OFFCURVE",
"199 -70 OFFCURVE",
"196 -38 CURVE",
"62 -38 LINE",
"70 -141 OFFCURVE",
"149 -203 OFFCURVE",
"254 -203 CURVE SMOOTH"
);
},
{
closed = 1;
nodes = (
"207 118 OFFCURVE",
"176 152 OFFCURVE",
"176 204 CURVE SMOOTH",
"176 290 LINE SMOOTH",
"176 349 OFFCURVE",
"211 389 OFFCURVE",
"264 389 CURVE SMOOTH",
"328 389 LINE SMOOTH",
"372 389 OFFCURVE",
"406 351 OFFCURVE",
"414 294 CURVE",
"414 235 LINE",
"408 165 OFFCURVE",
"368 118 OFFCURVE",
"314 118 CURVE SMOOTH",
"254 118 LINE SMOOTH"
);
}
);
};
layerId = "EA06CE92-4115-4482-8874-2441C279E756";
paths = (
{
closed = 1;
nodes = (
"342 -203 LINE SMOOTH",
"468 -203 OFFCURVE",
"548 -119 OFFCURVE",
"548 8 CURVE SMOOTH",
"548 499 LINE",
"422 499 LINE",
"422 447 LINE",
"395 483 OFFCURVE",
"347 507 OFFCURVE",
"303 507 CURVE SMOOTH",
"247 507 LINE SMOOTH",
"120 507 OFFCURVE",
"38 420 OFFCURVE",
"38 290 CURVE SMOOTH",
"38 200 LINE SMOOTH",
"38 81 OFFCURVE",
"118 2 OFFCURVE",
"239 2 CURVE SMOOTH",
"293 2 LINE SMOOTH",
"334 2 OFFCURVE",
"381 24 OFFCURVE",
"412 58 CURVE",
"412 8 LINE SMOOTH",
"412 -49 OFFCURVE",
"384 -87 OFFCURVE",
"342 -87 CURVE SMOOTH",
"252 -87 LINE SMOOTH",
"220 -87 OFFCURVE",
"197 -67 OFFCURVE",
"194 -38 CURVE",
"60 -38 LINE",
"68 -141 OFFCURVE",
"147 -203 OFFCURVE",
"252 -203 CURVE SMOOTH"
);
},
{
closed = 1;
nodes = (
"205 118 OFFCURVE",
"174 152 OFFCURVE",
"174 204 CURVE SMOOTH",
"174 290 LINE SMOOTH",
"174 349 OFFCURVE",
"209 389 OFFCURVE",
"262 389 CURVE SMOOTH",
"326 389 LINE SMOOTH",
"370 389 OFFCURVE",
"404 351 OFFCURVE",
"412 294 CURVE",
"412 235 LINE",
"406 165 OFFCURVE",
"366 118 OFFCURVE",
"312 118 CURVE SMOOTH",
"252 118 LINE SMOOTH"
);
}
);
width = 606;
},
{
anchors = (
{
name = bottom;
position = "{279, 0}";
},
{
name = top;
position = "{279, 499}";
}
);
background = {
paths = (
{
closed = 1;
nodes = (
"313 -203 LINE SMOOTH",
"414 -203 OFFCURVE",
"474 -137 OFFCURVE",
"474 -26 CURVE SMOOTH",
"474 499 LINE",
"439 499 LINE",
"439 433 LINE",
"412 477 OFFCURVE",
"361 507 OFFCURVE",
"313 507 CURVE SMOOTH",
"231 507 LINE SMOOTH",
"132 507 OFFCURVE",
"66 429 OFFCURVE",
"66 311 CURVE SMOOTH",
"66 187 LINE SMOOTH",
"66 76 OFFCURVE",
"129 2 OFFCURVE",
"223 2 CURVE SMOOTH",
"297 2 LINE SMOOTH",
"352 2 OFFCURVE",
"409 39 OFFCURVE",
"439 95 CURVE",
"439 -26 LINE SMOOTH",
"439 -117 OFFCURVE",
"392 -171 OFFCURVE",
"313 -171 CURVE SMOOTH",
"229 -171 LINE SMOOTH",
"173 -171 OFFCURVE",
"133 -141 OFFCURVE",
"128 -96 CURVE",
"93 -96 LINE",
"99 -160 OFFCURVE",
"152 -203 OFFCURVE",
"229 -203 CURVE SMOOTH"
);
},
{
closed = 1;
nodes = (
"373 32 OFFCURVE"
);
},
{
closed = 1;
nodes = (
"150 34 OFFCURVE",
"101 95 OFFCURVE",
"101 187 CURVE SMOOTH",
"101 311 LINE SMOOTH",
"101 409 OFFCURVE",
"153 475 OFFCURVE",
"232 475 CURVE SMOOTH",
"311 475 LINE SMOOTH",
"371 475 OFFCURVE",
"422 430 OFFCURVE",
"439 362 CURVE",
"439 183 LINE",
"425 94 OFFCURVE",
"368 34 OFFCURVE",
"297 34 CURVE SMOOTH",
"223 34 LINE SMOOTH"
);
}
);
};
layerId = "76C6DC51-463D-4A0C-B694-3EB424048C5D";
paths = (
{
closed = 1;
nodes = (
"313 -203 LINE SMOOTH",
"414 -203 OFFCURVE",
"474 -137 OFFCURVE",
"474 -26 CURVE SMOOTH",
"474 499 LINE",
"439 499 LINE",
"439 433 LINE",
"412 477 OFFCURVE",
"361 507 OFFCURVE",
"313 507 CURVE SMOOTH",
"231 507 LINE SMOOTH",
"132 507 OFFCURVE",
"66 429 OFFCURVE",
"66 311 CURVE SMOOTH",
"66 185 LINE SMOOTH",
"66 74 OFFCURVE",
"129 0 OFFCURVE",
"223 0 CURVE SMOOTH",
"297 0 LINE SMOOTH",
"352 0 OFFCURVE",
"409 37 OFFCURVE",
"439 93 CURVE",
"439 -26 LINE SMOOTH",
"439 -117 OFFCURVE",
"392 -171 OFFCURVE",
"313 -171 CURVE SMOOTH",
"229 -171 LINE SMOOTH",
"173 -171 OFFCURVE",
"133 -141 OFFCURVE",
"128 -96 CURVE",
"93 -96 LINE",
"99 -160 OFFCURVE",
"152 -203 OFFCURVE",
"229 -203 CURVE SMOOTH"
);
},
{
closed = 1;
nodes = (
"150 32 OFFCURVE",
"101 93 OFFCURVE",
"101 185 CURVE SMOOTH",
"101 311 LINE SMOOTH",
"101 409 OFFCURVE",
"153 475 OFFCURVE",
"232 475 CURVE SMOOTH",
"311 475 LINE SMOOTH",
"371 475 OFFCURVE",
"422 430 OFFCURVE",
"439 362 CURVE",
"439 181 LINE",
"425 92 OFFCURVE",
"368 32 OFFCURVE",
"297 32 CURVE SMOOTH",
"223 32 LINE SMOOTH"
);
}
);
width = 560;
},
{
anchors = (
{
name = bottom;
position = "{288, 0}";
},
{
name = top;
position = "{288, 499}";
}
);
layerId = "BB270C98-E610-4AC3-8B1B-9C54875E1C66";
paths = (
{
closed = 1;
nodes = (
"321 -203 LINE SMOOTH",
"435 -203 OFFCURVE",
"502 -131 OFFCURVE",
"502 -10 CURVE SMOOTH",
"502 499 LINE",
"432 499 LINE",
"432 443 LINE",
"407 480 OFFCURVE",
"356 507 OFFCURVE",
"313 507 CURVE SMOOTH",
"243 507 LINE SMOOTH",
"131 507 OFFCURVE",
"56 427 OFFCURVE",
"56 308 CURVE SMOOTH",
"56 191 LINE SMOOTH",
"56 76 OFFCURVE",
"128 0 OFFCURVE",
"231 0 CURVE SMOOTH",
"304 0 LINE SMOOTH",
"347 0 OFFCURVE",
"400 27 OFFCURVE",
"430 67 CURVE",
"430 -10 LINE SMOOTH",
"430 -92 OFFCURVE",
"390 -141 OFFCURVE",
"321 -141 CURVE SMOOTH",
"238 -141 LINE SMOOTH",
"192 -141 OFFCURVE",
"158 -114 OFFCURVE",
"153 -74 CURVE",
"81 -74 LINE",
"87 -151 OFFCURVE",
"150 -203 OFFCURVE",
"238 -203 CURVE SMOOTH"
);
},
{
closed = 1;
nodes = (
"173 64 OFFCURVE",
"128 115 OFFCURVE",
"128 191 CURVE SMOOTH",
"128 308 LINE SMOOTH",
"128 389 OFFCURVE",
"175 443 OFFCURVE",
"245 443 CURVE SMOOTH",
"313 443 LINE SMOOTH",
"374 443 OFFCURVE",
"424 395 OFFCURVE",
"430 327 CURVE",
"430 204 LINE",
"424 123 OFFCURVE",
"371 64 OFFCURVE",
"304 64 CURVE SMOOTH",
"233 64 LINE SMOOTH"
);
}
);
width = 578;
}
);
leftKerningGroup = o;
note = g;
rightKerningGroup = u;
unicode = 0067;
},
{
glyphname = h;
lastChange = "2018-05-28 16:22:04 +0000";
layers = (
{
anchors = (
{
name = bottom;
position = "{288, 0}";
},
{
name = center;
position = "{284, 250}";
},
{
name = top;
position = "{284, 670}";
}
);
background = {
paths = (
{
closed = 1;
nodes = (
"416 0 LINE",
"552 0 LINE",
"552 325 LINE SMOOTH",
"552 434 OFFCURVE",
"481 507 OFFCURVE",
"375 507 CURVE SMOOTH",
"313 507 LINE SMOOTH",
"268 507 OFFCURVE",
"217 478 OFFCURVE",
"186 435 CURVE",
"186 499 LINE",
"60 499 LINE",
"60 0 LINE",
"196 0 LINE",
"196 297 LINE",
"208 352 OFFCURVE",
"248 389 OFFCURVE",
"295 389 CURVE SMOOTH",
"357 389 LINE SMOOTH",
"392 389 OFFCURVE",
"416 361 OFFCURVE",
"416 320 CURVE SMOOTH"
);
}
);
};
layerId = "EA06CE92-4115-4482-8874-2441C279E756";
paths = (
{
closed = 1;
nodes = (
"194 0 LINE",
"194 297 LINE",
"206 352 OFFCURVE",
"246 389 OFFCURVE",
"293 389 CURVE SMOOTH",
"355 389 LINE SMOOTH",
"390 389 OFFCURVE",
"414 361 OFFCURVE",
"414 320 CURVE SMOOTH",
"414 0 LINE",
"550 0 LINE",
"550 325 LINE SMOOTH",
"550 434 OFFCURVE",
"479 507 OFFCURVE",
"373 507 CURVE SMOOTH",
"311 507 LINE SMOOTH",
"272 507 OFFCURVE",
"225 483 OFFCURVE",
"194 447 CURVE",
"194 700 LINE",
"58 700 LINE",
"58 0 LINE"
);
}
);
width = 602;
},
{
anchors = (
{
name = bottom;
position = "{297, 0}";
},
{
name = center;
position = "{293, 250}";
},
{
name = top;
position = "{293, 670}";
}
);
background = {
paths = (
{
closed = 1;
nodes = (
"123 0 LINE",
"123 327 LINE",
"141 408 OFFCURVE",
"211 475 OFFCURVE",
"272 475 CURVE SMOOTH",
"339 475 LINE SMOOTH",
"401 475 OFFCURVE",
"443 423 OFFCURVE",
"443 346 CURVE SMOOTH",
"443 0 LINE",
"478 0 LINE",
"478 344 LINE SMOOTH",
"478 442 OFFCURVE",
"423 507 OFFCURVE",
"341 507 CURVE SMOOTH",
"270 507 LINE SMOOTH",
"214 507 OFFCURVE",
"156 466 OFFCURVE",
"123 405 CURVE",
"123 499 LINE",
"88 499 LINE",
"88 0 LINE"
);
}
);
};
layerId = "76C6DC51-463D-4A0C-B694-3EB424048C5D";
paths = (
{
closed = 1;
nodes = (
"123 0 LINE",
"123 327 LINE",
"141 408 OFFCURVE",
"211 475 OFFCURVE",
"272 475 CURVE SMOOTH",
"339 475 LINE SMOOTH",
"401 475 OFFCURVE",
"443 423 OFFCURVE",
"443 346 CURVE SMOOTH",
"443 0 LINE",
"478 0 LINE",
"478 344 LINE SMOOTH",
"478 442 OFFCURVE",
"423 507 OFFCURVE",
"341 507 CURVE SMOOTH",
"270 507 LINE SMOOTH",
"214 507 OFFCURVE",
"156 466 OFFCURVE",
"123 405 CURVE",
"123 700 LINE",
"88 700 LINE",
"88 0 LINE"
);
}
);
width = 560;
},
{
anchors = (
{
name = bottom;
position = "{294, 0}";
},
{
name = center;
position = "{290, 250}";
},
{
name = top;
position = "{290, 670}";
}
);
layerId = "BB270C98-E610-4AC3-8B1B-9C54875E1C66";
paths = (
{
closed = 1;
nodes = (
"148 0 LINE",
"148 313 LINE",
"161 391 OFFCURVE",
"220 443 OFFCURVE",
"282 443 CURVE SMOOTH",
"348 443 LINE SMOOTH",
"398 443 OFFCURVE",
"432 401 OFFCURVE",
"432 339 CURVE SMOOTH",
"432 0 LINE",
"504 0 LINE",
"504 337 LINE SMOOTH",
"504 439 OFFCURVE",
"442 507 OFFCURVE",
"350 507 CURVE SMOOTH",
"280 507 LINE SMOOTH",
"231 507 OFFCURVE",
"179 476 OFFCURVE",
"148 430 CURVE",
"148 700 LINE",
"76 700 LINE",
"76 0 LINE"
);
}
);
width = 574;
}
);
leftMetricsKey = n;
note = h;
rightKerningGroup = n;
rightMetricsKey = n;
unicode = 0068;
},
{
glyphname = i;
lastChange = "2018-05-28 16:22:04 +0000";
layers = (
{
anchors = (
{
name = bottom;
position = "{144, 0}";
},
{
name = ogonek;
position = "{180, 0}";
}
);
background = {
paths = (
{
closed = 1;
nodes = (
"78 -28 LINE",
"214 -28 LINE",
"214 527 LINE",
"78 527 LINE"
);
},
{
closed = 1;
nodes = (
"60 580 OFFCURVE",
"97 546 OFFCURVE",
"146 546 CURVE SMOOTH",
"195 546 OFFCURVE",
"232 580 OFFCURVE",
"232 628 CURVE SMOOTH",
"232 676 OFFCURVE",
"195 710 OFFCURVE",
"146 710 CURVE SMOOTH",
"97 710 OFFCURVE",
"60 676 OFFCURVE",
"60 628 CURVE SMOOTH"
);
}
);
};
layerId = "EA06CE92-4115-4482-8874-2441C279E756";
paths = (
{
closed = 1;
nodes = (
"212 0 LINE",
"212 499 LINE",
"76 499 LINE",
"76 0 LINE"
);
},
{
closed = 1;
nodes = (
"196 546 OFFCURVE",
"230 579 OFFCURVE",
"230 628 CURVE SMOOTH",
"230 677 OFFCURVE",
"196 710 OFFCURVE",
"144 710 CURVE SMOOTH",
"92 710 OFFCURVE",
"58 677 OFFCURVE",
"58 628 CURVE SMOOTH",
"58 579 OFFCURVE",
"92 546 OFFCURVE",
"144 546 CURVE SMOOTH"
);
}
);
width = 288;
},
{
anchors = (
{
name = bottom;
position = "{123, 0}";
},
{
name = ogonek;
position = "{159, 0}";
}
);
background = {
paths = (
{
closed = 1;
nodes = (
"140 0 LINE",
"140 499 LINE",
"106 499 LINE",
"106 0 LINE"
);
},
{
closed = 1;
nodes = (
"142 591 OFFCURVE",
"158 606 OFFCURVE",
"158 628 CURVE SMOOTH",
"158 650 OFFCURVE",
"142 665 OFFCURVE",
"123 665 CURVE SMOOTH",
"103 665 OFFCURVE",
"88 650 OFFCURVE",
"88 628 CURVE SMOOTH",
"88 606 OFFCURVE",
"103 591 OFFCURVE",
"123 591 CURVE SMOOTH"
);
}
);
};
layerId = "76C6DC51-463D-4A0C-B694-3EB424048C5D";
paths = (
{
closed = 1;
nodes = (
"140 0 LINE",
"140 499 LINE",
"105 499 LINE",
"105 0 LINE"
);
},
{
closed = 1;
nodes = (
"144 593 OFFCURVE",
"158 607 OFFCURVE",
"158 628 CURVE SMOOTH",
"158 649 OFFCURVE",
"144 663 OFFCURVE",
"123 663 CURVE SMOOTH",
"102 663 OFFCURVE",
"88 649 OFFCURVE",
"88 628 CURVE SMOOTH",
"88 607 OFFCURVE",
"102 593 OFFCURVE",
"123 593 CURVE SMOOTH"
);
}
);
width = 246;
},
{
anchors = (
{
name = bottom;
position = "{130, 0}";
},
{
name = ogonek;
position = "{166, 0}";
}
);
layerId = "BB270C98-E610-4AC3-8B1B-9C54875E1C66";
paths = (
{
closed = 1;
nodes = (
"166 0 LINE",
"166 499 LINE",
"94 499 LINE",
"94 0 LINE"
);
},
{
closed = 1;
nodes = (
"162 574 OFFCURVE",
"184 596 OFFCURVE",
"184 628 CURVE SMOOTH",
"184 660 OFFCURVE",
"162 682 OFFCURVE",
"130 682 CURVE SMOOTH",
"98 682 OFFCURVE",
"76 660 OFFCURVE",
"76 628 CURVE SMOOTH",
"76 596 OFFCURVE",
"98 574 OFFCURVE",
"130 574 CURVE SMOOTH"
);
}
);
width = 260;
}
);
note = i;
rightMetricsKey = "=|";
unicode = 0069;
},
{
glyphname = j;
lastChange = "2018-05-28 16:22:04 +0000";
layers = (
{
background = {
paths = (
{
closed = 1;
nodes = (
"90 -56 OFFCURVE",
"71 -83 OFFCURVE",
"25 -83 CURVE SMOOTH",
"-42 -83 LINE",
"-42 -199 LINE",
"25 -199 LINE SMOOTH",
"169 -199 OFFCURVE",
"226 -137 OFFCURVE",
"226 18 CURVE SMOOTH",
"226 499 LINE",
"90 499 LINE",
"90 13 LINE SMOOTH"
);
},
{
closed = 1;
nodes = (
"72 579 OFFCURVE",
"106 546 OFFCURVE",
"158 546 CURVE SMOOTH",
"210 546 OFFCURVE",
"244 579 OFFCURVE",
"244 628 CURVE SMOOTH",
"244 677 OFFCURVE",
"210 710 OFFCURVE",
"158 710 CURVE SMOOTH",
"106 710 OFFCURVE",
"72 677 OFFCURVE",
"72 628 CURVE SMOOTH"
);
}
);
};
layerId = "EA06CE92-4115-4482-8874-2441C279E756";
paths = (
{
closed = 1;
nodes = (
"88 -53 OFFCURVE",
"66 -83 OFFCURVE",
"18 -83 CURVE SMOOTH",
"-44 -83 LINE",
"-44 -199 LINE",
"18 -199 LINE SMOOTH",
"159 -199 OFFCURVE",
"224 -131 OFFCURVE",
"224 18 CURVE SMOOTH",
"224 499 LINE",
"88 499 LINE",
"88 13 LINE SMOOTH"
);
},
{
closed = 1;
nodes = (
"70 579 OFFCURVE",
"104 546 OFFCURVE",
"156 546 CURVE SMOOTH",
"208 546 OFFCURVE",
"242 579 OFFCURVE",
"242 628 CURVE SMOOTH",
"242 677 OFFCURVE",
"208 710 OFFCURVE",
"156 710 CURVE SMOOTH",
"104 710 OFFCURVE",
"70 677 OFFCURVE",
"70 628 CURVE SMOOTH"
);
}
);
width = 300;
},
{
background = {
paths = (
{
closed = 1;
nodes = (
"111 -139 OFFCURVE",
"72 -166 OFFCURVE",
"-1 -166 CURVE SMOOTH",
"-20 -166 LINE",
"-20 -199 LINE",
"-1 -199 LINE SMOOTH",
"121 -199 OFFCURVE",
"146 -136 OFFCURVE",
"146 -27 CURVE SMOOTH",
"146 499 LINE",
"111 499 LINE",
"111 -32 LINE SMOOTH"
);
},
{
closed = 1;
nodes = (
"96 606 OFFCURVE",
"109 591 OFFCURVE",
"129 591 CURVE SMOOTH",
"149 591 OFFCURVE",
"164 607 OFFCURVE",
"164 628 CURVE SMOOTH",
"164 649 OFFCURVE",
"149 665 OFFCURVE",
"129 665 CURVE SMOOTH",
"109 665 OFFCURVE",
"96 650 OFFCURVE",
"96 628 CURVE SMOOTH"
);
}
);
};
layerId = "76C6DC51-463D-4A0C-B694-3EB424048C5D";
paths = (
{
closed = 1;
nodes = (
"111 -132 OFFCURVE",
"82 -167 OFFCURVE",
"-1 -167 CURVE SMOOTH",
"-20 -167 LINE",
"-20 -199 LINE",
"-1 -199 LINE SMOOTH",
"108 -199 OFFCURVE",
"146 -155 OFFCURVE",
"146 -27 CURVE SMOOTH",
"146 499 LINE",
"111 499 LINE",
"111 -32 LINE SMOOTH"
);
},
{
closed = 1;
nodes = (
"150 593 OFFCURVE",
"164 607 OFFCURVE",
"164 628 CURVE SMOOTH",
"164 649 OFFCURVE",
"150 663 OFFCURVE",
"129 663 CURVE SMOOTH",
"108 663 OFFCURVE",
"94 649 OFFCURVE",
"94 628 CURVE SMOOTH",
"94 607 OFFCURVE",
"108 593 OFFCURVE",
"129 593 CURVE SMOOTH"
);
}
);
width = 252;
},
{
layerId = "BB270C98-E610-4AC3-8B1B-9C54875E1C66";
paths = (
{
closed = 1;
nodes = (
"100 -101 OFFCURVE",
"72 -135 OFFCURVE",
"3 -135 CURVE SMOOTH",
"-32 -135 LINE",
"-32 -199 LINE",
"3 -199 LINE SMOOTH",
"124 -199 OFFCURVE",
"172 -145 OFFCURVE",
"172 -10 CURVE SMOOTH",
"172 499 LINE",
"100 499 LINE",
"100 -15 LINE SMOOTH"
);
},
{
closed = 1;
nodes = (
"83 596 OFFCURVE",
"104 574 OFFCURVE",
"136 574 CURVE SMOOTH",
"168 574 OFFCURVE",
"190 596 OFFCURVE",
"190 628 CURVE SMOOTH",
"190 660 OFFCURVE",
"168 682 OFFCURVE",
"136 682 CURVE SMOOTH",
"104 682 OFFCURVE",
"83 660 OFFCURVE",
"83 628 CURVE SMOOTH"
);
}
);
width = 266;
}
);
note = j;
unicode = 006A;
},
{
glyphname = k;
lastChange = "2018-05-28 16:22:04 +0000";
layers = (
{
anchors = (
{
name = bottom;
position = "{288, 0}";
},
{
name = top;
position = "{288, 499}";
}
);
background = {
paths = (
{
closed = 1;
nodes = (
"196 0 LINE",
"196 152 LINE",
"545 499 LINE",
"387 499 LINE",
"196 307 LINE",
"196 700 LINE",
"60 700 LINE",
"60 0 LINE"
);
},
{
closed = 1;
nodes = (
"558 0 LINE",
"299 340 LINE",
"213 243 LINE",
"400 0 LINE"
);
}
);
};
layerId = "EA06CE92-4115-4482-8874-2441C279E756";
paths = (
{
closed = 1;
nodes = (
"194 0 LINE",
"194 146 LINE",
"549 499 LINE",
"391 499 LINE",
"194 302 LINE",
"194 700 LINE",
"58 700 LINE",
"58 0 LINE"
);
},
{
closed = 1;
nodes = (
"557 0 LINE",
"315 313 LINE",
"230 216 LINE",
"401 0 LINE"
);
}
);
width = 555;
},
{
anchors = (
{
name = bottom;
position = "{267, 0}";
},
{
name = top;
position = "{267, 499}";
}
);
background = {
paths = (
{
closed = 1;
nodes = (
"123 0 LINE",
"123 180 LINE",
"445 499 LINE",
"400 499 LINE",
"123 227 LINE",
"123 700 LINE",
"88 700 LINE",
"88 0 LINE"
);
},
{
closed = 1;
nodes = (
"463 0 LINE",
"225 284 LINE",
"197 264 LINE",
"419 0 LINE"
);
}
);
};
layerId = "76C6DC51-463D-4A0C-B694-3EB424048C5D";
paths = (
{
closed = 1;
nodes = (
"123 0 LINE",
"123 180 LINE",
"445 499 LINE",
"400 499 LINE",
"123 227 LINE",
"123 700 LINE",
"88 700 LINE",
"88 0 LINE"
);
},
{
closed = 1;
nodes = (
"463 0 LINE",
"226 284 LINE",
"197 264 LINE",
"419 0 LINE"
);
}
);
width = 487;
},
{
anchors = (
{
name = bottom;
position = "{274, 0}";
},
{
name = top;
position = "{274, 499}";
}
);
layerId = "BB270C98-E610-4AC3-8B1B-9C54875E1C66";
paths = (
{
closed = 1;
nodes = (
"148 0 LINE",
"148 167 LINE",
"483 499 LINE",
"395 499 LINE",
"148 255 LINE",
"148 700 LINE",
"76 700 LINE",
"76 0 LINE"
);
},
{
closed = 1;
nodes = (
"501 0 LINE",
"258 295 LINE",
"209 246 LINE",
"415 0 LINE"
);
}
);
width = 513;
}
);
note = k;
rightKerningGroup = k;
unicode = 006B;
},
{
glyphname = l;
lastChange = "2018-05-28 16:22:04 +0000";
layers = (
{
anchors = (
{
name = bottom;
position = "{171, 0}";
},
{
name = center;
position = "{119, 235}";
},
{
name = top;
position = "{121, 670}";
},
{
name = topright;
position = "{207, 470}";
}
);
background = {
paths = (
{
closed = 1;
nodes = (
"60 44 OFFCURVE",
"109 0 OFFCURVE",
"230 0 CURVE SMOOTH",
"296 0 LINE",
"296 118 LINE",
"240 118 LINE SMOOTH",
"209 118 OFFCURVE",
"196 131 OFFCURVE",
"196 164 CURVE SMOOTH",
"196 700 LINE",
"60 700 LINE",
"60 154 LINE SMOOTH"
);
}
);
};
layerId = "EA06CE92-4115-4482-8874-2441C279E756";
paths = (
{
closed = 1;
nodes = (
"294 0 LINE",
"294 116 LINE",
"238 116 LINE SMOOTH",
"208 116 OFFCURVE",
"194 130 OFFCURVE",
"194 162 CURVE SMOOTH",
"194 700 LINE",
"58 700 LINE",
"58 154 LINE SMOOTH",
"58 48 OFFCURVE",
"111 0 OFFCURVE",
"228 0 CURVE SMOOTH"
);
}
);
width = 296;
},
{
anchors = (
{
name = bottom;
position = "{158, 0}";
},
{
name = center;
position = "{106, 235}";
},
{
name = top;
position = "{108, 670}";
},
{
name = topright;
position = "{194, 470}";
}
);
background = {
paths = (
{
closed = 1;
nodes = (
"88 22 OFFCURVE",
"131 0 OFFCURVE",
"207 0 CURVE SMOOTH",
"222 0 LINE",
"222 33 LINE",
"201 33 LINE SMOOTH",
"139 33 OFFCURVE",
"122 64 OFFCURVE",
"122 120 CURVE SMOOTH",
"122 700 LINE",
"88 700 LINE",
"88 125 LINE SMOOTH"
);
}
);
};
layerId = "76C6DC51-463D-4A0C-B694-3EB424048C5D";
paths = (
{
closed = 1;
nodes = (
"222 0 LINE",
"222 32 LINE",
"191 32 LINE SMOOTH",
"142 32 OFFCURVE",
"123 58 OFFCURVE",
"123 123 CURVE SMOOTH",
"123 700 LINE",
"88 700 LINE",
"88 123 LINE SMOOTH",
"88 35 OFFCURVE",
"117 0 OFFCURVE",
"191 0 CURVE SMOOTH"
);
}
);
width = 254;
},
{
anchors = (
{
name = bottom;
position = "{162, 0}";
},
{
name = center;
position = "{110, 235}";
},
{
name = top;
position = "{112, 670}";
},
{
name = topright;
position = "{198, 470}";
}
);
layerId = "BB270C98-E610-4AC3-8B1B-9C54875E1C66";
paths = (
{
closed = 1;
nodes = (
"248 0 LINE",
"248 64 LINE",
"214 64 LINE SMOOTH",
"167 64 OFFCURVE",
"148 85 OFFCURVE",
"148 136 CURVE SMOOTH",
"148 700 LINE",
"76 700 LINE",
"76 136 LINE SMOOTH",
"76 39 OFFCURVE",
"115 0 OFFCURVE",
"214 0 CURVE SMOOTH"
);
}
);
width = 268;
}
);
leftKerningGroup = l;
note = l;
rightKerningGroup = l;
unicode = 006C;
},
{
glyphname = m;
lastChange = "2018-05-28 16:22:04 +0000";
layers = (
{
anchors = (
{
name = bottom;
position = "{427, 0}";
},
{
name = top;
position = "{421, 499}";
}
);
background = {
paths = (
{
closed = 1;
nodes = (
"196 0 LINE",
"196 295 LINE",
"204 351 OFFCURVE",
"236 389 OFFCURVE",
"275 389 CURVE SMOOTH",
"314 389 LINE SMOOTH",
"342 389 OFFCURVE",
"361 364 OFFCURVE",
"361 327 CURVE SMOOTH",
"361 0 LINE",
"497 0 LINE",
"497 314 LINE",
"504 359 OFFCURVE",
"534 389 OFFCURVE",
"572 389 CURVE SMOOTH",
"615 389 LINE SMOOTH",
"643 389 OFFCURVE",
"662 365 OFFCURVE",
"662 328 CURVE SMOOTH",
"662 0 LINE",
"798 0 LINE",
"798 319 LINE SMOOTH",
"798 432 OFFCURVE",
"732 507 OFFCURVE",
"633 507 CURVE SMOOTH",
"580 507 LINE SMOOTH",
"514 507 OFFCURVE",
"450 455 OFFCURVE",
"421 376 CURVE",
"476 376 LINE",
"455 455 OFFCURVE",
"403 507 OFFCURVE",
"346 507 CURVE SMOOTH",
"295 507 LINE SMOOTH",
"257 507 OFFCURVE",
"214 482 OFFCURVE",
"186 445 CURVE",
"186 499 LINE",
"60 499 LINE",
"60 0 LINE"
);
}
);
};
layerId = "EA06CE92-4115-4482-8874-2441C279E756";
paths = (
{
closed = 1;
nodes = (
"194 0 LINE",
"194 295 LINE",
"202 351 OFFCURVE",
"234 389 OFFCURVE",
"273 389 CURVE SMOOTH",
"312 389 LINE SMOOTH",
"340 389 OFFCURVE",
"359 364 OFFCURVE",
"359 327 CURVE SMOOTH",
"359 0 LINE",
"495 0 LINE",
"495 314 LINE",
"502 359 OFFCURVE",
"532 389 OFFCURVE",
"570 389 CURVE SMOOTH",
"613 389 LINE SMOOTH",
"641 389 OFFCURVE",
"660 365 OFFCURVE",
"660 328 CURVE SMOOTH",
"660 0 LINE",
"796 0 LINE",
"796 319 LINE SMOOTH",
"796 432 OFFCURVE",
"731 507 OFFCURVE",
"626 507 CURVE SMOOTH",
"573 507 LINE SMOOTH",
"506 507 OFFCURVE",
"452 450 OFFCURVE",
"429 376 CURVE",
"474 376 LINE",
"463 455 OFFCURVE",
"408 507 OFFCURVE",
"344 507 CURVE SMOOTH",
"288 507 LINE SMOOTH",
"248 507 OFFCURVE",
"210 478 OFFCURVE",
"184 435 CURVE",
"184 499 LINE",
"58 499 LINE",
"58 0 LINE"
);
}
);
width = 848;
},
{
anchors = (
{
name = bottom;
position = "{419, 0}";
},
{
name = top;
position = "{413, 499}";
}
);
background = {
paths = (
{
closed = 1;
nodes = (
"312 475 LINE SMOOTH",
"365 475 OFFCURVE",
"401 426 OFFCURVE",
"401 353 CURVE SMOOTH",
"401 0 LINE",
"436 0 LINE",
"436 343 LINE",
"449 422 OFFCURVE",
"499 475 OFFCURVE",
"560 475 CURVE SMOOTH",
"625 475 LINE SMOOTH",
"678 475 OFFCURVE",
"714 430 OFFCURVE",
"714 362 CURVE SMOOTH",
"714 0 LINE",
"749 0 LINE",
"749 364 LINE SMOOTH",
"749 450 OFFCURVE",
"699 507 OFFCURVE",
"625 507 CURVE SMOOTH",
"560 507 LINE SMOOTH",
"501 507 OFFCURVE",
"447 467 OFFCURVE",
"423 408 CURVE",
"428 408 LINE",
"413 467 OFFCURVE",
"367 507 OFFCURVE",
"312 507 CURVE SMOOTH",
"248 507 LINE SMOOTH",
"202 507 OFFCURVE",
"148 474 OFFCURVE",
"123 409 CURVE",
"123 499 LINE",
"88 499 LINE",
"88 0 LINE",
"123 0 LINE",
"123 331 LINE",
"143 420 OFFCURVE",
"194 475 OFFCURVE",
"250 475 CURVE SMOOTH"
);
}
);
};
layerId = "76C6DC51-463D-4A0C-B694-3EB424048C5D";
paths = (
{
closed = 1;
nodes = (
"123 0 LINE",
"123 333 LINE",
"142 418 OFFCURVE",
"193 475 OFFCURVE",
"250 475 CURVE SMOOTH",
"312 475 LINE SMOOTH",
"365 475 OFFCURVE",
"401 426 OFFCURVE",
"401 353 CURVE SMOOTH",
"401 0 LINE",
"436 0 LINE",
"436 343 LINE",
"449 422 OFFCURVE",
"499 475 OFFCURVE",
"560 475 CURVE SMOOTH",
"625 475 LINE SMOOTH",
"678 475 OFFCURVE",
"714 430 OFFCURVE",
"714 362 CURVE SMOOTH",
"714 0 LINE",
"749 0 LINE",
"749 364 LINE SMOOTH",
"749 450 OFFCURVE",
"699 507 OFFCURVE",
"625 507 CURVE SMOOTH",
"560 507 LINE SMOOTH",
"502 507 OFFCURVE",
"450 467 OFFCURVE",
"424 408 CURVE",
"428 408 LINE",
"413 467 OFFCURVE",
"366 507 OFFCURVE",
"312 507 CURVE SMOOTH",
"248 507 LINE SMOOTH",
"197 507 OFFCURVE",
"147 469 OFFCURVE",
"123 411 CURVE",
"123 499 LINE",
"88 499 LINE",
"88 0 LINE"
);
}
);
width = 831;
},
{
anchors = (
{
name = bottom;
position = "{421, 0}";
},
{
name = top;
position = "{415, 499}";
}
);
layerId = "BB270C98-E610-4AC3-8B1B-9C54875E1C66";
paths = (
{
closed = 1;
nodes = (
"148 0 LINE",
"148 313 LINE",
"159 391 OFFCURVE",
"204 443 OFFCURVE",
"259 443 CURVE SMOOTH",
"316 443 LINE SMOOTH",
"359 443 OFFCURVE",
"385 406 OFFCURVE",
"385 343 CURVE SMOOTH",
"385 0 LINE",
"457 0 LINE",
"457 332 LINE",
"468 402 OFFCURVE",
"506 443 OFFCURVE",
"564 443 CURVE SMOOTH",
"621 443 LINE SMOOTH",
"664 443 OFFCURVE",
"694 408 OFFCURVE",
"694 349 CURVE SMOOTH",
"694 0 LINE",
"766 0 LINE",
"766 347 LINE SMOOTH",
"766 448 OFFCURVE",
"710 507 OFFCURVE",
"623 507 CURVE SMOOTH",
"562 507 LINE SMOOTH",
"505 507 OFFCURVE",
"452 473 OFFCURVE",
"423 396 CURVE",
"447 396 LINE",
"431 466 OFFCURVE",
"386 507 OFFCURVE",
"318 507 CURVE SMOOTH",
"259 507 LINE SMOOTH",
"215 507 OFFCURVE",
"173 477 OFFCURVE",
"146 427 CURVE",
"146 499 LINE",
"76 499 LINE",
"76 0 LINE"
);
}
);
width = 836;
}
);
leftKerningGroup = n;
leftMetricsKey = n;
note = m;
rightKerningGroup = n;
rightMetricsKey = n;
unicode = 006D;
},
{
glyphname = n;
lastChange = "2018-05-28 16:22:04 +0000";
layers = (
{
anchors = (
{
name = bottom;
position = "{303, 0}";
},
{
name = top;
position = "{307, 499}";
}
);
background = {
paths = (
{
closed = 1;
nodes = (
"414 0 LINE",
"550 0 LINE",
"550 320 LINE SMOOTH",
"550 432 OFFCURVE",
"479 507 OFFCURVE",
"373 507 CURVE SMOOTH",
"313 507 LINE SMOOTH",
"268 507 OFFCURVE",
"217 478 OFFCURVE",
"186 435 CURVE",
"186 499 LINE",
"60 499 LINE",
"60 0 LINE",
"196 0 LINE",
"196 297 LINE",
"208 351 OFFCURVE",
"252 387 OFFCURVE",
"305 387 CURVE SMOOTH",
"358 387 LINE SMOOTH",
"392 387 OFFCURVE",
"414 360 OFFCURVE",
"414 320 CURVE SMOOTH"
);
}
);
};
layerId = "EA06CE92-4115-4482-8874-2441C279E756";
paths = (
{
closed = 1;
nodes = (
"194 0 LINE",
"194 297 LINE",
"206 352 OFFCURVE",
"246 389 OFFCURVE",
"293 389 CURVE SMOOTH",
"353 389 LINE SMOOTH",
"388 389 OFFCURVE",
"412 361 OFFCURVE",
"412 320 CURVE SMOOTH",
"412 0 LINE",
"548 0 LINE",
"548 325 LINE SMOOTH",
"548 434 OFFCURVE",
"477 507 OFFCURVE",
"371 507 CURVE SMOOTH",
"311 507 LINE SMOOTH",
"266 507 OFFCURVE",
"215 478 OFFCURVE",
"184 435 CURVE",
"184 499 LINE",
"58 499 LINE",
"58 0 LINE"
);
}
);
width = 600;
},
{
anchors = (
{
name = bottom;
position = "{282, 0}";
},
{
name = top;
position = "{286, 499}";
}
);
background = {
paths = (
{
closed = 1;
nodes = (
"123 0 LINE",
"123 327 LINE",
"141 411 OFFCURVE",
"211 475 OFFCURVE",
"272 475 CURVE SMOOTH",
"337 475 LINE SMOOTH",
"399 475 OFFCURVE",
"441 423 OFFCURVE",
"441 346 CURVE SMOOTH",
"441 0 LINE",
"476 0 LINE",
"476 344 LINE SMOOTH",
"476 442 OFFCURVE",
"421 507 OFFCURVE",
"339 507 CURVE SMOOTH",
"270 507 LINE SMOOTH",
"214 507 OFFCURVE",
"156 466 OFFCURVE",
"123 405 CURVE",
"123 499 LINE",
"88 499 LINE",
"88 0 LINE"
);
}
);
};
layerId = "76C6DC51-463D-4A0C-B694-3EB424048C5D";
paths = (
{
closed = 1;
nodes = (
"123 0 LINE",
"123 327 LINE",
"141 408 OFFCURVE",
"211 475 OFFCURVE",
"272 475 CURVE SMOOTH",
"337 475 LINE SMOOTH",
"399 475 OFFCURVE",
"441 423 OFFCURVE",
"441 346 CURVE SMOOTH",
"441 0 LINE",
"476 0 LINE",
"476 344 LINE SMOOTH",
"476 442 OFFCURVE",
"421 507 OFFCURVE",
"339 507 CURVE SMOOTH",
"270 507 LINE SMOOTH",
"214 507 OFFCURVE",
"156 466 OFFCURVE",
"123 405 CURVE",
"123 499 LINE",
"88 499 LINE",
"88 0 LINE"
);
}
);
width = 558;
},
{
anchors = (
{
name = bottom;
position = "{289, 0}";
},
{
name = top;
position = "{293, 499}";
}
);
layerId = "BB270C98-E610-4AC3-8B1B-9C54875E1C66";
paths = (
{
closed = 1;
nodes = (
"148 0 LINE",
"148 311 LINE",
"161 389 OFFCURVE",
"220 443 OFFCURVE",
"282 443 CURVE SMOOTH",
"346 443 LINE SMOOTH",
"396 443 OFFCURVE",
"430 401 OFFCURVE",
"430 339 CURVE SMOOTH",
"430 0 LINE",
"502 0 LINE",
"502 337 LINE SMOOTH",
"502 439 OFFCURVE",
"440 507 OFFCURVE",
"348 507 CURVE SMOOTH",
"280 507 LINE SMOOTH",
"231 507 OFFCURVE",
"176 473 OFFCURVE",
"146 425 CURVE",
"146 499 LINE",
"76 499 LINE",
"76 0 LINE"
);
}
);
width = 572;
}
);
leftKerningGroup = n;
note = n;
rightKerningGroup = n;
unicode = 006E;
},
{
glyphname = o;
lastChange = "2018-05-28 16:22:04 +0000";
layers = (
{
anchors = (
{
name = bottom;
position = "{299, 0}";
},
{
name = center;
position = "{292, 235}";
},
{
name = ogonek;
position = "{403, 0}";
},
{
name = top;
position = "{299, 499}";
},
{
name = topright;
position = "{543, 470}";
}
);
background = {
paths = (
{
closed = 1;
nodes = (
"562 290 LINE SMOOTH",
"562 420 OFFCURVE",
"474 507 OFFCURVE",
"342 507 CURVE SMOOTH",
"260 507 LINE SMOOTH",
"128 507 OFFCURVE",
"40 420 OFFCURVE",
"40 290 CURVE SMOOTH",
"40 209 LINE SMOOTH",
"40 79 OFFCURVE",
"127 -8 OFFCURVE",
"258 -8 CURVE SMOOTH",
"338 -8 LINE SMOOTH",
"472 -8 OFFCURVE",
"562 79 OFFCURVE",
"562 209 CURVE SMOOTH"
);
},
{
closed = 1;
nodes = (
"176 290 LINE SMOOTH",
"176 348 OFFCURVE",
"210 387 OFFCURVE",
"260 387 CURVE SMOOTH",
"342 387 LINE SMOOTH",
"392 387 OFFCURVE",
"426 348 OFFCURVE",
"426 290 CURVE SMOOTH",
"426 209 LINE SMOOTH",
"426 151 OFFCURVE",
"391 112 OFFCURVE",
"338 112 CURVE SMOOTH",
"258 112 LINE SMOOTH",
"209 112 OFFCURVE",
"176 151 OFFCURVE",
"176 209 CURVE SMOOTH"
);
}
);
};
layerId = "EA06CE92-4115-4482-8874-2441C279E756";
paths = (
{
closed = 1;
nodes = (
"344 -8 LINE SMOOTH",
"475 -8 OFFCURVE",
"560 76 OFFCURVE",
"560 201 CURVE SMOOTH",
"560 298 LINE SMOOTH",
"560 423 OFFCURVE",
"474 507 OFFCURVE",
"346 507 CURVE SMOOTH",
"252 507 LINE SMOOTH",
"124 507 OFFCURVE",
"38 423 OFFCURVE",
"38 298 CURVE SMOOTH",
"38 201 LINE SMOOTH",
"38 76 OFFCURVE",
"125 -8 OFFCURVE",
"252 -8 CURVE SMOOTH"
);
},
{
closed = 1;
nodes = (
"206 110 OFFCURVE",
"174 146 OFFCURVE",
"174 201 CURVE SMOOTH",
"174 298 LINE SMOOTH",
"174 353 OFFCURVE",
"205 389 OFFCURVE",
"252 389 CURVE SMOOTH",
"346 389 LINE SMOOTH",
"393 389 OFFCURVE",
"424 353 OFFCURVE",
"424 298 CURVE SMOOTH",
"424 201 LINE SMOOTH",
"424 146 OFFCURVE",
"393 110 OFFCURVE",
"344 110 CURVE SMOOTH",
"252 110 LINE SMOOTH"
);
}
);
width = 598;
},
{
anchors = (
{
name = bottom;
position = "{278, 0}";
},
{
name = center;
position = "{271, 235}";
},
{
name = ogonek;
position = "{382, 0}";
},
{
name = top;
position = "{278, 499}";
},
{
name = topright;
position = "{522, 470}";
}
);
background = {
paths = (
{
closed = 1;
nodes = (
"313 -9 LINE SMOOTH",
"418 -9 OFFCURVE",
"488 62 OFFCURVE",
"488 168 CURVE SMOOTH",
"488 330 LINE SMOOTH",
"488 436 OFFCURVE",
"419 507 OFFCURVE",
"315 507 CURVE SMOOTH",
"240 507 LINE SMOOTH",
"137 507 OFFCURVE",
"68 436 OFFCURVE",
"68 330 CURVE SMOOTH",
"68 168 LINE SMOOTH",
"68 62 OFFCURVE",
"136 -9 OFFCURVE",
"237 -9 CURVE SMOOTH"
);
},
{
closed = 1;
nodes = (
"157 23 OFFCURVE",
"103 81 OFFCURVE",
"103 168 CURVE SMOOTH",
"103 330 LINE SMOOTH",
"103 417 OFFCURVE",
"158 475 OFFCURVE",
"240 475 CURVE SMOOTH",
"315 475 LINE SMOOTH",
"398 475 OFFCURVE",
"453 417 OFFCURVE",
"453 330 CURVE SMOOTH",
"453 168 LINE SMOOTH",
"453 81 OFFCURVE",
"397 23 OFFCURVE",
"313 23 CURVE SMOOTH",
"237 23 LINE SMOOTH"
);
}
);
};
layerId = "76C6DC51-463D-4A0C-B694-3EB424048C5D";
paths = (
{
closed = 1;
nodes = (
"313 -8 LINE SMOOTH",
"418 -8 OFFCURVE",
"488 63 OFFCURVE",
"488 169 CURVE SMOOTH",
"488 330 LINE SMOOTH",
"488 436 OFFCURVE",
"419 507 OFFCURVE",
"315 507 CURVE SMOOTH",
"240 507 LINE SMOOTH",
"137 507 OFFCURVE",
"68 436 OFFCURVE",
"68 330 CURVE SMOOTH",
"68 169 LINE SMOOTH",
"68 63 OFFCURVE",
"136 -8 OFFCURVE",
"237 -8 CURVE SMOOTH"
);
},
{
closed = 1;
nodes = (
"157 24 OFFCURVE",
"103 82 OFFCURVE",
"103 169 CURVE SMOOTH",
"103 330 LINE SMOOTH",
"103 417 OFFCURVE",
"158 475 OFFCURVE",
"240 475 CURVE SMOOTH",
"315 475 LINE SMOOTH",
"398 475 OFFCURVE",
"453 417 OFFCURVE",
"453 330 CURVE SMOOTH",
"453 169 LINE SMOOTH",
"453 82 OFFCURVE",
"397 24 OFFCURVE",
"313 24 CURVE SMOOTH",
"237 24 LINE SMOOTH"
);
}
);
width = 556;
},
{
anchors = (
{
name = bottom;
position = "{285, 0}";
},
{
name = center;
position = "{278, 235}";
},
{
name = ogonek;
position = "{389, 0}";
},
{
name = top;
position = "{285, 499}";
},
{
name = topright;
position = "{529, 470}";
}
);
layerId = "BB270C98-E610-4AC3-8B1B-9C54875E1C66";
paths = (
{
closed = 1;
nodes = (
"324 -8 LINE SMOOTH",
"439 -8 OFFCURVE",
"514 68 OFFCURVE",
"514 181 CURVE SMOOTH",
"514 318 LINE SMOOTH",
"514 431 OFFCURVE",
"439 507 OFFCURVE",
"326 507 CURVE SMOOTH",
"244 507 LINE SMOOTH",
"131 507 OFFCURVE",
"56 431 OFFCURVE",
"56 318 CURVE SMOOTH",
"56 181 LINE SMOOTH",
"56 68 OFFCURVE",
"129 -8 OFFCURVE",
"242 -8 CURVE SMOOTH"
);
},
{
closed = 1;
nodes = (
"172 56 OFFCURVE",
"128 106 OFFCURVE",
"128 181 CURVE SMOOTH",
"128 318 LINE SMOOTH",
"128 393 OFFCURVE",
"174 443 OFFCURVE",
"244 443 CURVE SMOOTH",
"326 443 LINE SMOOTH",
"396 443 OFFCURVE",
"442 393 OFFCURVE",
"442 318 CURVE SMOOTH",
"442 181 LINE SMOOTH",
"442 106 OFFCURVE",
"396 56 OFFCURVE",
"324 56 CURVE SMOOTH",
"242 56 LINE SMOOTH"
);
}
);
width = 570;
}
);
leftKerningGroup = o;
note = o;
rightKerningGroup = o;
rightMetricsKey = "=|";
unicode = 006F;
},
{
glyphname = p;
lastChange = "2018-05-29 16:47:43 +0000";
layers = (
{
anchors = (
{
name = bottom;
position = "{294, 0}";
},
{
name = top;
position = "{294, 470}";
}
);
background = {
paths = (
{
closed = 1;
nodes = (
"194 -199 LINE",
"194 46 LINE",
"224 14 OFFCURVE",
"270 -8 OFFCURVE",
"306 -8 CURVE SMOOTH",
"368 -8 LINE SMOOTH",
"489 -8 OFFCURVE",
"568 81 OFFCURVE",
"568 214 CURVE SMOOTH",
"568 301 LINE SMOOTH",
"568 425 OFFCURVE",
"487 507 OFFCURVE",
"365 507 CURVE SMOOTH",
"301 507 LINE SMOOTH",
"260 507 OFFCURVE",
"213 483 OFFCURVE",
"184 445 CURVE",
"184 499 LINE",
"58 499 LINE",
"58 -199 LINE"
);
},
{
closed = 1;
nodes = (
"239 110 OFFCURVE",
"202 149 OFFCURVE",
"194 207 CURVE",
"194 296 LINE",
"209 352 OFFCURVE",
"245 389 OFFCURVE",
"285 389 CURVE SMOOTH",
"351 389 LINE SMOOTH",
"400 389 OFFCURVE",
"432 350 OFFCURVE",
"432 291 CURVE SMOOTH",
"432 224 LINE SMOOTH",
"432 156 OFFCURVE",
"400 110 OFFCURVE",
"352 110 CURVE SMOOTH",
"286 110 LINE SMOOTH"
);
}
);
};
layerId = "EA06CE92-4115-4482-8874-2441C279E756";
paths = (
{
closed = 1;
nodes = (
"194 -199 LINE",
"194 46 LINE",
"224 14 OFFCURVE",
"270 -8 OFFCURVE",
"306 -8 CURVE SMOOTH",
"368 -8 LINE SMOOTH",
"489 -8 OFFCURVE",
"568 81 OFFCURVE",
"568 214 CURVE SMOOTH",
"568 301 LINE SMOOTH",
"568 425 OFFCURVE",
"487 507 OFFCURVE",
"365 507 CURVE SMOOTH",
"301 507 LINE SMOOTH",
"260 507 OFFCURVE",
"213 483 OFFCURVE",
"184 445 CURVE",
"184 499 LINE",
"58 499 LINE",
"58 -199 LINE"
);
},
{
closed = 1;
nodes = (
"239 110 OFFCURVE",
"202 149 OFFCURVE",
"194 207 CURVE",
"194 296 LINE",
"209 352 OFFCURVE",
"245 389 OFFCURVE",
"285 389 CURVE SMOOTH",
"351 389 LINE SMOOTH",
"400 389 OFFCURVE",
"432 350 OFFCURVE",
"432 291 CURVE SMOOTH",
"432 224 LINE SMOOTH",
"432 156 OFFCURVE",
"400 110 OFFCURVE",
"352 110 CURVE SMOOTH",
"286 110 LINE SMOOTH"
);
}
);
width = 606;
},
{
anchors = (
{
name = bottom;
position = "{273, 0}";
},
{
name = top;
position = "{273, 470}";
}
);
background = {
paths = (
{
closed = 1;
nodes = (
"123 -199 LINE",
"123 70 LINE",
"151 23 OFFCURVE",
"206 -8 OFFCURVE",
"260 -8 CURVE SMOOTH",
"330 -8 LINE SMOOTH",
"430 -8 OFFCURVE",
"496 70 OFFCURVE",
"496 188 CURVE SMOOTH",
"496 333 LINE SMOOTH",
"496 437 OFFCURVE",
"431 507 OFFCURVE",
"334 507 CURVE SMOOTH",
"259 507 LINE SMOOTH",
"208 507 OFFCURVE",
"153 472 OFFCURVE",
"122 415 CURVE",
"122 499 LINE",
"88 499 LINE",
"88 -199 LINE"
);
},
{
closed = 1;
nodes = (
"188 24 OFFCURVE",
"132 78 OFFCURVE",
"123 159 CURVE",
"123 341 LINE",
"142 418 OFFCURVE",
"196 475 OFFCURVE",
"259 475 CURVE SMOOTH",
"334 475 LINE SMOOTH",
"411 475 OFFCURVE",
"462 421 OFFCURVE",
"462 339 CURVE SMOOTH",
"462 182 LINE SMOOTH",
"462 87 OFFCURVE",
"409 24 OFFCURVE",
"330 24 CURVE SMOOTH",
"262 24 LINE SMOOTH"
);
}
);
};
layerId = "76C6DC51-463D-4A0C-B694-3EB424048C5D";
paths = (
{
closed = 1;
nodes = (
"123 -199 LINE",
"123 75 LINE",
"152 25 OFFCURVE",
"207 -8 OFFCURVE",
"260 -8 CURVE SMOOTH",
"330 -8 LINE SMOOTH",
"430 -8 OFFCURVE",
"496 70 OFFCURVE",
"496 185 CURVE SMOOTH",
"496 336 LINE SMOOTH",
"496 437 OFFCURVE",
"431 507 OFFCURVE",
"334 507 CURVE SMOOTH",
"259 507 LINE SMOOTH",
"207 507 OFFCURVE",
"152 472 OFFCURVE",
"122 415 CURVE",
"122 499 LINE",
"88 499 LINE",
"88 -199 LINE"
);
},
{
closed = 1;
nodes = (
"192 24 OFFCURVE",
"136 77 OFFCURVE",
"123 157 CURVE",
"123 341 LINE",
"143 421 OFFCURVE",
"197 475 OFFCURVE",
"259 475 CURVE SMOOTH",
"334 475 LINE SMOOTH",
"411 475 OFFCURVE",
"462 421 OFFCURVE",
"462 336 CURVE SMOOTH",
"462 185 LINE SMOOTH",
"462 87 OFFCURVE",
"409 24 OFFCURVE",
"330 24 CURVE SMOOTH",
"262 24 LINE SMOOTH"
);
}
);
width = 564;
},
{
anchors = (
{
name = bottom;
position = "{280, 0}";
},
{
name = top;
position = "{280, 470}";
}
);
layerId = "BB270C98-E610-4AC3-8B1B-9C54875E1C66";
paths = (
{
closed = 1;
nodes = (
"148 -199 LINE",
"148 55 LINE",
"174 17 OFFCURVE",
"225 -8 OFFCURVE",
"266 -8 CURVE SMOOTH",
"338 -8 LINE SMOOTH",
"449 -8 OFFCURVE",
"522 74 OFFCURVE",
"522 198 CURVE SMOOTH",
"522 321 LINE SMOOTH",
"522 433 OFFCURVE",
"450 507 OFFCURVE",
"343 507 CURVE SMOOTH",
"271 507 LINE SMOOTH",
"225 507 OFFCURVE",
"174 477 OFFCURVE",
"146 431 CURVE",
"146 499 LINE",
"76 499 LINE",
"76 -199 LINE"
);
},
{
closed = 1;
nodes = (
"208 56 OFFCURVE",
"157 106 OFFCURVE",
"148 177 CURVE",
"148 327 LINE",
"165 395 OFFCURVE",
"215 443 OFFCURVE",
"271 443 CURVE SMOOTH",
"341 443 LINE SMOOTH",
"406 443 OFFCURVE",
"450 394 OFFCURVE",
"450 321 CURVE SMOOTH",
"450 198 LINE SMOOTH",
"450 113 OFFCURVE",
"405 56 OFFCURVE",
"336 56 CURVE SMOOTH",
"270 56 LINE SMOOTH"
);
}
);
width = 578;
}
);
leftKerningGroup = n;
leftMetricsKey = n;
note = p;
rightKerningGroup = o;
rightMetricsKey = o;
unicode = 0070;
},
{
color = 0;
glyphname = q;
lastChange = "2018-05-29 16:48:08 +0000";
layers = (
{
anchors = (
{
name = bottom;
position = "{302, 0}";
},
{
name = top;
position = "{302, 470}";
}
);
background = {
paths = (
{
closed = 1;
nodes = (
"548 -203 LINE",
"548 499 LINE",
"422 499 LINE",
"422 448 LINE",
"395 483 OFFCURVE",
"346 507 OFFCURVE",
"317 507 CURVE SMOOTH",
"255 507 LINE SMOOTH",
"127 507 OFFCURVE",
"38 414 OFFCURVE",
"38 280 CURVE SMOOTH",
"38 211 LINE SMOOTH",
"38 81 OFFCURVE",
"123 -8 OFFCURVE",
"245 -8 CURVE SMOOTH",
"318 -8 LINE SMOOTH",
"349 -8 OFFCURVE",
"385 10 OFFCURVE",
"412 40 CURVE",
"412 -203 LINE"
);
},
{
closed = 1;
nodes = (
"204 112 OFFCURVE",
"174 150 OFFCURVE",
"174 211 CURVE SMOOTH",
"174 280 LINE SMOOTH",
"174 345 OFFCURVE",
"207 387 OFFCURVE",
"255 387 CURVE SMOOTH",
"327 387 LINE SMOOTH",
"371 387 OFFCURVE",
"407 350 OFFCURVE",
"412 298 CURVE",
"412 225 LINE",
"407 158 OFFCURVE",
"367 112 OFFCURVE",
"318 112 CURVE SMOOTH",
"247 112 LINE SMOOTH"
);
}
);
};
layerId = "EA06CE92-4115-4482-8874-2441C279E756";
paths = (
{
closed = 1;
nodes = (
"548 -199 LINE",
"548 499 LINE",
"422 499 LINE",
"422 445 LINE",
"397 482 OFFCURVE",
"355 507 OFFCURVE",
"317 507 CURVE SMOOTH",
"245 507 LINE SMOOTH",
"121 507 OFFCURVE",
"38 420 OFFCURVE",
"38 290 CURVE SMOOTH",
"38 201 LINE SMOOTH",
"38 76 OFFCURVE",
"119 -8 OFFCURVE",
"240 -8 CURVE SMOOTH",
"303 -8 LINE SMOOTH",
"340 -8 OFFCURVE",
"387 12 OFFCURVE",
"412 42 CURVE",
"412 -199 LINE"
);
},
{
closed = 1;
nodes = (
"203 110 OFFCURVE",
"174 150 OFFCURVE",
"174 211 CURVE SMOOTH",
"174 280 LINE SMOOTH",
"174 345 OFFCURVE",
"206 389 OFFCURVE",
"255 389 CURVE SMOOTH",
"327 389 LINE SMOOTH",
"373 389 OFFCURVE",
"407 353 OFFCURVE",
"412 298 CURVE",
"412 225 LINE",
"407 156 OFFCURVE",
"369 110 OFFCURVE",
"318 110 CURVE SMOOTH",
"247 110 LINE SMOOTH"
);
}
);
width = 606;
},
{
anchors = (
{
name = bottom;
position = "{281, 0}";
},
{
name = top;
position = "{281, 470}";
}
);
background = {
paths = (
{
closed = 1;
nodes = (
"476 -203 LINE",
"476 499 LINE",
"442 499 LINE",
"442 419 LINE",
"415 475 OFFCURVE",
"355 507 OFFCURVE",
"306 507 CURVE SMOOTH",
"234 507 LINE SMOOTH",
"135 507 OFFCURVE",
"68 435 OFFCURVE",
"68 325 CURVE SMOOTH",
"68 166 LINE SMOOTH",
"68 60 OFFCURVE",
"131 -8 OFFCURVE",
"224 -8 CURVE SMOOTH",
"297 -8 LINE SMOOTH",
"346 -8 OFFCURVE",
"411 28 OFFCURVE",
"441 82 CURVE",
"441 -203 LINE"
);
},
{
closed = 1;
nodes = (
"153 22 OFFCURVE",
"102 81 OFFCURVE",
"102 166 CURVE SMOOTH",
"102 325 LINE SMOOTH",
"102 415 OFFCURVE",
"155 477 OFFCURVE",
"234 477 CURVE SMOOTH",
"306 477 LINE SMOOTH",
"377 477 OFFCURVE",
"432 422 OFFCURVE",
"441 345 CURVE",
"441 178 LINE",
"434 89 OFFCURVE",
"375 22 OFFCURVE",
"297 22 CURVE SMOOTH",
"226 22 LINE SMOOTH"
);
}
);
};
layerId = "76C6DC51-463D-4A0C-B694-3EB424048C5D";
paths = (
{
closed = 1;
nodes = (
"476 -203 LINE",
"476 499 LINE",
"442 499 LINE",
"442 419 LINE",
"415 472 OFFCURVE",
"362 507 OFFCURVE",
"306 507 CURVE SMOOTH",
"234 507 LINE SMOOTH",
"134 507 OFFCURVE",
"68 434 OFFCURVE",
"68 325 CURVE SMOOTH",
"68 166 LINE SMOOTH",
"68 62 OFFCURVE",
"131 -8 OFFCURVE",
"225 -8 CURVE SMOOTH",
"297 -8 LINE SMOOTH",
"354 -8 OFFCURVE",
"412 32 OFFCURVE",
"441 92 CURVE",
"441 -203 LINE"
);
},
{
closed = 1;
nodes = (
"152 24 OFFCURVE",
"103 81 OFFCURVE",
"103 166 CURVE SMOOTH",
"103 325 LINE SMOOTH",
"103 415 OFFCURVE",
"155 475 OFFCURVE",
"234 475 CURVE SMOOTH",
"304 475 LINE SMOOTH",
"376 475 OFFCURVE",
"432 413 OFFCURVE",
"441 335 CURVE",
"441 171 LINE",
"423 83 OFFCURVE",
"364 24 OFFCURVE",
"295 24 CURVE SMOOTH",
"225 24 LINE SMOOTH"
);
}
);
width = 564;
},
{
anchors = (
{
name = bottom;
position = "{288, 0}";
},
{
name = top;
position = "{288, 470}";
}
);
layerId = "BB270C98-E610-4AC3-8B1B-9C54875E1C66";
paths = (
{
closed = 1;
nodes = (
"502 -203 LINE",
"502 499 LINE",
"432 499 LINE",
"432 443 LINE",
"406 482 OFFCURVE",
"356 507 OFFCURVE",
"313 507 CURVE SMOOTH",
"241 507 LINE SMOOTH",
"131 507 OFFCURVE",
"56 427 OFFCURVE",
"56 308 CURVE SMOOTH",
"56 181 LINE SMOOTH",
"56 66 OFFCURVE",
"127 -10 OFFCURVE",
"231 -10 CURVE SMOOTH",
"304 -10 LINE SMOOTH",
"347 -10 OFFCURVE",
"400 17 OFFCURVE",
"430 57 CURVE",
"430 -203 LINE"
);
},
{
closed = 1;
nodes = (
"171 54 OFFCURVE",
"128 105 OFFCURVE",
"128 181 CURVE SMOOTH",
"128 308 LINE SMOOTH",
"128 389 OFFCURVE",
"174 443 OFFCURVE",
"241 443 CURVE SMOOTH",
"313 443 LINE SMOOTH",
"374 443 OFFCURVE",
"424 395 OFFCURVE",
"430 327 CURVE",
"430 194 LINE",
"424 113 OFFCURVE",
"371 54 OFFCURVE",
"304 54 CURVE SMOOTH",
"233 54 LINE SMOOTH"
);
}
);
width = 578;
}
);
leftKerningGroup = o;
leftMetricsKey = o;
note = q;
rightKerningGroup = u;
rightMetricsKey = u;
unicode = 0071;
},
{
glyphname = r;
lastChange = "2018-05-28 16:22:04 +0000";
layers = (
{
anchors = (
{
name = bottom;
position = "{126, 0}";
},
{
name = top;
position = "{216, 499}";
}
);
background = {
paths = (
{
closed = 1;
nodes = (
"60 0 LINE",
"196 0 LINE",
"196 269 LINE SMOOTH",
"196 336 OFFCURVE",
"244 381 OFFCURVE",
"315 381 CURVE SMOOTH",
"383 381 LINE",
"383 499 LINE",
"315 499 LINE SMOOTH",
"264 499 OFFCURVE",
"213 475 OFFCURVE",
"186 439 CURVE",
"186 499 LINE",
"60 499 LINE"
);
}
);
};
layerId = "EA06CE92-4115-4482-8874-2441C279E756";
paths = (
{
closed = 1;
nodes = (
"194 0 LINE",
"194 269 LINE SMOOTH",
"194 336 OFFCURVE",
"242 381 OFFCURVE",
"313 381 CURVE SMOOTH",
"381 381 LINE",
"381 499 LINE",
"313 499 LINE SMOOTH",
"261 499 OFFCURVE",
"209 473 OFFCURVE",
"184 435 CURVE",
"184 499 LINE",
"58 499 LINE",
"58 0 LINE"
);
}
);
width = 383;
},
{
anchors = (
{
name = bottom;
position = "{105, 0}";
},
{
name = top;
position = "{195, 499}";
}
);
background = {
paths = (
{
closed = 1;
nodes = (
"123 0 LINE",
"123 316 LINE SMOOTH",
"123 407 OFFCURVE",
"192 470 OFFCURVE",
"279 470 CURVE SMOOTH",
"309 470 LINE",
"309 502 LINE",
"279 502 LINE SMOOTH",
"212 502 OFFCURVE",
"154 469 OFFCURVE",
"122 413 CURVE",
"122 499 LINE",
"88 499 LINE",
"88 0 LINE"
);
}
);
};
layerId = "76C6DC51-463D-4A0C-B694-3EB424048C5D";
paths = (
{
closed = 1;
nodes = (
"123 0 LINE",
"123 315 LINE SMOOTH",
"123 406 OFFCURVE",
"192 470 OFFCURVE",
"279 470 CURVE SMOOTH",
"309 470 LINE",
"309 502 LINE",
"279 502 LINE SMOOTH",
"212 502 OFFCURVE",
"155 469 OFFCURVE",
"123 413 CURVE",
"123 499 LINE",
"88 499 LINE",
"88 0 LINE"
);
}
);
width = 341;
},
{
anchors = (
{
name = bottom;
position = "{112, 0}";
},
{
name = top;
position = "{202, 499}";
}
);
layerId = "BB270C98-E610-4AC3-8B1B-9C54875E1C66";
paths = (
{
closed = 1;
nodes = (
"148 0 LINE",
"148 288 LINE SMOOTH",
"148 377 OFFCURVE",
"205 436 OFFCURVE",
"291 436 CURVE SMOOTH",
"335 436 LINE",
"335 501 LINE",
"291 501 LINE SMOOTH",
"233 501 OFFCURVE",
"173 469 OFFCURVE",
"146 422 CURVE",
"146 499 LINE",
"76 499 LINE",
"76 0 LINE"
);
}
);
width = 355;
}
);
leftKerningGroup = n;
note = r;
rightKerningGroup = r;
unicode = 0072;
},
{
glyphname = s;
lastChange = "2018-05-28 16:22:04 +0000";
layers = (
{
anchors = (
{
name = bottom;
position = "{287, 0}";
},
{
name = top;
position = "{277, 499}";
}
);
background = {
paths = (
{
closed = 1;
nodes = (
"322 -8 LINE SMOOTH",
"443 -8 OFFCURVE",
"523 50 OFFCURVE",
"523 137 CURVE SMOOTH",
"523 173 LINE SMOOTH",
"523 226 OFFCURVE",
"472 271 OFFCURVE",
"396 285 CURVE SMOOTH",
"214 318 LINE SMOOTH",
"194 322 OFFCURVE",
"181 333 OFFCURVE",
"181 346 CURVE SMOOTH",
"181 362 LINE SMOOTH",
"181 381 OFFCURVE",
"205 393 OFFCURVE",
"240 393 CURVE SMOOTH",
"322 393 LINE SMOOTH",
"354 393 OFFCURVE",
"375 374 OFFCURVE",
"375 345 CURVE",
"509 345 LINE",
"509 442 OFFCURVE",
"435 507 OFFCURVE",
"323 507 CURVE SMOOTH",
"237 507 LINE SMOOTH",
"122 507 OFFCURVE",
"45 449 OFFCURVE",
"45 361 CURVE SMOOTH",
"45 328 LINE SMOOTH",
"45 275 OFFCURVE",
"98 230 OFFCURVE",
"177 216 CURVE SMOOTH",
"360 184 LINE SMOOTH",
"376 181 OFFCURVE",
"387 170 OFFCURVE",
"387 156 CURVE SMOOTH",
"387 139 LINE SMOOTH",
"387 119 OFFCURVE",
"363 106 OFFCURVE",
"327 106 CURVE SMOOTH",
"235 106 LINE SMOOTH",
"197 106 OFFCURVE",
"171 130 OFFCURVE",
"171 166 CURVE",
"36 166 LINE",
"36 62 OFFCURVE",
"116 -8 OFFCURVE",
"235 -8 CURVE SMOOTH"
);
}
);
};
layerId = "EA06CE92-4115-4482-8874-2441C279E756";
paths = (
{
closed = 1;
nodes = (
"325 -8 LINE SMOOTH",
"443 -8 OFFCURVE",
"521 46 OFFCURVE",
"521 133 CURVE SMOOTH",
"521 169 LINE SMOOTH",
"521 224 OFFCURVE",
"470 271 OFFCURVE",
"394 285 CURVE SMOOTH",
"212 318 LINE SMOOTH",
"191 322 OFFCURVE",
"179 333 OFFCURVE",
"179 347 CURVE SMOOTH",
"179 363 LINE SMOOTH",
"179 382 OFFCURVE",
"199 393 OFFCURVE",
"234 393 CURVE SMOOTH",
"320 393 LINE SMOOTH",
"352 393 OFFCURVE",
"373 374 OFFCURVE",
"373 345 CURVE",
"507 345 LINE",
"507 442 OFFCURVE",
"432 507 OFFCURVE",
"320 507 CURVE SMOOTH",
"232 507 LINE SMOOTH",
"117 507 OFFCURVE",
"43 454 OFFCURVE",
"43 371 CURVE SMOOTH",
"43 338 LINE SMOOTH",
"43 279 OFFCURVE",
"92 230 OFFCURVE",
"175 216 CURVE SMOOTH",
"348 186 LINE SMOOTH",
"372 182 OFFCURVE",
"385 169 OFFCURVE",
"385 156 CURVE SMOOTH",
"385 139 LINE SMOOTH",
"385 117 OFFCURVE",
"364 106 OFFCURVE",
"325 106 CURVE SMOOTH",
"235 106 LINE SMOOTH",
"195 106 OFFCURVE",
"168 130 OFFCURVE",
"168 166 CURVE",
"34 166 LINE",
"34 62 OFFCURVE",
"114 -8 OFFCURVE",
"235 -8 CURVE SMOOTH"
);
}
);
width = 549;
},
{
anchors = (
{
name = bottom;
position = "{265, 0}";
},
{
name = top;
position = "{255, 499}";
}
);
background = {
paths = (
{
closed = 1;
nodes = (
"295 -8 LINE SMOOTH",
"387 -8 OFFCURVE",
"448 37 OFFCURVE",
"448 104 CURVE SMOOTH",
"448 148 LINE SMOOTH",
"448 199 OFFCURVE",
"408 240 OFFCURVE",
"349 250 CURVE SMOOTH",
"179 279 LINE SMOOTH",
"136 286 OFFCURVE",
"108 315 OFFCURVE",
"108 350 CURVE SMOOTH",
"108 385 LINE SMOOTH",
"108 439 OFFCURVE",
"151 475 OFFCURVE",
"215 475 CURVE SMOOTH",
"300 475 LINE SMOOTH",
"360 475 OFFCURVE",
"401 435 OFFCURVE",
"403 374 CURVE",
"437 374 LINE",
"437 454 OFFCURVE",
"382 507 OFFCURVE",
"300 507 CURVE SMOOTH",
"215 507 LINE SMOOTH",
"130 507 OFFCURVE",
"73 458 OFFCURVE",
"73 385 CURVE SMOOTH",
"73 350 LINE SMOOTH",
"73 299 OFFCURVE",
"115 257 OFFCURVE",
"179 246 CURVE SMOOTH",
"349 217 LINE SMOOTH",
"387 210 OFFCURVE",
"413 183 OFFCURVE",
"413 148 CURVE SMOOTH",
"413 104 LINE SMOOTH",
"413 56 OFFCURVE",
"366 24 OFFCURVE",
"295 24 CURVE SMOOTH",
"210 24 LINE SMOOTH",
"142 24 OFFCURVE",
"96 69 OFFCURVE",
"96 137 CURVE",
"62 137 LINE",
"62 50 OFFCURVE",
"121 -8 OFFCURVE",
"210 -8 CURVE SMOOTH"
);
}
);
};
layerId = "76C6DC51-463D-4A0C-B694-3EB424048C5D";
paths = (
{
closed = 1;
nodes = (
"295 -8 LINE SMOOTH",
"387 -8 OFFCURVE",
"448 37 OFFCURVE",
"448 104 CURVE SMOOTH",
"448 148 LINE SMOOTH",
"448 199 OFFCURVE",
"410 239 OFFCURVE",
"354 249 CURVE SMOOTH",
"179 279 LINE SMOOTH",
"136 286 OFFCURVE",
"108 314 OFFCURVE",
"108 350 CURVE SMOOTH",
"108 385 LINE SMOOTH",
"108 439 OFFCURVE",
"151 475 OFFCURVE",
"215 475 CURVE SMOOTH",
"300 475 LINE SMOOTH",
"360 475 OFFCURVE",
"401 435 OFFCURVE",
"403 374 CURVE",
"437 374 LINE",
"437 454 OFFCURVE",
"382 507 OFFCURVE",
"300 507 CURVE SMOOTH",
"215 507 LINE SMOOTH",
"130 507 OFFCURVE",
"73 458 OFFCURVE",
"73 385 CURVE SMOOTH",
"73 350 LINE SMOOTH",
"73 299 OFFCURVE",
"113 257 OFFCURVE",
"174 247 CURVE SMOOTH",
"349 217 LINE SMOOTH",
"387 210 OFFCURVE",
"413 182 OFFCURVE",
"413 148 CURVE SMOOTH",
"413 104 LINE SMOOTH",
"413 56 OFFCURVE",
"366 24 OFFCURVE",
"295 24 CURVE SMOOTH",
"210 24 LINE SMOOTH",
"142 24 OFFCURVE",
"96 69 OFFCURVE",
"96 137 CURVE",
"62 137 LINE",
"62 50 OFFCURVE",
"121 -8 OFFCURVE",
"210 -8 CURVE SMOOTH"
);
}
);
width = 506;
},
{
anchors = (
{
name = bottom;
position = "{272, 0}";
},
{
name = top;
position = "{262, 499}";
}
);
layerId = "BB270C98-E610-4AC3-8B1B-9C54875E1C66";
paths = (
{
closed = 1;
nodes = (
"305 -8 LINE SMOOTH",
"406 -8 OFFCURVE",
"474 41 OFFCURVE",
"474 115 CURVE SMOOTH",
"474 155 LINE SMOOTH",
"474 211 OFFCURVE",
"430 254 OFFCURVE",
"363 266 CURVE SMOOTH",
"191 296 LINE SMOOTH",
"156 302 OFFCURVE",
"132 324 OFFCURVE",
"132 349 CURVE SMOOTH",
"132 378 LINE SMOOTH",
"132 418 OFFCURVE",
"167 445 OFFCURVE",
"220 445 CURVE SMOOTH",
"306 445 LINE SMOOTH",
"357 445 OFFCURVE",
"391 412 OFFCURVE",
"392 363 CURVE",
"462 363 LINE",
"462 449 OFFCURVE",
"400 507 OFFCURVE",
"306 507 CURVE SMOOTH",
"220 507 LINE SMOOTH",
"124 507 OFFCURVE",
"60 455 OFFCURVE",
"60 378 CURVE SMOOTH",
"60 345 LINE SMOOTH",
"60 291 OFFCURVE",
"106 246 OFFCURVE",
"175 234 CURVE SMOOTH",
"348 204 LINE SMOOTH",
"380 198 OFFCURVE",
"402 177 OFFCURVE",
"402 151 CURVE SMOOTH",
"402 117 LINE SMOOTH",
"402 80 OFFCURVE",
"363 54 OFFCURVE",
"305 54 CURVE SMOOTH",
"218 54 LINE SMOOTH",
"159 54 OFFCURVE",
"120 92 OFFCURVE",
"120 148 CURVE",
"50 148 LINE",
"50 54 OFFCURVE",
"117 -8 OFFCURVE",
"218 -8 CURVE SMOOTH"
);
}
);
width = 520;
}
);
leftKerningGroup = s;
note = s;
rightKerningGroup = s;
unicode = 0073;
},
{
glyphname = t;
lastChange = "2018-05-28 16:22:04 +0000";
layers = (
{
anchors = (
{
name = bottom;
position = "{240, 0}";
},
{
name = center;
position = "{193, 235}";
},
{
name = top;
position = "{193, 626}";
},
{
name = topright;
position = "{345, 499}";
}
);
background = {
paths = (
{
closed = 1;
nodes = (
"374 -28 LINE",
"374 92 LINE",
"288 92 LINE SMOOTH",
"253 92 OFFCURVE",
"244 102 OFFCURVE",
"244 146 CURVE SMOOTH",
"244 407 LINE",
"374 407 LINE",
"374 527 LINE",
"244 527 LINE",
"244 678 LINE",
"108 678 LINE",
"108 527 LINE",
"20 527 LINE",
"20 407 LINE",
"108 407 LINE",
"108 146 LINE SMOOTH",
"108 26 OFFCURVE",
"164 -28 OFFCURVE",
"288 -28 CURVE SMOOTH"
);
}
);
};
layerId = "EA06CE92-4115-4482-8874-2441C279E756";
paths = (
{
closed = 1;
nodes = (
"372 0 LINE",
"372 116 LINE",
"286 116 LINE SMOOTH",
"256 116 OFFCURVE",
"242 133 OFFCURVE",
"242 170 CURVE SMOOTH",
"242 383 LINE",
"372 383 LINE",
"372 499 LINE",
"242 499 LINE",
"242 650 LINE",
"110 650 LINE",
"110 499 LINE",
"18 499 LINE",
"18 383 LINE",
"106 383 LINE",
"106 164 LINE SMOOTH",
"106 52 OFFCURVE",
"159 0 OFFCURVE",
"276 0 CURVE SMOOTH"
);
}
);
width = 410;
},
{
anchors = (
{
name = bottom;
position = "{219, 0}";
},
{
name = center;
position = "{172, 235}";
},
{
name = top;
position = "{172, 626}";
},
{
name = topright;
position = "{324, 499}";
}
);
background = {
paths = (
{
closed = 1;
nodes = (
"300 0 LINE",
"300 33 LINE",
"265 33 LINE SMOOTH",
"190 33 OFFCURVE",
"170 67 OFFCURVE",
"170 132 CURVE SMOOTH",
"170 466 LINE",
"300 466 LINE",
"300 499 LINE",
"170 499 LINE",
"170 650 LINE",
"134 650 LINE",
"134 499 LINE",
"48 499 LINE",
"48 466 LINE",
"136 466 LINE",
"136 135 LINE SMOOTH",
"136 27 OFFCURVE",
"181 0 OFFCURVE",
"271 0 CURVE SMOOTH"
);
}
);
};
layerId = "76C6DC51-463D-4A0C-B694-3EB424048C5D";
paths = (
{
closed = 1;
nodes = (
"300 0 LINE",
"300 32 LINE",
"268 32 LINE SMOOTH",
"198 32 OFFCURVE",
"170 61 OFFCURVE",
"170 134 CURVE SMOOTH",
"170 467 LINE",
"300 467 LINE",
"300 499 LINE",
"170 499 LINE",
"170 650 LINE",
"135 650 LINE",
"135 499 LINE",
"48 499 LINE",
"48 467 LINE",
"134 467 LINE",
"134 134 LINE SMOOTH",
"134 38 OFFCURVE",
"173 0 OFFCURVE",
"272 0 CURVE SMOOTH"
);
}
);
width = 368;
},
{
anchors = (
{
name = bottom;
position = "{226, 0}";
},
{
name = center;
position = "{179, 235}";
},
{
name = top;
position = "{179, 626}";
},
{
name = topright;
position = "{331, 499}";
}
);
layerId = "BB270C98-E610-4AC3-8B1B-9C54875E1C66";
paths = (
{
closed = 1;
nodes = (
"326 0 LINE",
"326 64 LINE",
"272 64 LINE SMOOTH",
"218 64 OFFCURVE",
"196 87 OFFCURVE",
"196 146 CURVE SMOOTH",
"196 435 LINE",
"326 435 LINE",
"326 499 LINE",
"196 499 LINE",
"196 650 LINE",
"124 650 LINE",
"124 499 LINE",
"36 499 LINE",
"36 435 LINE",
"124 435 LINE",
"124 146 LINE SMOOTH",
"124 42 OFFCURVE",
"166 0 OFFCURVE",
"272 0 CURVE SMOOTH"
);
}
);
width = 382;
}
);
leftKerningGroup = t;
note = t;
rightKerningGroup = t;
unicode = 0074;
},
{
glyphname = u;
lastChange = "2018-05-28 16:22:04 +0000";
layers = (
{
anchors = (
{
name = bottom;
position = "{296, 0}";
},
{
name = ogonek;
position = "{508, 0}";
},
{
name = top;
position = "{296, 499}";
},
{
name = topright;
position = "{551, 470}";
}
);
background = {
paths = (
{
closed = 1;
nodes = (
"190 499 LINE",
"54 499 LINE",
"54 190 LINE SMOOTH",
"54 72 OFFCURVE",
"119 -8 OFFCURVE",
"229 -8 CURVE SMOOTH",
"295 -8 LINE SMOOTH",
"329 -8 OFFCURVE",
"384 22 OFFCURVE",
"416 64 CURVE",
"416 0 LINE",
"542 0 LINE",
"542 499 LINE",
"406 499 LINE",
"406 217 LINE",
"393 157 OFFCURVE",
"348 112 OFFCURVE",
"303 112 CURVE SMOOTH",
"241 112 LINE SMOOTH",
"211 112 OFFCURVE",
"190 141 OFFCURVE",
"190 188 CURVE SMOOTH"
);
}
);
};
layerId = "EA06CE92-4115-4482-8874-2441C279E756";
paths = (
{
closed = 1;
nodes = (
"293 -8 LINE SMOOTH",
"332 -8 OFFCURVE",
"381 21 OFFCURVE",
"414 65 CURVE",
"414 0 LINE",
"540 0 LINE",
"540 499 LINE",
"404 499 LINE",
"404 215 LINE",
"390 152 OFFCURVE",
"349 110 OFFCURVE",
"301 110 CURVE SMOOTH",
"241 110 LINE SMOOTH",
"210 110 OFFCURVE",
"188 138 OFFCURVE",
"188 184 CURVE SMOOTH",
"188 499 LINE",
"52 499 LINE",
"52 188 LINE SMOOTH",
"52 69 OFFCURVE",
"122 -8 OFFCURVE",
"227 -8 CURVE SMOOTH"
);
}
);
width = 598;
},
{
anchors = (
{
name = bottom;
position = "{275, 0}";
},
{
name = ogonek;
position = "{487, 0}";
},
{
name = top;
position = "{275, 499}";
},
{
name = topright;
position = "{530, 470}";
}
);
background = {
paths = (
{
closed = 1;
nodes = (
"116 499 LINE",
"82 499 LINE",
"82 146 LINE SMOOTH",
"82 55 OFFCURVE",
"141 -8 OFFCURVE",
"225 -8 CURVE SMOOTH",
"288 -8 LINE SMOOTH",
"342 -8 OFFCURVE",
"403 32 OFFCURVE",
"431 83 CURVE",
"431 0 LINE",
"468 0 LINE",
"468 499 LINE",
"434 499 LINE",
"434 169 LINE",
"418 88 OFFCURVE",
"350 24 OFFCURVE",
"280 24 CURVE SMOOTH",
"217 24 LINE SMOOTH",
"156 24 OFFCURVE",
"116 74 OFFCURVE",
"116 146 CURVE SMOOTH"
);
}
);
};
layerId = "76C6DC51-463D-4A0C-B694-3EB424048C5D";
paths = (
{
closed = 1;
nodes = (
"284 -8 LINE SMOOTH",
"345 -8 OFFCURVE",
"404 33 OFFCURVE",
"433 94 CURVE",
"433 0 LINE",
"468 0 LINE",
"468 499 LINE",
"433 499 LINE",
"433 174 LINE",
"413 84 OFFCURVE",
"354 24 OFFCURVE",
"282 24 CURVE SMOOTH",
"221 24 LINE SMOOTH",
"159 24 OFFCURVE",
"117 73 OFFCURVE",
"117 146 CURVE SMOOTH",
"117 499 LINE",
"82 499 LINE",
"82 146 LINE SMOOTH",
"82 54 OFFCURVE",
"138 -8 OFFCURVE",
"221 -8 CURVE SMOOTH"
);
}
);
width = 556;
},
{
anchors = (
{
name = bottom;
position = "{282, 0}";
},
{
name = ogonek;
position = "{494, 0}";
},
{
name = top;
position = "{282, 499}";
},
{
name = topright;
position = "{537, 470}";
}
);
layerId = "BB270C98-E610-4AC3-8B1B-9C54875E1C66";
paths = (
{
closed = 1;
nodes = (
"289 -8 LINE SMOOTH",
"338 -8 OFFCURVE",
"394 28 OFFCURVE",
"424 76 CURVE",
"424 0 LINE",
"494 0 LINE",
"494 499 LINE",
"422 499 LINE",
"422 186 LINE",
"407 112 OFFCURVE",
"349 56 OFFCURVE",
"287 56 CURVE SMOOTH",
"225 56 LINE SMOOTH",
"175 56 OFFCURVE",
"142 98 OFFCURVE",
"142 160 CURVE SMOOTH",
"142 499 LINE",
"70 499 LINE",
"70 162 LINE SMOOTH",
"70 60 OFFCURVE",
"133 -8 OFFCURVE",
"225 -8 CURVE SMOOTH"
);
}
);
width = 570;
}
);
leftKerningGroup = u;
note = u;
rightKerningGroup = u;
unicode = 0075;
},
{
glyphname = v;
lastChange = "2018-05-28 16:22:04 +0000";
layers = (
{
anchors = (
{
name = bottom;
position = "{261, 0}";
},
{
name = top;
position = "{261, 470}";
}
);
background = {
anchors = (
{
name = bottom;
position = "{263, 0}";
},
{
name = top;
position = "{263, 470}";
}
);
paths = (
{
closed = 1;
nodes = (
"524 499 LINE",
"382 499 LINE",
"247 124 LINE",
"277 124 LINE",
"143 499 LINE",
"1 499 LINE",
"173 65 LINE SMOOTH",
"191 20 OFFCURVE",
"216 0 OFFCURVE",
"255 0 CURVE SMOOTH",
"323 0 LINE"
);
}
);
};
layerId = "EA06CE92-4115-4482-8874-2441C279E756";
paths = (
{
closed = 1;
nodes = (
"322 0 LINE",
"523 499 LINE",
"380 499 LINE",
"261 156 LINE",
"259 156 LINE",
"141 499 LINE",
"-2 499 LINE",
"170 65 LINE SMOOTH",
"188 20 OFFCURVE",
"213 0 OFFCURVE",
"252 0 CURVE SMOOTH"
);
}
);
width = 521;
},
{
anchors = (
{
name = bottom;
position = "{241, 0}";
},
{
name = top;
position = "{240, 470}";
}
);
background = {
paths = (
{
closed = 1;
nodes = (
"261 0 LINE",
"451 499 LINE",
"415 499 LINE",
"240 33 LINE",
"239 33 LINE",
"64 499 LINE",
"28 499 LINE",
"200 42 LINE SMOOTH",
"210 15 OFFCURVE",
"228 0 OFFCURVE",
"248 0 CURVE SMOOTH"
);
}
);
};
layerId = "76C6DC51-463D-4A0C-B694-3EB424048C5D";
paths = (
{
closed = 1;
nodes = (
"260 0 LINE",
"451 499 LINE",
"414 499 LINE",
"240 34 LINE",
"239 34 LINE",
"65 499 LINE",
"28 499 LINE",
"206 29 LINE SMOOTH",
"214 9 OFFCURVE",
"223 0 OFFCURVE",
"242 0 CURVE SMOOTH"
);
}
);
width = 479;
},
{
anchors = (
{
name = bottom;
position = "{247, 0}";
},
{
name = top;
position = "{247, 470}";
}
);
layerId = "BB270C98-E610-4AC3-8B1B-9C54875E1C66";
paths = (
{
closed = 1;
nodes = (
"283 0 LINE",
"477 499 LINE",
"401 499 LINE",
"247 79 LINE",
"246 79 LINE",
"92 499 LINE",
"16 499 LINE",
"188 51 LINE SMOOTH",
"201 17 OFFCURVE",
"221 0 OFFCURVE",
"249 0 CURVE SMOOTH"
);
}
);
width = 493;
}
);
note = v;
unicode = 0076;
},
{
glyphname = w;
lastChange = "2018-05-28 16:22:04 +0000";
layers = (
{
anchors = (
{
name = bottom;
position = "{374, 0}";
},
{
name = top;
position = "{374, 499}";
}
);
background = {
paths = (
{
closed = 1;
nodes = (
"263 0 LINE",
"379 316 LINE",
"491 0 LINE",
"552 0 LINE SMOOTH",
"597 0 OFFCURVE",
"626 25 OFFCURVE",
"638 78 CURVE SMOOTH",
"737 499 LINE",
"596 499 LINE",
"528 147 LINE",
"550 147 LINE",
"443 446 LINE SMOOTH",
"433 474 OFFCURVE",
"415 487 OFFCURVE",
"384 487 CURVE SMOOTH",
"327 487 LINE",
"203 145 LINE",
"226 145 LINE",
"157 499 LINE",
"16 499 LINE",
"117 78 LINE SMOOTH",
"130 25 OFFCURVE",
"159 0 OFFCURVE",
"203 0 CURVE SMOOTH"
);
}
);
};
layerId = "EA06CE92-4115-4482-8874-2441C279E756";
paths = (
{
closed = 1;
nodes = (
"262 0 LINE",
"377 316 LINE",
"488 0 LINE",
"550 0 LINE SMOOTH",
"593 0 OFFCURVE",
"623 23 OFFCURVE",
"636 78 CURVE SMOOTH",
"735 499 LINE",
"594 499 LINE",
"534 186 LINE",
"532 186 LINE",
"441 446 LINE SMOOTH",
"431 474 OFFCURVE",
"413 487 OFFCURVE",
"382 487 CURVE SMOOTH",
"325 487 LINE",
"218 186 LINE",
"216 186 LINE",
"155 499 LINE",
"14 499 LINE",
"115 78 LINE SMOOTH",
"128 25 OFFCURVE",
"156 0 OFFCURVE",
"201 0 CURVE SMOOTH"
);
}
);
width = 749;
},
{
anchors = (
{
name = bottom;
position = "{359, 0}";
},
{
name = top;
position = "{359, 499}";
}
);
background = {
paths = (
{
closed = 1;
nodes = (
"214 0 LINE",
"355 426 LINE",
"492 0 LINE",
"508 0 LINE SMOOTH",
"531 0 OFFCURVE",
"543 11 OFFCURVE",
"550 39 CURVE SMOOTH",
"662 499 LINE",
"625 499 LINE",
"514 39 LINE",
"513 39 LINE",
"376 463 LINE SMOOTH",
"371 478 OFFCURVE",
"365 485 OFFCURVE",
"355 485 CURVE SMOOTH",
"340 485 LINE",
"194 39 LINE",
"193 39 LINE",
"81 499 LINE",
"44 499 LINE",
"157 39 LINE SMOOTH",
"164 11 OFFCURVE",
"176 0 OFFCURVE",
"198 0 CURVE SMOOTH"
);
}
);
};
layerId = "76C6DC51-463D-4A0C-B694-3EB424048C5D";
paths = (
{
closed = 1;
nodes = (
"214 0 LINE",
"355 426 LINE",
"492 0 LINE",
"508 0 LINE SMOOTH",
"531 0 OFFCURVE",
"543 11 OFFCURVE",
"550 39 CURVE SMOOTH",
"662 499 LINE",
"625 499 LINE",
"514 39 LINE",
"513 39 LINE",
"376 463 LINE SMOOTH",
"371 478 OFFCURVE",
"365 485 OFFCURVE",
"355 485 CURVE SMOOTH",
"340 485 LINE",
"194 39 LINE",
"193 39 LINE",
"81 499 LINE",
"44 499 LINE",
"157 39 LINE SMOOTH",
"164 11 OFFCURVE",
"176 0 OFFCURVE",
"198 0 CURVE SMOOTH"
);
}
);
width = 706;
},
{
anchors = (
{
name = bottom;
position = "{362, 0}";
},
{
name = top;
position = "{362, 499}";
}
);
layerId = "BB270C98-E610-4AC3-8B1B-9C54875E1C66";
paths = (
{
closed = 1;
nodes = (
"235 0 LINE",
"364 377 LINE",
"489 0 LINE",
"523 0 LINE SMOOTH",
"555 0 OFFCURVE",
"573 18 OFFCURVE",
"583 58 CURVE SMOOTH",
"691 499 LINE",
"615 499 LINE",
"513 39 LINE",
"537 39 LINE",
"401 453 LINE SMOOTH",
"394 475 OFFCURVE",
"382 485 OFFCURVE",
"362 485 CURVE SMOOTH",
"336 485 LINE",
"190 48 LINE",
"208 48 LINE",
"108 499 LINE",
"32 499 LINE",
"141 58 LINE SMOOTH",
"151 18 OFFCURVE",
"170 0 OFFCURVE",
"201 0 CURVE SMOOTH"
);
}
);
width = 723;
}
);
leftKerningGroup = w;
note = w;
rightKerningGroup = w;
unicode = 0077;
},
{
glyphname = x;
lastChange = "2018-05-29 05:04:35 +0000";
layers = (
{
anchors = (
{
name = bottom;
position = "{245, 0}";
},
{
name = top;
position = "{245, 470}";
}
);
background = {
paths = (
{
closed = 1;
nodes = (
"381 0 LINE",
"536 0 LINE",
"161 499 LINE",
"6 499 LINE"
);
},
{
closed = 1;
nodes = (
"375 499 LINE",
"0 0 LINE",
"155 0 LINE",
"530 499 LINE"
);
}
);
};
layerId = "EA06CE92-4115-4482-8874-2441C279E756";
paths = (
{
closed = 1;
nodes = (
"150 0 LINE",
"266 156 LINE",
"382 0 LINE",
"534 0 LINE",
"345 253 LINE",
"528 499 LINE",
"376 499 LINE",
"266 351 LINE",
"156 499 LINE",
"4 499 LINE",
"187 253 LINE",
"-2 0 LINE"
);
}
);
width = 532;
},
{
anchors = (
{
name = bottom;
position = "{248, 0}";
},
{
name = top;
position = "{248, 470}";
}
);
background = {
paths = (
{
closed = 1;
nodes = (
"441 0 LINE",
"79 499 LINE",
"39 499 LINE",
"401 0 LINE"
);
},
{
closed = 1;
nodes = (
"70 0 LINE",
"432 499 LINE",
"392 499 LINE",
"30 0 LINE"
);
}
);
};
layerId = "76C6DC51-463D-4A0C-B694-3EB424048C5D";
paths = (
{
closed = 1;
nodes = (
"70 0 LINE",
"236 228 LINE",
"401 0 LINE",
"441 0 LINE",
"256 256 LINE",
"432 499 LINE",
"392 499 LINE",
"236 283 LINE",
"79 499 LINE",
"39 499 LINE",
"216 256 LINE",
"30 0 LINE"
);
}
);
width = 471;
},
{
anchors = (
{
name = bottom;
position = "{245, 0}";
},
{
name = top;
position = "{245, 470}";
}
);
layerId = "BB270C98-E610-4AC3-8B1B-9C54875E1C66";
paths = (
{
closed = 1;
nodes = (
"98 0 LINE",
"245 199 LINE",
"392 0 LINE",
"474 0 LINE",
"286 255 LINE",
"466 499 LINE",
"384 499 LINE",
"245 311 LINE",
"106 499 LINE",
"24 499 LINE",
"204 255 LINE",
"16 0 LINE"
);
}
);
width = 490;
}
);
note = x;
rightMetricsKey = "=|";
unicode = 0078;
},
{
glyphname = y;
lastChange = "2018-05-28 16:22:04 +0000";
layers = (
{
anchors = (
{
name = bottom;
position = "{285, -203}";
},
{
name = top;
position = "{279, 499}";
}
);
background = {
paths = (
{
closed = 1;
nodes = (
"336 -203 LINE SMOOTH",
"462 -203 OFFCURVE",
"542 -119 OFFCURVE",
"542 8 CURVE SMOOTH",
"542 499 LINE",
"406 499 LINE",
"406 225 LINE",
"392 162 OFFCURVE",
"351 120 OFFCURVE",
"303 120 CURVE SMOOTH",
"243 120 LINE SMOOTH",
"212 120 OFFCURVE",
"190 148 OFFCURVE",
"190 194 CURVE SMOOTH",
"190 499 LINE",
"54 499 LINE",
"54 200 LINE SMOOTH",
"54 81 OFFCURVE",
"124 4 OFFCURVE",
"229 4 CURVE SMOOTH",
"295 4 LINE SMOOTH",
"334 4 OFFCURVE",
"373 33 OFFCURVE",
"406 77 CURVE",
"406 8 LINE SMOOTH",
"406 -48 OFFCURVE",
"380 -87 OFFCURVE",
"336 -87 CURVE SMOOTH",
"254 -87 LINE SMOOTH",
"225 -87 OFFCURVE",
"199 -70 OFFCURVE",
"196 -38 CURVE",
"62 -38 LINE",
"70 -141 OFFCURVE",
"149 -203 OFFCURVE",
"254 -203 CURVE SMOOTH"
);
}
);
};
layerId = "EA06CE92-4115-4482-8874-2441C279E756";
paths = (
{
closed = 1;
nodes = (
"334 -203 LINE SMOOTH",
"460 -203 OFFCURVE",
"540 -119 OFFCURVE",
"540 8 CURVE SMOOTH",
"540 499 LINE",
"404 499 LINE",
"404 225 LINE",
"390 162 OFFCURVE",
"349 120 OFFCURVE",
"301 120 CURVE SMOOTH",
"241 120 LINE SMOOTH",
"210 120 OFFCURVE",
"188 148 OFFCURVE",
"188 194 CURVE SMOOTH",
"188 499 LINE",
"52 499 LINE",
"52 200 LINE SMOOTH",
"52 81 OFFCURVE",
"122 4 OFFCURVE",
"227 4 CURVE SMOOTH",
"293 4 LINE SMOOTH",
"332 4 OFFCURVE",
"371 33 OFFCURVE",
"404 77 CURVE",
"404 8 LINE SMOOTH",
"404 -49 OFFCURVE",
"376 -87 OFFCURVE",
"334 -87 CURVE SMOOTH",
"252 -87 LINE SMOOTH",
"220 -87 OFFCURVE",
"197 -67 OFFCURVE",
"194 -38 CURVE",
"60 -38 LINE",
"68 -141 OFFCURVE",
"147 -203 OFFCURVE",
"252 -203 CURVE SMOOTH"
);
}
);
width = 598;
},
{
anchors = (
{
name = bottom;
position = "{294, -203}";
},
{
name = top;
position = "{288, 499}";
}
);
background = {
paths = (
{
closed = 1;
nodes = (
"305 -203 LINE SMOOTH",
"411 -203 OFFCURVE",
"471 -138 OFFCURVE",
"471 -21 CURVE SMOOTH",
"471 499 LINE",
"437 499 LINE",
"437 175 LINE",
"422 95 OFFCURVE",
"353 30 OFFCURVE",
"283 30 CURVE SMOOTH",
"220 30 LINE SMOOTH",
"157 30 OFFCURVE",
"116 81 OFFCURVE",
"116 152 CURVE SMOOTH",
"116 499 LINE",
"82 499 LINE",
"82 152 LINE SMOOTH",
"82 60 OFFCURVE",
"143 -2 OFFCURVE",
"228 -2 CURVE SMOOTH",
"291 -2 LINE SMOOTH",
"348 -2 OFFCURVE",
"409 37 OFFCURVE",
"437 85 CURVE",
"437 -21 LINE SMOOTH",
"437 -117 OFFCURVE",
"390 -173 OFFCURVE",
"305 -173 CURVE SMOOTH",
"229 -173 LINE SMOOTH",
"175 -173 OFFCURVE",
"134 -142 OFFCURVE",
"128 -96 CURVE",
"93 -96 LINE",
"98 -157 OFFCURVE",
"152 -203 OFFCURVE",
"229 -203 CURVE SMOOTH"
);
}
);
};
layerId = "76C6DC51-463D-4A0C-B694-3EB424048C5D";
paths = (
{
closed = 1;
nodes = (
"309 -203 LINE SMOOTH",
"410 -203 OFFCURVE",
"470 -137 OFFCURVE",
"470 -26 CURVE SMOOTH",
"470 499 LINE",
"435 499 LINE",
"435 167 LINE",
"408 84 OFFCURVE",
"350 24 OFFCURVE",
"275 24 CURVE SMOOTH",
"221 24 LINE SMOOTH",
"159 24 OFFCURVE",
"117 73 OFFCURVE",
"117 146 CURVE SMOOTH",
"117 499 LINE",
"82 499 LINE",
"82 146 LINE SMOOTH",
"82 54 OFFCURVE",
"138 -8 OFFCURVE",
"221 -8 CURVE SMOOTH",
"275 -8 LINE SMOOTH",
"338 -8 OFFCURVE",
"400 32 OFFCURVE",
"435 95 CURVE",
"435 -26 LINE SMOOTH",
"435 -117 OFFCURVE",
"388 -171 OFFCURVE",
"309 -171 CURVE SMOOTH",
"229 -171 LINE SMOOTH",
"173 -171 OFFCURVE",
"133 -141 OFFCURVE",
"128 -96 CURVE",
"93 -96 LINE",
"99 -160 OFFCURVE",
"152 -203 OFFCURVE",
"229 -203 CURVE SMOOTH"
);
}
);
width = 558;
},
{
anchors = (
{
name = bottom;
position = "{291, -203}";
},
{
name = top;
position = "{285, 499}";
}
);
layerId = "BB270C98-E610-4AC3-8B1B-9C54875E1C66";
paths = (
{
closed = 1;
nodes = (
"315 -203 LINE SMOOTH",
"429 -203 OFFCURVE",
"496 -131 OFFCURVE",
"496 -10 CURVE SMOOTH",
"496 499 LINE",
"424 499 LINE",
"424 194 LINE",
"409 120 OFFCURVE",
"351 64 OFFCURVE",
"289 64 CURVE SMOOTH",
"227 64 LINE SMOOTH",
"176 64 OFFCURVE",
"142 106 OFFCURVE",
"142 168 CURVE SMOOTH",
"142 499 LINE",
"70 499 LINE",
"70 170 LINE SMOOTH",
"70 68 OFFCURVE",
"134 0 OFFCURVE",
"227 0 CURVE SMOOTH",
"291 0 LINE SMOOTH",
"340 0 OFFCURVE",
"393 34 OFFCURVE",
"424 82 CURVE",
"424 -10 LINE SMOOTH",
"424 -92 OFFCURVE",
"384 -141 OFFCURVE",
"315 -141 CURVE SMOOTH",
"237 -141 LINE SMOOTH",
"191 -141 OFFCURVE",
"157 -114 OFFCURVE",
"152 -74 CURVE",
"80 -74 LINE",
"86 -151 OFFCURVE",
"149 -203 OFFCURVE",
"237 -203 CURVE SMOOTH"
);
}
);
width = 572;
}
);
leftKerningGroup = u;
leftMetricsKey = u;
note = y;
rightKerningGroup = u;
rightMetricsKey = u;
unicode = 0079;
},
{
glyphname = z;
lastChange = "2018-05-28 17:12:16 +0000";
layers = (
{
anchors = (
{
name = bottom;
position = "{249, 0}";
},
{
name = top;
position = "{256, 499}";
}
);
background = {
paths = (
{
closed = 1;
nodes = (
"477 0 LINE",
"477 115 LINE",
"212 115 LINE",
"482 431 LINE",
"482 499 LINE",
"30 499 LINE",
"30 384 LINE",
"288 384 LINE",
"18 68 LINE",
"18 0 LINE"
);
}
);
};
layerId = "EA06CE92-4115-4482-8874-2441C279E756";
paths = (
{
closed = 1;
nodes = (
"477 0 LINE",
"477 115 LINE",
"212 115 LINE",
"482 431 LINE",
"482 499 LINE",
"30 499 LINE",
"30 384 LINE",
"288 384 LINE",
"18 68 LINE",
"18 0 LINE"
);
}
);
width = 500;
},
{
anchors = (
{
name = bottom;
position = "{228, 0}";
},
{
name = top;
position = "{235, 499}";
}
);
background = {
paths = (
{
closed = 1;
nodes = (
"405 0 LINE",
"405 30 LINE",
"100 30 LINE",
"410 487 LINE",
"410 499 LINE",
"60 499 LINE",
"60 469 LINE",
"358 469 LINE",
"48 12 LINE",
"48 0 LINE"
);
}
);
};
layerId = "76C6DC51-463D-4A0C-B694-3EB424048C5D";
paths = (
{
closed = 1;
nodes = (
"405 0 LINE",
"405 30 LINE",
"100 30 LINE",
"410 487 LINE",
"410 499 LINE",
"60 499 LINE",
"60 469 LINE",
"358 469 LINE",
"48 12 LINE",
"48 0 LINE"
);
}
);
width = 458;
},
{
anchors = (
{
name = bottom;
position = "{235, 0}";
},
{
name = top;
position = "{242, 499}";
}
);
layerId = "BB270C98-E610-4AC3-8B1B-9C54875E1C66";
paths = (
{
closed = 1;
nodes = (
"431 0 LINE",
"431 61 LINE",
"140 61 LINE",
"436 467 LINE",
"436 499 LINE",
"48 499 LINE",
"48 438 LINE",
"332 438 LINE",
"36 32 LINE",
"36 0 LINE"
);
}
);
width = 472;
}
);
leftKerningGroup = z;
note = z;
rightKerningGroup = z;
unicode = 007A;
},
{
glyphname = AE;
lastChange = "2018-05-28 16:22:04 +0000";
layers = (
{
anchors = (
{
name = bottom;
position = "{467, 0}";
},
{
name = top;
position = "{467, 700}";
}
);
background = {
anchors = (
{
name = bottom;
position = "{467, 0}";
},
{
name = top;
position = "{467, 700}";
}
);
paths = (
{
closed = 1;
nodes = (
"907 700 LINE",
"354 700 LINE",
"-32 0 LINE",
"109 0 LINE",
"200 166 LINE",
"389 166 LINE",
"389 94 LINE SMOOTH",
"389 37 OFFCURVE",
"428 0 OFFCURVE",
"486 0 CURVE SMOOTH",
"907 0 LINE",
"907 120 LINE",
"521 120 LINE",
"521 298 LINE",
"867 298 LINE",
"867 418 LINE",
"521 418 LINE",
"521 580 LINE",
"907 580 LINE"
);
},
{
closed = 1;
nodes = (
"432 612 LINE",
"401 612 LINE",
"401 284 LINE",
"258 284 LINE"
);
}
);
};
layerId = "EA06CE92-4115-4482-8874-2441C279E756";
paths = (
{
closed = 1;
nodes = (
"907 700 LINE",
"354 700 LINE",
"-32 0 LINE",
"109 0 LINE",
"200 166 LINE",
"389 166 LINE",
"389 94 LINE SMOOTH",
"389 37 OFFCURVE",
"428 0 OFFCURVE",
"486 0 CURVE SMOOTH",
"907 0 LINE",
"907 120 LINE",
"521 120 LINE",
"521 298 LINE",
"867 298 LINE",
"867 418 LINE",
"521 418 LINE",
"521 580 LINE",
"907 580 LINE"
);
},
{
closed = 1;
nodes = (
"432 612 LINE",
"401 612 LINE",
"401 284 LINE",
"258 284 LINE"
);
}
);
width = 934;
},
{
anchors = (
{
name = bottom;
position = "{467, 0}";
},
{
name = top;
position = "{542, 700}";
}
);
layerId = "76C6DC51-463D-4A0C-B694-3EB424048C5D";
paths = (
{
closed = 1;
nodes = (
"873 700 LINE",
"388 700 LINE",
"5 0 LINE",
"81 0 LINE",
"187 194 LINE",
"415 194 LINE",
"415 66 LINE SMOOTH",
"415 25 OFFCURVE",
"439 0 OFFCURVE",
"480 0 CURVE SMOOTH",
"873 0 LINE",
"873 64 LINE",
"489 64 LINE",
"489 326 LINE",
"833 326 LINE",
"833 390 LINE",
"489 390 LINE",
"489 636 LINE",
"873 636 LINE"
);
},
{
closed = 1;
nodes = (
"414 608 LINE",
"415 608 LINE",
"415 256 LINE",
"221 256 LINE"
);
}
);
width = 919;
},
{
anchors = (
{
name = bottom;
position = "{467, 0}";
},
{
name = top;
position = "{542, 700}";
}
);
layerId = "BB270C98-E610-4AC3-8B1B-9C54875E1C66";
paths = (
{
closed = 1;
nodes = (
"873 700 LINE",
"388 700 LINE",
"5 0 LINE",
"81 0 LINE",
"187 194 LINE",
"415 194 LINE",
"415 66 LINE SMOOTH",
"415 25 OFFCURVE",
"439 0 OFFCURVE",
"480 0 CURVE SMOOTH",
"873 0 LINE",
"873 64 LINE",
"489 64 LINE",
"489 326 LINE",
"833 326 LINE",
"833 390 LINE",
"489 390 LINE",
"489 636 LINE",
"873 636 LINE"
);
},
{
closed = 1;
nodes = (
"414 608 LINE",
"415 608 LINE",
"415 256 LINE",
"221 256 LINE"
);
}
);
width = 919;
}
);
leftKerningGroup = A;
note = AE;
rightKerningGroup = A;
rightMetricsKey = E;
unicode = 00C6;
},
{
glyphname = Eth;
lastChange = "2018-05-28 16:22:04 +0000";
layers = (
{
background = {
paths = (
{
closed = 1;
nodes = (
"376 0 LINE SMOOTH",
"552 0 OFFCURVE",
"656 111 OFFCURVE",
"656 298 CURVE SMOOTH",
"656 442 LINE SMOOTH",
"656 597 OFFCURVE",
"543 700 OFFCURVE",
"374 700 CURVE SMOOTH",
"43 700 LINE",
"43 414 LINE",
"-37 414 LINE",
"-37 294 LINE",
"43 294 LINE",
"43 93 LINE SMOOTH",
"43 37 OFFCURVE",
"81 0 OFFCURVE",
"140 0 CURVE SMOOTH"
);
},
{
closed = 1;
nodes = (
"181 294 LINE",
"397 294 LINE",
"397 414 LINE",
"181 414 LINE",
"181 578 LINE",
"374 578 LINE SMOOTH",
"460 578 OFFCURVE",
"518 524 OFFCURVE",
"518 442 CURVE SMOOTH",
"518 298 LINE SMOOTH",
"518 187 OFFCURVE",
"465 122 OFFCURVE",
"376 122 CURVE SMOOTH",
"181 122 LINE"
);
}
);
};
layerId = "EA06CE92-4115-4482-8874-2441C279E756";
paths = (
{
closed = 1;
nodes = (
"376 0 LINE SMOOTH",
"552 0 OFFCURVE",
"656 111 OFFCURVE",
"656 298 CURVE SMOOTH",
"656 442 LINE SMOOTH",
"656 597 OFFCURVE",
"543 700 OFFCURVE",
"374 700 CURVE SMOOTH",
"43 700 LINE",
"43 414 LINE",
"-37 414 LINE",
"-37 294 LINE",
"43 294 LINE",
"43 93 LINE SMOOTH",
"43 37 OFFCURVE",
"81 0 OFFCURVE",
"140 0 CURVE SMOOTH"
);
},
{
closed = 1;
nodes = (
"181 294 LINE",
"397 294 LINE",
"397 414 LINE",
"181 414 LINE",
"181 578 LINE",
"374 578 LINE SMOOTH",
"460 578 OFFCURVE",
"518 524 OFFCURVE",
"518 442 CURVE SMOOTH",
"518 298 LINE SMOOTH",
"518 187 OFFCURVE",
"465 122 OFFCURVE",
"376 122 CURVE SMOOTH",
"181 122 LINE"
);
}
);
width = 785;
},
{
components = (
{
name = D;
transform = "{1, 0, 0, 1, 51, 0}";
}
);
layerId = "76C6DC51-463D-4A0C-B694-3EB424048C5D";
paths = (
{
closed = 1;
nodes = (
"406 311 LINE",
"406 377 LINE",
"26 377 LINE",
"26 311 LINE"
);
}
);
width = 717;
},
{
components = (
{
name = D;
transform = "{1, 0, 0, 1, 51, 0}";
}
);
layerId = "BB270C98-E610-4AC3-8B1B-9C54875E1C66";
paths = (
{
closed = 1;
nodes = (
"406 311 LINE",
"406 377 LINE",
"26 377 LINE",
"26 311 LINE"
);
}
);
width = 717;
}
);
note = Eth;
rightMetricsKey = D;
unicode = 00D0;
},
{
glyphname = Dcroat;
lastChange = "2018-05-28 16:22:04 +0000";
layers = (
{
background = {
paths = (
{
closed = 1;
nodes = (
"376 0 LINE SMOOTH",
"552 0 OFFCURVE",
"656 111 OFFCURVE",
"656 298 CURVE SMOOTH",
"656 442 LINE SMOOTH",
"656 597 OFFCURVE",
"543 700 OFFCURVE",
"374 700 CURVE SMOOTH",
"43 700 LINE",
"43 93 LINE SMOOTH",
"43 37 OFFCURVE",
"81 0 OFFCURVE",
"140 0 CURVE SMOOTH"
);
},
{
closed = 1;
nodes = (
"397 294 LINE",
"397 414 LINE",
"-37 414 LINE",
"-37 294 LINE"
);
},
{
closed = 1;
nodes = (
"181 578 LINE",
"374 578 LINE SMOOTH",
"460 578 OFFCURVE",
"518 524 OFFCURVE",
"518 442 CURVE SMOOTH",
"518 298 LINE SMOOTH",
"518 187 OFFCURVE",
"465 122 OFFCURVE",
"376 122 CURVE SMOOTH",
"181 122 LINE"
);
}
);
};
layerId = "EA06CE92-4115-4482-8874-2441C279E756";
paths = (
{
closed = 1;
nodes = (
"376 0 LINE SMOOTH",
"552 0 OFFCURVE",
"656 111 OFFCURVE",
"656 298 CURVE SMOOTH",
"656 442 LINE SMOOTH",
"656 597 OFFCURVE",
"543 700 OFFCURVE",
"374 700 CURVE SMOOTH",
"43 700 LINE",
"43 93 LINE SMOOTH",
"43 37 OFFCURVE",
"81 0 OFFCURVE",
"140 0 CURVE SMOOTH"
);
},
{
closed = 1;
nodes = (
"397 294 LINE",
"397 414 LINE",
"-37 414 LINE",
"-37 294 LINE"
);
},
{
closed = 1;
nodes = (
"181 578 LINE",
"374 578 LINE SMOOTH",
"460 578 OFFCURVE",
"518 524 OFFCURVE",
"518 442 CURVE SMOOTH",
"518 298 LINE SMOOTH",
"518 187 OFFCURVE",
"465 122 OFFCURVE",
"376 122 CURVE SMOOTH",
"181 122 LINE"
);
}
);
width = 785;
},
{
background = {
components = (
{
name = D;
transform = "{1, 0, 0, 1, 51, 0}";
}
);
paths = (
{
closed = 1;
nodes = (
"406 321 LINE",
"406 387 LINE",
"26 387 LINE",
"26 321 LINE"
);
}
);
};
components = (
{
name = D;
transform = "{1, 0, 0, 1, 51, 0}";
}
);
layerId = "76C6DC51-463D-4A0C-B694-3EB424048C5D";
paths = (
{
closed = 1;
nodes = (
"406 311 LINE",
"406 377 LINE",
"26 377 LINE",
"26 311 LINE"
);
}
);
width = 717;
},
{
components = (
{
name = D;
transform = "{1, 0, 0, 1, 51, 0}";
}
);
layerId = "BB270C98-E610-4AC3-8B1B-9C54875E1C66";
paths = (
{
closed = 1;
nodes = (
"406 311 LINE",
"406 377 LINE",
"26 377 LINE",
"26 311 LINE"
);
}
);
width = 717;
}
);
leftMetricsKey = Eth;
note = Dcroat;
rightKerningGroup = D;
rightMetricsKey = Eth;
unicode = 0110;
},
{
glyphname = Hbar;
lastChange = "2018-05-28 16:22:04 +0000";
layers = (
{
background = {
components = (
{
name = H;
}
);
paths = (
{
closed = 1;
nodes = (
"695 514 LINE",
"695 576 LINE",
"-15 576 LINE",
"-15 514 LINE"
);
}
);
};
components = (
{
name = H;
}
);
layerId = "EA06CE92-4115-4482-8874-2441C279E756";
paths = (
{
closed = 1;
nodes = (
"695 514 LINE",
"695 576 LINE",
"-15 576 LINE",
"-15 514 LINE"
);
}
);
width = 773;
},
{
components = (
{
name = H;
transform = "{1, 0, 0, 1, 41, 0}";
}
);
layerId = "76C6DC51-463D-4A0C-B694-3EB424048C5D";
paths = (
{
closed = 1;
nodes = (
"736 510 LINE",
"736 570 LINE",
"26 570 LINE",
"26 510 LINE"
);
}
);
width = 762;
},
{
components = (
{
name = H;
transform = "{1, 0, 0, 1, 41, 0}";
}
);
layerId = "BB270C98-E610-4AC3-8B1B-9C54875E1C66";
paths = (
{
closed = 1;
nodes = (
"736 510 LINE",
"736 570 LINE",
"26 570 LINE",
"26 510 LINE"
);
}
);
width = 762;
}
);
note = Hbar;
unicode = 0126;
},
{
glyphname = Lslash;
lastChange = "2018-05-28 16:22:04 +0000";
layers = (
{
background = {
paths = (
{
closed = 1;
nodes = (
"580 0 LINE",
"580 122 LINE",
"213 122 LINE",
"213 700 LINE",
"75 700 LINE",
"75 93 LINE SMOOTH",
"75 37 OFFCURVE",
"113 0 OFFCURVE",
"172 0 CURVE SMOOTH"
);
},
{
closed = 1;
nodes = (
"345 371 LINE",
"345 507 LINE",
"1 306 LINE",
"1 170 LINE"
);
}
);
};
layerId = "EA06CE92-4115-4482-8874-2441C279E756";
paths = (
{
closed = 1;
nodes = (
"580 0 LINE",
"580 122 LINE",
"213 122 LINE",
"213 700 LINE",
"75 700 LINE",
"75 93 LINE SMOOTH",
"75 37 OFFCURVE",
"113 0 OFFCURVE",
"172 0 CURVE SMOOTH"
);
},
{
closed = 1;
nodes = (
"345 371 LINE",
"345 507 LINE",
"1 306 LINE",
"1 170 LINE"
);
}
);
width = 647;
},
{
background = {
paths = (
{
closed = 1;
nodes = (
"551 0 LINE",
"551 66 LINE",
"184 66 LINE",
"184 700 LINE",
"110 700 LINE",
"110 65 LINE SMOOTH",
"110 24 OFFCURVE",
"134 0 OFFCURVE",
"175 0 CURVE SMOOTH"
);
},
{
closed = 1;
nodes = (
"316 386 LINE",
"316 455 LINE",
"36 291 LINE",
"36 222 LINE"
);
}
);
};
layerId = "76C6DC51-463D-4A0C-B694-3EB424048C5D";
paths = (
{
closed = 1;
nodes = (
"551 0 LINE",
"551 66 LINE",
"184 66 LINE",
"184 700 LINE",
"110 700 LINE",
"110 65 LINE SMOOTH",
"110 24 OFFCURVE",
"134 0 OFFCURVE",
"175 0 CURVE SMOOTH"
);
},
{
closed = 1;
nodes = (
"316 386 LINE",
"316 455 LINE",
"26 285 LINE",
"26 216 LINE"
);
}
);
width = 583;
},
{
layerId = "BB270C98-E610-4AC3-8B1B-9C54875E1C66";
paths = (
{
closed = 1;
nodes = (
"551 0 LINE",
"551 66 LINE",
"184 66 LINE",
"184 700 LINE",
"110 700 LINE",
"110 65 LINE SMOOTH",
"110 24 OFFCURVE",
"134 0 OFFCURVE",
"175 0 CURVE SMOOTH"
);
},
{
closed = 1;
nodes = (
"316 386 LINE",
"316 455 LINE",
"26 285 LINE",
"26 216 LINE"
);
}
);
width = 583;
}
);
note = Lslash;
rightKerningGroup = L;
rightMetricsKey = L;
unicode = 0141;
},
{
glyphname = Eng;
lastChange = "2018-05-28 16:22:04 +0000";
layers = (
{
background = {
paths = (
{
closed = 1;
nodes = (
"183 0 LINE",
"183 470 LINE",
"506 0 LINE",
"642 0 LINE",
"642 700 LINE",
"504 700 LINE",
"504 202 LINE",
"165 700 LINE",
"45 700 LINE",
"45 0 LINE"
);
},
{
closed = 1;
nodes = (
"441 -209 LINE SMOOTH",
"585 -209 OFFCURVE",
"642 -149 OFFCURVE",
"642 0 CURVE SMOOTH",
"642 501 LINE",
"506 501 LINE",
"506 0 LINE SMOOTH",
"506 -66 OFFCURVE",
"487 -93 OFFCURVE",
"441 -93 CURVE SMOOTH",
"374 -93 LINE",
"374 -209 LINE"
);
}
);
};
layerId = "EA06CE92-4115-4482-8874-2441C279E756";
paths = (
{
closed = 1;
nodes = (
"183 0 LINE",
"183 470 LINE",
"506 0 LINE",
"642 0 LINE",
"642 700 LINE",
"504 700 LINE",
"504 202 LINE",
"165 700 LINE",
"45 700 LINE",
"45 0 LINE"
);
},
{
closed = 1;
nodes = (
"441 -209 LINE SMOOTH",
"585 -209 OFFCURVE",
"642 -149 OFFCURVE",
"642 0 CURVE SMOOTH",
"642 501 LINE",
"506 501 LINE",
"506 0 LINE SMOOTH",
"506 -66 OFFCURVE",
"487 -93 OFFCURVE",
"441 -93 CURVE SMOOTH",
"374 -93 LINE",
"374 -209 LINE"
);
}
);
width = 755;
},
{
background = {
paths = (
{
closed = 1;
nodes = (
"149 0 LINE",
"149 577 LINE",
"537 0 LINE",
"609 0 LINE",
"609 701 LINE",
"535 701 LINE",
"535 124 LINE",
"147 701 LINE",
"75 701 LINE",
"75 0 LINE"
);
},
{
closed = 1;
nodes = (
"440 -199 LINE SMOOTH",
"561 -199 OFFCURVE",
"609 -145 OFFCURVE",
"609 -10 CURVE SMOOTH",
"609 501 LINE",
"537 501 LINE",
"537 -15 LINE SMOOTH",
"537 -101 OFFCURVE",
"509 -135 OFFCURVE",
"440 -135 CURVE SMOOTH",
"405 -135 LINE",
"405 -199 LINE"
);
}
);
};
layerId = "76C6DC51-463D-4A0C-B694-3EB424048C5D";
paths = (
{
closed = 1;
nodes = (
"444 -199 LINE SMOOTH",
"565 -199 OFFCURVE",
"613 -145 OFFCURVE",
"613 -10 CURVE SMOOTH",
"613 501 LINE",
"541 501 LINE",
"541 -15 LINE SMOOTH",
"541 -101 OFFCURVE",
"513 -135 OFFCURVE",
"444 -135 CURVE SMOOTH",
"409 -135 LINE",
"409 -199 LINE"
);
},
{
closed = 1;
nodes = (
"148 0 LINE",
"148 576 LINE",
"541 0 LINE",
"613 0 LINE",
"613 700 LINE",
"540 700 LINE",
"540 123 LINE",
"147 700 LINE",
"75 700 LINE",
"75 0 LINE"
);
}
);
width = 755;
},
{
layerId = "BB270C98-E610-4AC3-8B1B-9C54875E1C66";
paths = (
{
closed = 1;
nodes = (
"444 -199 LINE SMOOTH",
"565 -199 OFFCURVE",
"613 -145 OFFCURVE",
"613 -10 CURVE SMOOTH",
"613 501 LINE",
"541 501 LINE",
"541 -15 LINE SMOOTH",
"541 -101 OFFCURVE",
"513 -135 OFFCURVE",
"444 -135 CURVE SMOOTH",
"409 -135 LINE",
"409 -199 LINE"
);
},
{
closed = 1;
nodes = (
"148 0 LINE",
"148 576 LINE",
"541 0 LINE",
"613 0 LINE",
"613 700 LINE",
"540 700 LINE",
"540 123 LINE",
"147 700 LINE",
"75 700 LINE",
"75 0 LINE"
);
}
);
width = 755;
}
);
note = Eng;
unicode = 014A;
},
{
glyphname = Oslash;
lastChange = "2018-05-28 16:22:04 +0000";
layers = (
{
anchors = (
{
name = bottom;
position = "{351, 0}";
},
{
name = top;
position = "{351, 700}";
}
);
background = {
anchors = (
{
name = bottom;
position = "{351, 0}";
},
{
name = top;
position = "{351, 700}";
}
);
paths = (
{
closed = 1;
nodes = (
"140 -58 LINE",
"680 751 LINE",
"569 751 LINE",
"29 -58 LINE"
);
},
{
closed = 1;
nodes = (
"381 -5 LINE SMOOTH",
"558 -5 OFFCURVE",
"676 120 OFFCURVE",
"676 307 CURVE SMOOTH",
"676 448 LINE SMOOTH",
"676 602 OFFCURVE",
"574 705 OFFCURVE",
"422 705 CURVE SMOOTH",
"321 705 LINE SMOOTH",
"143 705 OFFCURVE",
"24 580 OFFCURVE",
"24 393 CURVE SMOOTH",
"24 252 LINE SMOOTH",
"24 98 OFFCURVE",
"126 -5 OFFCURVE",
"278 -5 CURVE SMOOTH"
);
},
{
closed = 1;
nodes = (
"208 117 OFFCURVE",
"162 171 OFFCURVE",
"162 252 CURVE SMOOTH",
"162 393 LINE SMOOTH",
"162 507 OFFCURVE",
"226 583 OFFCURVE",
"321 583 CURVE SMOOTH",
"422 583 LINE SMOOTH",
"492 583 OFFCURVE",
"538 529 OFFCURVE",
"538 448 CURVE SMOOTH",
"538 307 LINE SMOOTH",
"538 193 OFFCURVE",
"475 117 OFFCURVE",
"381 117 CURVE SMOOTH",
"278 117 LINE SMOOTH"
);
}
);
};
layerId = "EA06CE92-4115-4482-8874-2441C279E756";
paths = (
{
closed = 1;
nodes = (
"140 -58 LINE",
"680 751 LINE",
"569 751 LINE",
"29 -58 LINE"
);
},
{
closed = 1;
nodes = (
"381 -5 LINE SMOOTH",
"558 -5 OFFCURVE",
"676 120 OFFCURVE",
"676 307 CURVE SMOOTH",
"676 448 LINE SMOOTH",
"676 602 OFFCURVE",
"574 705 OFFCURVE",
"422 705 CURVE SMOOTH",
"321 705 LINE SMOOTH",
"143 705 OFFCURVE",
"24 580 OFFCURVE",
"24 393 CURVE SMOOTH",
"24 252 LINE SMOOTH",
"24 98 OFFCURVE",
"126 -5 OFFCURVE",
"278 -5 CURVE SMOOTH"
);
},
{
closed = 1;
nodes = (
"208 117 OFFCURVE",
"162 171 OFFCURVE",
"162 252 CURVE SMOOTH",
"162 393 LINE SMOOTH",
"162 507 OFFCURVE",
"226 583 OFFCURVE",
"321 583 CURVE SMOOTH",
"422 583 LINE SMOOTH",
"492 583 OFFCURVE",
"538 529 OFFCURVE",
"538 448 CURVE SMOOTH",
"538 307 LINE SMOOTH",
"538 193 OFFCURVE",
"475 117 OFFCURVE",
"381 117 CURVE SMOOTH",
"278 117 LINE SMOOTH"
);
}
);
width = 701;
},
{
anchors = (
{
name = bottom;
position = "{344, 0}";
},
{
name = top;
position = "{344, 700}";
}
);
background = {
paths = (
{
closed = 1;
nodes = (
"130 422 LINE SMOOTH",
"130 553 OFFCURVE",
"206 640 OFFCURVE",
"321 640 CURVE SMOOTH",
"422 640 LINE SMOOTH",
"511 640 OFFCURVE",
"570 575 OFFCURVE",
"570 477 CURVE SMOOTH",
"570 278 LINE SMOOTH",
"570 147 OFFCURVE",
"494 60 OFFCURVE",
"381 60 CURVE SMOOTH",
"278 60 LINE SMOOTH",
"189 60 OFFCURVE",
"130 125 OFFCURVE",
"130 223 CURVE SMOOTH"
);
},
{
closed = 1;
nodes = (
"56 86 OFFCURVE",
"145 -6 OFFCURVE",
"278 -6 CURVE SMOOTH",
"381 -6 LINE SMOOTH",
"539 -6 OFFCURVE",
"644 108 OFFCURVE",
"644 278 CURVE SMOOTH",
"644 477 LINE SMOOTH",
"644 614 OFFCURVE",
"555 706 OFFCURVE",
"422 706 CURVE SMOOTH",
"321 706 LINE SMOOTH",
"162 706 OFFCURVE",
"56 592 OFFCURVE",
"56 422 CURVE SMOOTH",
"56 223 LINE SMOOTH"
);
},
{
closed = 1;
nodes = (
"127 -45 LINE",
"648 737 LINE",
"581 737 LINE",
"60 -45 LINE"
);
}
);
};
components = (
{
name = O;
}
);
layerId = "76C6DC51-463D-4A0C-B694-3EB424048C5D";
paths = (
{
closed = 1;
nodes = (
"127 -45 LINE",
"648 737 LINE",
"581 737 LINE",
"60 -45 LINE"
);
}
);
width = 688;
},
{
anchors = (
{
name = bottom;
position = "{344, 0}";
},
{
name = top;
position = "{344, 700}";
}
);
components = (
{
name = O;
}
);
layerId = "BB270C98-E610-4AC3-8B1B-9C54875E1C66";
paths = (
{
closed = 1;
nodes = (
"127 -45 LINE",
"648 737 LINE",
"581 737 LINE",
"60 -45 LINE"
);
}
);
width = 688;
}
);
leftKerningGroup = O;
leftMetricsKey = O;
widthMetricsKey = O;
note = Oslash;
rightKerningGroup = O;
unicode = 00D8;
},
{
glyphname = OE;
lastChange = "2018-05-28 16:22:04 +0000";
layers = (
{
background = {
paths = (
{
closed = 1;
nodes = (
"381 -6 LINE SMOOTH",
"464 -6 OFFCURVE",
"541 32 OFFCURVE",
"575 95 CURVE",
"560 94 LINE",
"560 38 OFFCURVE",
"599 0 OFFCURVE",
"657 0 CURVE SMOOTH",
"1072 0 LINE",
"1072 120 LINE",
"676 120 LINE",
"676 298 LINE",
"1032 298 LINE",
"1032 418 LINE",
"676 418 LINE",
"676 580 LINE",
"1072 580 LINE",
"1072 700 LINE",
"560 700 LINE",
"560 644 LINE",
"530 681 OFFCURVE",
"475 706 OFFCURVE",
"422 706 CURVE SMOOTH",
"331 706 LINE SMOOTH",
"153 706 OFFCURVE",
"34 581 OFFCURVE",
"34 394 CURVE SMOOTH",
"34 251 LINE SMOOTH",
"34 97 OFFCURVE",
"136 -6 OFFCURVE",
"288 -6 CURVE SMOOTH"
);
},
{
closed = 1;
nodes = (
"218 116 OFFCURVE",
"172 170 OFFCURVE",
"172 251 CURVE SMOOTH",
"172 394 LINE SMOOTH",
"172 508 OFFCURVE",
"236 584 OFFCURVE",
"331 584 CURVE SMOOTH",
"422 584 LINE SMOOTH",
"492 584 OFFCURVE",
"538 530 OFFCURVE",
"538 449 CURVE SMOOTH",
"538 306 LINE SMOOTH",
"538 190 OFFCURVE",
"475 116 OFFCURVE",
"381 116 CURVE SMOOTH",
"288 116 LINE SMOOTH"
);
}
);
};
layerId = "EA06CE92-4115-4482-8874-2441C279E756";
paths = (
{
closed = 1;
nodes = (
"381 -6 LINE SMOOTH",
"464 -6 OFFCURVE",
"541 32 OFFCURVE",
"575 95 CURVE",
"560 94 LINE",
"560 38 OFFCURVE",
"599 0 OFFCURVE",
"657 0 CURVE SMOOTH",
"1072 0 LINE",
"1072 120 LINE",
"676 120 LINE",
"676 298 LINE",
"1032 298 LINE",
"1032 418 LINE",
"676 418 LINE",
"676 580 LINE",
"1072 580 LINE",
"1072 700 LINE",
"560 700 LINE",
"560 644 LINE",
"530 681 OFFCURVE",
"475 706 OFFCURVE",
"422 706 CURVE SMOOTH",
"331 706 LINE SMOOTH",
"153 706 OFFCURVE",
"34 581 OFFCURVE",
"34 394 CURVE SMOOTH",
"34 251 LINE SMOOTH",
"34 97 OFFCURVE",
"136 -6 OFFCURVE",
"288 -6 CURVE SMOOTH"
);
},
{
closed = 1;
nodes = (
"218 116 OFFCURVE",
"172 170 OFFCURVE",
"172 251 CURVE SMOOTH",
"172 394 LINE SMOOTH",
"172 508 OFFCURVE",
"236 584 OFFCURVE",
"331 584 CURVE SMOOTH",
"422 584 LINE SMOOTH",
"492 584 OFFCURVE",
"538 530 OFFCURVE",
"538 449 CURVE SMOOTH",
"538 306 LINE SMOOTH",
"538 190 OFFCURVE",
"475 116 OFFCURVE",
"381 116 CURVE SMOOTH",
"288 116 LINE SMOOTH"
);
}
);
width = 1107;
},
{
background = {
paths = (
{
closed = 1;
nodes = (
"1022 636 LINE",
"1022 700 LINE",
"564 700 LINE",
"564 631 LINE",
"527 678 OFFCURVE",
"467 706 OFFCURVE",
"401 706 CURVE SMOOTH",
"293 706 LINE SMOOTH",
"151 706 OFFCURVE",
"56 605 OFFCURVE",
"56 453 CURVE SMOOTH",
"56 247 LINE SMOOTH",
"56 95 OFFCURVE",
"150 -6 OFFCURVE",
"290 -6 CURVE SMOOTH",
"394 -6 LINE SMOOTH",
"460 -6 OFFCURVE",
"529 29 OFFCURVE",
"565 82 CURVE",
"565 57 LINE SMOOTH",
"565 23 OFFCURVE",
"593 0 OFFCURVE",
"631 0 CURVE SMOOTH",
"1022 0 LINE",
"1022 64 LINE",
"638 64 LINE",
"638 326 LINE",
"982 326 LINE",
"982 390 LINE",
"638 390 LINE",
"638 636 LINE"
);
},
{
closed = 1;
nodes = (
"292 60 LINE SMOOTH",
"195 60 OFFCURVE",
"130 135 OFFCURVE",
"130 247 CURVE SMOOTH",
"130 453 LINE SMOOTH",
"130 565 OFFCURVE",
"196 640 OFFCURVE",
"295 640 CURVE SMOOTH",
"399 640 LINE SMOOTH",
"498 640 OFFCURVE",
"564 565 OFFCURVE",
"564 453 CURVE SMOOTH",
"564 251 LINE SMOOTH",
"564 136 OFFCURVE",
"495 60 OFFCURVE",
"392 60 CURVE SMOOTH"
);
}
);
};
layerId = "76C6DC51-463D-4A0C-B694-3EB424048C5D";
paths = (
{
closed = 1;
nodes = (
"1022 636 LINE",
"1022 700 LINE",
"564 700 LINE",
"564 631 LINE",
"527 678 OFFCURVE",
"467 706 OFFCURVE",
"401 706 CURVE SMOOTH",
"293 706 LINE SMOOTH",
"151 706 OFFCURVE",
"56 605 OFFCURVE",
"56 453 CURVE SMOOTH",
"56 247 LINE SMOOTH",
"56 95 OFFCURVE",
"150 -6 OFFCURVE",
"290 -6 CURVE SMOOTH",
"394 -6 LINE SMOOTH",
"460 -6 OFFCURVE",
"529 29 OFFCURVE",
"565 82 CURVE",
"565 57 LINE SMOOTH",
"565 23 OFFCURVE",
"593 0 OFFCURVE",
"631 0 CURVE SMOOTH",
"1022 0 LINE",
"1022 64 LINE",
"638 64 LINE",
"638 326 LINE",
"982 326 LINE",
"982 390 LINE",
"638 390 LINE",
"638 636 LINE"
);
},
{
closed = 1;
nodes = (
"292 60 LINE SMOOTH",
"195 60 OFFCURVE",
"130 135 OFFCURVE",
"130 247 CURVE SMOOTH",
"130 453 LINE SMOOTH",
"130 565 OFFCURVE",
"196 640 OFFCURVE",
"295 640 CURVE SMOOTH",
"399 640 LINE SMOOTH",
"498 640 OFFCURVE",
"564 565 OFFCURVE",
"564 453 CURVE SMOOTH",
"564 251 LINE SMOOTH",
"564 136 OFFCURVE",
"495 60 OFFCURVE",
"392 60 CURVE SMOOTH"
);
}
);
width = 1068;
},
{
layerId = "BB270C98-E610-4AC3-8B1B-9C54875E1C66";
paths = (
{
closed = 1;
nodes = (
"1022 636 LINE",
"1022 700 LINE",
"564 700 LINE",
"564 631 LINE",
"527 678 OFFCURVE",
"467 706 OFFCURVE",
"401 706 CURVE SMOOTH",
"293 706 LINE SMOOTH",
"151 706 OFFCURVE",
"56 605 OFFCURVE",
"56 453 CURVE SMOOTH",
"56 247 LINE SMOOTH",
"56 95 OFFCURVE",
"150 -6 OFFCURVE",
"290 -6 CURVE SMOOTH",
"394 -6 LINE SMOOTH",
"460 -6 OFFCURVE",
"529 29 OFFCURVE",
"565 82 CURVE",
"565 57 LINE SMOOTH",
"565 23 OFFCURVE",
"593 0 OFFCURVE",
"631 0 CURVE SMOOTH",
"1022 0 LINE",
"1022 64 LINE",
"638 64 LINE",
"638 326 LINE",
"982 326 LINE",
"982 390 LINE",
"638 390 LINE",
"638 636 LINE"
);
},
{
closed = 1;
nodes = (
"292 60 LINE SMOOTH",
"195 60 OFFCURVE",
"130 135 OFFCURVE",
"130 247 CURVE SMOOTH",
"130 453 LINE SMOOTH",
"130 565 OFFCURVE",
"196 640 OFFCURVE",
"295 640 CURVE SMOOTH",
"399 640 LINE SMOOTH",
"498 640 OFFCURVE",
"564 565 OFFCURVE",
"564 453 CURVE SMOOTH",
"564 251 LINE SMOOTH",
"564 136 OFFCURVE",
"495 60 OFFCURVE",
"392 60 CURVE SMOOTH"
);
}
);
width = 1068;
}
);
leftKerningGroup = O;
leftMetricsKey = O;
note = OE;
rightKerningGroup = E;
rightMetricsKey = E;
unicode = 0152;
},
{
glyphname = Thorn;
lastChange = "2018-05-28 16:22:04 +0000";
layers = (
{
background = {
paths = (
{
closed = 1;
nodes = (
"434 480 LINE SMOOTH",
"471 480 OFFCURVE",
"496 455 OFFCURVE",
"496 417 CURVE SMOOTH",
"496 322 LINE SMOOTH",
"496 269 OFFCURVE",
"450 233 OFFCURVE",
"379 233 CURVE SMOOTH",
"183 233 LINE",
"183 480 LINE"
);
},
{
closed = 1;
nodes = (
"532 113 OFFCURVE",
"634 196 OFFCURVE",
"634 321 CURVE SMOOTH",
"634 413 LINE SMOOTH",
"634 525 OFFCURVE",
"554 600 OFFCURVE",
"434 600 CURVE SMOOTH",
"183 600 LINE",
"183 700 LINE",
"45 700 LINE",
"45 0 LINE",
"183 0 LINE",
"183 113 LINE",
"379 113 LINE SMOOTH"
);
}
);
};
layerId = "EA06CE92-4115-4482-8874-2441C279E756";
paths = (
{
closed = 1;
nodes = (
"434 480 LINE SMOOTH",
"471 480 OFFCURVE",
"496 455 OFFCURVE",
"496 417 CURVE SMOOTH",
"496 322 LINE SMOOTH",
"496 269 OFFCURVE",
"450 233 OFFCURVE",
"379 233 CURVE SMOOTH",
"183 233 LINE",
"183 480 LINE"
);
},
{
closed = 1;
nodes = (
"532 113 OFFCURVE",
"634 196 OFFCURVE",
"634 321 CURVE SMOOTH",
"634 413 LINE SMOOTH",
"634 525 OFFCURVE",
"554 600 OFFCURVE",
"434 600 CURVE SMOOTH",
"183 600 LINE",
"183 700 LINE",
"45 700 LINE",
"45 0 LINE",
"183 0 LINE",
"183 113 LINE",
"379 113 LINE SMOOTH"
);
}
);
width = 582;
},
{
background = {
paths = (
{
closed = 1;
nodes = (
"412 508 LINE SMOOTH",
"473 508 OFFCURVE",
"513 462 OFFCURVE",
"513 408 CURVE SMOOTH",
"513 315 LINE SMOOTH",
"513 249 OFFCURVE",
"464 205 OFFCURVE",
"390 205 CURVE SMOOTH",
"149 205 LINE",
"149 508 LINE"
);
},
{
closed = 1;
nodes = (
"509 139 OFFCURVE",
"587 209 OFFCURVE",
"587 313 CURVE SMOOTH",
"587 406 LINE SMOOTH",
"587 501 OFFCURVE",
"518 574 OFFCURVE",
"414 574 CURVE SMOOTH",
"149 574 LINE",
"149 700 LINE",
"75 700 LINE",
"75 0 LINE",
"149 0 LINE",
"149 139 LINE",
"392 139 LINE SMOOTH"
);
}
);
};
layerId = "76C6DC51-463D-4A0C-B694-3EB424048C5D";
paths = (
{
closed = 1;
nodes = (
"413 508 LINE SMOOTH",
"474 508 OFFCURVE",
"514 472 OFFCURVE",
"514 418 CURVE SMOOTH",
"514 315 LINE SMOOTH",
"514 249 OFFCURVE",
"465 205 OFFCURVE",
"391 205 CURVE SMOOTH",
"150 205 LINE",
"150 508 LINE"
);
},
{
closed = 1;
nodes = (
"510 139 OFFCURVE",
"588 209 OFFCURVE",
"588 313 CURVE SMOOTH",
"588 416 LINE SMOOTH",
"588 511 OFFCURVE",
"519 574 OFFCURVE",
"415 574 CURVE SMOOTH",
"76 574 LINE",
"76 0 LINE",
"150 0 LINE",
"150 139 LINE",
"393 139 LINE SMOOTH"
);
},
{
closed = 1;
nodes = (
"76 519 LINE",
"150 519 LINE",
"150 700 LINE",
"76 700 LINE"
);
}
);
width = 634;
},
{
layerId = "BB270C98-E610-4AC3-8B1B-9C54875E1C66";
paths = (
{
closed = 1;
nodes = (
"413 508 LINE SMOOTH",
"474 508 OFFCURVE",
"514 472 OFFCURVE",
"514 418 CURVE SMOOTH",
"514 315 LINE SMOOTH",
"514 249 OFFCURVE",
"465 205 OFFCURVE",
"391 205 CURVE SMOOTH",
"150 205 LINE",
"150 508 LINE"
);
},
{
closed = 1;
nodes = (
"510 139 OFFCURVE",
"588 209 OFFCURVE",
"588 313 CURVE SMOOTH",
"588 416 LINE SMOOTH",
"588 511 OFFCURVE",
"519 574 OFFCURVE",
"415 574 CURVE SMOOTH",
"76 574 LINE",
"76 0 LINE",
"150 0 LINE",
"150 139 LINE",
"393 139 LINE SMOOTH"
);
},
{
closed = 1;
nodes = (
"76 519 LINE",
"150 519 LINE",
"150 700 LINE",
"76 700 LINE"
);
}
);
width = 634;
}
);
leftMetricsKey = P;
note = Thorn;
unicode = 00DE;
},
